<svg width="30" height="30" viewBox="0 0 30 30" fill="none" xmlns="http://www.w3.org/2000/svg">
<path d="M11.0539 0.366943H9.83496V1.5859H11.0539V0.366943Z" fill="#EAFF82"/>
<path d="M12.2375 0.366943H11.0186V1.5859H12.2375V0.366943Z" fill="#EAFF82"/>
<path d="M19.3381 0.366943H18.1191V1.5859H19.3381V0.366943Z" fill="#EAFF82"/>
<path d="M20.5217 0.366943H19.3027V1.5859H20.5217V0.366943Z" fill="#EAFF82"/>
<path d="M15.7873 1.55042H14.5684V2.76937H15.7873V1.55042Z" fill="#EAFF82"/>
<path d="M12.2375 2.73389H11.0186V3.95284H12.2375V2.73389Z" fill="#EAFF82"/>
<path d="M15.7873 2.73389H14.5684V3.95284H15.7873V2.73389Z" fill="#EAFF82"/>
<path d="M18.1545 2.73389H16.9355V3.95284H18.1545V2.73389Z" fill="#EAFF82"/>
<path d="M20.5217 2.73389H19.3027V3.95284H20.5217V2.73389Z" fill="#EAFF82"/>
<path d="M13.4211 3.91724H12.2021V5.13619H13.4211V3.91724Z" fill="#EAFF82"/>
<path d="M11.0539 5.10071H9.83496V6.31966H11.0539V5.10071Z" fill="#EAFF82"/>
<path d="M12.2375 5.10071H11.0186V6.31966H12.2375V5.10071Z" fill="#EAFF82"/>
<path d="M13.4211 5.10071H12.2021V6.31966H13.4211V5.10071Z" fill="#EAFF82"/>
<path d="M14.6037 5.10071H13.3848V6.31966H14.6037V5.10071Z" fill="#EAFF82"/>
<path d="M16.9709 5.10071H15.752V6.31966H16.9709V5.10071Z" fill="#EAFF82"/>
<path d="M18.1545 5.10071H16.9355V6.31966H18.1545V5.10071Z" fill="#EAFF82"/>
<path d="M19.3381 5.10071H18.1191V6.31966H19.3381V5.10071Z" fill="#EAFF82"/>
<path d="M11.0539 6.28418H9.83496V7.50313H11.0539V6.28418Z" fill="#EAFF82"/>
<path d="M16.9709 6.28418H15.752V7.50313H16.9709V6.28418Z" fill="#EAFF82"/>
<path d="M18.1545 6.28418H16.9355V7.50313H18.1545V6.28418Z" fill="#EAFF82"/>
<path d="M19.3381 6.28418H18.1191V7.50313H19.3381V6.28418Z" fill="#EAFF82"/>
<path d="M20.5217 6.28418H19.3027V7.50313H20.5217V6.28418Z" fill="#EAFF82"/>
<path d="M11.0539 7.46765H9.83496V8.6866H11.0539V7.46765Z" fill="#EAFF82"/>
<path d="M13.4211 7.46765H12.2021V8.6866H13.4211V7.46765Z" fill="#EAFF82"/>
<path d="M15.7873 7.46765H14.5684V8.6866H15.7873V7.46765Z" fill="#EAFF82"/>
<path d="M18.1545 7.46765H16.9355V8.6866H18.1545V7.46765Z" fill="#EAFF82"/>
<path d="M20.5217 7.46765H19.3027V8.6866H20.5217V7.46765Z" fill="#EAFF82"/>
<path d="M12.2375 8.65112H11.0186V9.87007H12.2375V8.65112Z" fill="#EAFF82"/>
<path d="M13.4211 8.65112H12.2021V9.87007H13.4211V8.65112Z" fill="#EAFF82"/>
<path d="M14.6037 8.65112H13.3848V9.87007H14.6037V8.65112Z" fill="#EAFF82"/>
<path d="M15.7873 8.65112H14.5684V9.87007H15.7873V8.65112Z" fill="#EAFF82"/>
<path d="M16.9709 8.65112H15.752V9.87007H16.9709V8.65112Z" fill="#EAFF82"/>
<path d="M20.5217 8.65112H19.3027V9.87007H20.5217V8.65112Z" fill="#EAFF82"/>
<path d="M2.76973 9.83447H1.55078V11.0534H2.76973V9.83447Z" fill="#EAFF82"/>
<path d="M3.95333 9.83447H2.73438V11.0534H3.95333V9.83447Z" fill="#EAFF82"/>
<path d="M5.13692 9.83447H3.91797V11.0534H5.13692V9.83447Z" fill="#EAFF82"/>
<path d="M6.31954 9.83447H5.10059V11.0534H6.31954V9.83447Z" fill="#EAFF82"/>
<path d="M7.50313 9.83447H6.28418V11.0534H7.50313V9.83447Z" fill="#EAFF82"/>
<path d="M8.68673 9.83447H7.46777V11.0534H8.68673V9.83447Z" fill="#EAFF82"/>
<path d="M9.87032 9.83447H8.65137V11.0534H9.87032V9.83447Z" fill="#EAFF82"/>
<path d="M12.2375 9.83447H11.0186V11.0534H12.2375V9.83447Z" fill="#EAFF82"/>
<path d="M14.6037 9.83447H13.3848V11.0534H14.6037V9.83447Z" fill="#EAFF82"/>
<path d="M18.1545 9.83447H16.9355V11.0534H18.1545V9.83447Z" fill="#EAFF82"/>
<path d="M24.0715 9.83447H22.8525V11.0534H24.0715V9.83447Z" fill="#EAFF82"/>
<path d="M25.2551 9.83447H24.0361V11.0534H25.2551V9.83447Z" fill="#EAFF82"/>
<path d="M29.9885 9.83447H28.7695V11.0534H29.9885V9.83447Z" fill="#EAFF82"/>
<path d="M1.58614 11.0179H0.367188V12.2369H1.58614V11.0179Z" fill="#EAFF82"/>
<path d="M3.95333 11.0179H2.73438V12.2369H3.95333V11.0179Z" fill="#EAFF82"/>
<path d="M5.13692 11.0179H3.91797V12.2369H5.13692V11.0179Z" fill="#EAFF82"/>
<path d="M9.87032 11.0179H8.65137V12.2369H9.87032V11.0179Z" fill="#EAFF82"/>
<path d="M11.0539 11.0179H9.83496V12.2369H11.0539V11.0179Z" fill="#EAFF82"/>
<path d="M14.6037 11.0179H13.3848V12.2369H14.6037V11.0179Z" fill="#EAFF82"/>
<path d="M24.0715 11.0179H22.8525V12.2369H24.0715V11.0179Z" fill="#EAFF82"/>
<path d="M28.8059 11.0179H27.5869V12.2369H28.8059V11.0179Z" fill="#EAFF82"/>
<path d="M1.58614 12.2014H0.367188V13.4204H1.58614V12.2014Z" fill="#EAFF82"/>
<path d="M3.95333 12.2014H2.73438V13.4204H3.95333V12.2014Z" fill="#EAFF82"/>
<path d="M8.68673 12.2014H7.46777V13.4204H8.68673V12.2014Z" fill="#EAFF82"/>
<path d="M11.0539 12.2014H9.83496V13.4204H11.0539V12.2014Z" fill="#EAFF82"/>
<path d="M13.4211 12.2014H12.2021V13.4204H13.4211V12.2014Z" fill="#EAFF82"/>
<path d="M19.3381 12.2014H18.1191V13.4204H19.3381V12.2014Z" fill="#EAFF82"/>
<path d="M20.5217 12.2014H19.3027V13.4204H20.5217V12.2014Z" fill="#EAFF82"/>
<path d="M22.8879 12.2014H21.6689V13.4204H22.8879V12.2014Z" fill="#EAFF82"/>
<path d="M26.4387 12.2014H25.2197V13.4204H26.4387V12.2014Z" fill="#EAFF82"/>
<path d="M28.8059 12.2014H27.5869V13.4204H28.8059V12.2014Z" fill="#EAFF82"/>
<path d="M29.9885 12.2014H28.7695V13.4204H29.9885V12.2014Z" fill="#EAFF82"/>
<path d="M1.58614 13.3849H0.367188V14.6038H1.58614V13.3849Z" fill="#EAFF82"/>
<path d="M5.13692 13.3849H3.91797V14.6038H5.13692V13.3849Z" fill="#EAFF82"/>
<path d="M12.2375 13.3849H11.0186V14.6038H12.2375V13.3849Z" fill="#EAFF82"/>
<path d="M15.7873 13.3849H14.5684V14.6038H15.7873V13.3849Z" fill="#EAFF82"/>
<path d="M18.1545 13.3849H16.9355V14.6038H18.1545V13.3849Z" fill="#EAFF82"/>
<path d="M20.5217 13.3849H19.3027V14.6038H20.5217V13.3849Z" fill="#EAFF82"/>
<path d="M21.7043 13.3849H20.4854V14.6038H21.7043V13.3849Z" fill="#EAFF82"/>
<path d="M22.8879 13.3849H21.6689V14.6038H22.8879V13.3849Z" fill="#EAFF82"/>
<path d="M24.0715 13.3849H22.8525V14.6038H24.0715V13.3849Z" fill="#EAFF82"/>
<path d="M29.9885 13.3849H28.7695V14.6038H29.9885V13.3849Z" fill="#EAFF82"/>
<path d="M1.58614 14.5684H0.367188V15.7873H1.58614V14.5684Z" fill="#EAFF82"/>
<path d="M3.95333 14.5684H2.73438V15.7873H3.95333V14.5684Z" fill="#EAFF82"/>
<path d="M7.50313 14.5684H6.28418V15.7873H7.50313V14.5684Z" fill="#EAFF82"/>
<path d="M8.68673 14.5684H7.46777V15.7873H8.68673V14.5684Z" fill="#EAFF82"/>
<path d="M11.0539 14.5684H9.83496V15.7873H11.0539V14.5684Z" fill="#EAFF82"/>
<path d="M12.2375 14.5684H11.0186V15.7873H12.2375V14.5684Z" fill="#EAFF82"/>
<path d="M13.4211 14.5684H12.2021V15.7873H13.4211V14.5684Z" fill="#EAFF82"/>
<path d="M21.7043 14.5684H20.4854V15.7873H21.7043V14.5684Z" fill="#EAFF82"/>
<path d="M22.8879 14.5684H21.6689V15.7873H22.8879V14.5684Z" fill="#EAFF82"/>
<path d="M24.0715 14.5684H22.8525V15.7873H24.0715V14.5684Z" fill="#EAFF82"/>
<path d="M25.2551 14.5684H24.0361V15.7873H25.2551V14.5684Z" fill="#EAFF82"/>
<path d="M27.6223 14.5684H26.4033V15.7873H27.6223V14.5684Z" fill="#EAFF82"/>
<path d="M28.8059 14.5684H27.5869V15.7873H28.8059V14.5684Z" fill="#EAFF82"/>
<path d="M29.9885 14.5684H28.7695V15.7873H29.9885V14.5684Z" fill="#EAFF82"/>
<path d="M1.58614 15.7517H0.367188V16.9707H1.58614V15.7517Z" fill="#EAFF82"/>
<path d="M2.76973 15.7517H1.55078V16.9707H2.76973V15.7517Z" fill="#EAFF82"/>
<path d="M5.13692 15.7517H3.91797V16.9707H5.13692V15.7517Z" fill="#EAFF82"/>
<path d="M6.31954 15.7517H5.10059V16.9707H6.31954V15.7517Z" fill="#EAFF82"/>
<path d="M15.7873 15.7517H14.5684V16.9707H15.7873V15.7517Z" fill="#EAFF82"/>
<path d="M18.1545 15.7517H16.9355V16.9707H18.1545V15.7517Z" fill="#EAFF82"/>
<path d="M20.5217 15.7517H19.3027V16.9707H20.5217V15.7517Z" fill="#EAFF82"/>
<path d="M24.0715 15.7517H22.8525V16.9707H24.0715V15.7517Z" fill="#EAFF82"/>
<path d="M26.4387 15.7517H25.2197V16.9707H26.4387V15.7517Z" fill="#EAFF82"/>
<path d="M28.8059 15.7517H27.5869V16.9707H28.8059V15.7517Z" fill="#EAFF82"/>
<path d="M1.58614 16.9352H0.367188V18.1541H1.58614V16.9352Z" fill="#EAFF82"/>
<path d="M3.95333 16.9352H2.73438V18.1541H3.95333V16.9352Z" fill="#EAFF82"/>
<path d="M6.31954 16.9352H5.10059V18.1541H6.31954V16.9352Z" fill="#EAFF82"/>
<path d="M8.68673 16.9352H7.46777V18.1541H8.68673V16.9352Z" fill="#EAFF82"/>
<path d="M9.87032 16.9352H8.65137V18.1541H9.87032V16.9352Z" fill="#EAFF82"/>
<path d="M13.4211 16.9352H12.2021V18.1541H13.4211V16.9352Z" fill="#EAFF82"/>
<path d="M19.3381 16.9352H18.1191V18.1541H19.3381V16.9352Z" fill="#EAFF82"/>
<path d="M20.5217 16.9352H19.3027V18.1541H20.5217V16.9352Z" fill="#EAFF82"/>
<path d="M24.0715 16.9352H22.8525V18.1541H24.0715V16.9352Z" fill="#EAFF82"/>
<path d="M25.2551 16.9352H24.0361V18.1541H25.2551V16.9352Z" fill="#EAFF82"/>
<path d="M26.4387 16.9352H25.2197V18.1541H26.4387V16.9352Z" fill="#EAFF82"/>
<path d="M28.8059 16.9352H27.5869V18.1541H28.8059V16.9352Z" fill="#EAFF82"/>
<path d="M29.9885 16.9352H28.7695V18.1541H29.9885V16.9352Z" fill="#EAFF82"/>
<path d="M1.58614 18.1187H0.367188V19.3376H1.58614V18.1187Z" fill="#EAFF82"/>
<path d="M3.95333 18.1187H2.73438V19.3376H3.95333V18.1187Z" fill="#EAFF82"/>
<path d="M6.31954 18.1187H5.10059V19.3376H6.31954V18.1187Z" fill="#EAFF82"/>
<path d="M15.7873 18.1187H14.5684V19.3376H15.7873V18.1187Z" fill="#EAFF82"/>
<path d="M19.3381 18.1187H18.1191V19.3376H19.3381V18.1187Z" fill="#EAFF82"/>
<path d="M21.7043 18.1187H20.4854V19.3376H21.7043V18.1187Z" fill="#EAFF82"/>
<path d="M24.0715 18.1187H22.8525V19.3376H24.0715V18.1187Z" fill="#EAFF82"/>
<path d="M25.2551 18.1187H24.0361V19.3376H25.2551V18.1187Z" fill="#EAFF82"/>
<path d="M26.4387 18.1187H25.2197V19.3376H26.4387V18.1187Z" fill="#EAFF82"/>
<path d="M29.9885 18.1187H28.7695V19.3376H29.9885V18.1187Z" fill="#EAFF82"/>
<path d="M1.58614 19.3021H0.367188V20.5211H1.58614V19.3021Z" fill="#EAFF82"/>
<path d="M5.13692 19.3021H3.91797V20.5211H5.13692V19.3021Z" fill="#EAFF82"/>
<path d="M6.31954 19.3021H5.10059V20.5211H6.31954V19.3021Z" fill="#EAFF82"/>
<path d="M8.68673 19.3021H7.46777V20.5211H8.68673V19.3021Z" fill="#EAFF82"/>
<path d="M14.6037 19.3021H13.3848V20.5211H14.6037V19.3021Z" fill="#EAFF82"/>
<path d="M15.7873 19.3021H14.5684V20.5211H15.7873V19.3021Z" fill="#EAFF82"/>
<path d="M20.5217 19.3021H19.3027V20.5211H20.5217V19.3021Z" fill="#EAFF82"/>
<path d="M21.7043 19.3021H20.4854V20.5211H21.7043V19.3021Z" fill="#EAFF82"/>
<path d="M22.8879 19.3021H21.6689V20.5211H22.8879V19.3021Z" fill="#EAFF82"/>
<path d="M24.0715 19.3021H22.8525V20.5211H24.0715V19.3021Z" fill="#EAFF82"/>
<path d="M25.2551 19.3021H24.0361V20.5211H25.2551V19.3021Z" fill="#EAFF82"/>
<path d="M27.6223 19.3021H26.4033V20.5211H27.6223V19.3021Z" fill="#EAFF82"/>
<path d="M11.0539 20.4856H9.83496V21.7045H11.0539V20.4856Z" fill="#EAFF82"/>
<path d="M12.2375 20.4856H11.0186V21.7045H12.2375V20.4856Z" fill="#EAFF82"/>
<path d="M13.4211 20.4856H12.2021V21.7045H13.4211V20.4856Z" fill="#EAFF82"/>
<path d="M16.9709 20.4856H15.752V21.7045H16.9709V20.4856Z" fill="#EAFF82"/>
<path d="M18.1545 20.4856H16.9355V21.7045H18.1545V20.4856Z" fill="#EAFF82"/>
<path d="M19.3381 20.4856H18.1191V21.7045H19.3381V20.4856Z" fill="#EAFF82"/>
<path d="M20.5217 20.4856H19.3027V21.7045H20.5217V20.4856Z" fill="#EAFF82"/>
<path d="M25.2551 20.4856H24.0361V21.7045H25.2551V20.4856Z" fill="#EAFF82"/>
<path d="M26.4387 20.4856H25.2197V21.7045H26.4387V20.4856Z" fill="#EAFF82"/>
<path d="M27.6223 20.4856H26.4033V21.7045H27.6223V20.4856Z" fill="#EAFF82"/>
<path d="M11.0539 21.6691H9.83496V22.888H11.0539V21.6691Z" fill="#EAFF82"/>
<path d="M13.4211 21.6691H12.2021V22.888H13.4211V21.6691Z" fill="#EAFF82"/>
<path d="M14.6037 21.6691H13.3848V22.888H14.6037V21.6691Z" fill="#EAFF82"/>
<path d="M16.9709 21.6691H15.752V22.888H16.9709V21.6691Z" fill="#EAFF82"/>
<path d="M18.1545 21.6691H16.9355V22.888H18.1545V21.6691Z" fill="#EAFF82"/>
<path d="M20.5217 21.6691H19.3027V22.888H20.5217V21.6691Z" fill="#EAFF82"/>
<path d="M22.8879 21.6691H21.6689V22.888H22.8879V21.6691Z" fill="#EAFF82"/>
<path d="M25.2551 21.6691H24.0361V22.888H25.2551V21.6691Z" fill="#EAFF82"/>
<path d="M26.4387 21.6691H25.2197V22.888H26.4387V21.6691Z" fill="#EAFF82"/>
<path d="M27.6223 21.6691H26.4033V22.888H27.6223V21.6691Z" fill="#EAFF82"/>
<path d="M28.8059 21.6691H27.5869V22.888H28.8059V21.6691Z" fill="#EAFF82"/>
<path d="M29.9885 21.6691H28.7695V22.888H29.9885V21.6691Z" fill="#EAFF82"/>
<path d="M11.0539 22.8524H9.83496V24.0714H11.0539V22.8524Z" fill="#EAFF82"/>
<path d="M12.2375 22.8524H11.0186V24.0714H12.2375V22.8524Z" fill="#EAFF82"/>
<path d="M14.6037 22.8524H13.3848V24.0714H14.6037V22.8524Z" fill="#EAFF82"/>
<path d="M15.7873 22.8524H14.5684V24.0714H15.7873V22.8524Z" fill="#EAFF82"/>
<path d="M16.9709 22.8524H15.752V24.0714H16.9709V22.8524Z" fill="#EAFF82"/>
<path d="M18.1545 22.8524H16.9355V24.0714H18.1545V22.8524Z" fill="#EAFF82"/>
<path d="M20.5217 22.8524H19.3027V24.0714H20.5217V22.8524Z" fill="#EAFF82"/>
<path d="M25.2551 22.8524H24.0361V24.0714H25.2551V22.8524Z" fill="#EAFF82"/>
<path d="M26.4387 22.8524H25.2197V24.0714H26.4387V22.8524Z" fill="#EAFF82"/>
<path d="M29.9885 22.8524H28.7695V24.0714H29.9885V22.8524Z" fill="#EAFF82"/>
<path d="M11.0539 24.0359H9.83496V25.2548H11.0539V24.0359Z" fill="#EAFF82"/>
<path d="M14.6037 24.0359H13.3848V25.2548H14.6037V24.0359Z" fill="#EAFF82"/>
<path d="M18.1545 24.0359H16.9355V25.2548H18.1545V24.0359Z" fill="#EAFF82"/>
<path d="M19.3381 24.0359H18.1191V25.2548H19.3381V24.0359Z" fill="#EAFF82"/>
<path d="M20.5217 24.0359H19.3027V25.2548H20.5217V24.0359Z" fill="#EAFF82"/>
<path d="M21.7043 24.0359H20.4854V25.2548H21.7043V24.0359Z" fill="#EAFF82"/>
<path d="M22.8879 24.0359H21.6689V25.2548H22.8879V24.0359Z" fill="#EAFF82"/>
<path d="M24.0715 24.0359H22.8525V25.2548H24.0715V24.0359Z" fill="#EAFF82"/>
<path d="M25.2551 24.0359H24.0361V25.2548H25.2551V24.0359Z" fill="#EAFF82"/>
<path d="M26.4387 24.0359H25.2197V25.2548H26.4387V24.0359Z" fill="#EAFF82"/>
<path d="M27.6223 24.0359H26.4033V25.2548H27.6223V24.0359Z" fill="#EAFF82"/>
<path d="M29.9885 24.0359H28.7695V25.2548H29.9885V24.0359Z" fill="#EAFF82"/>
<path d="M11.0539 25.2194H9.83496V26.4383H11.0539V25.2194Z" fill="#EAFF82"/>
<path d="M13.4211 25.2194H12.2021V26.4383H13.4211V25.2194Z" fill="#EAFF82"/>
<path d="M14.6037 25.2194H13.3848V26.4383H14.6037V25.2194Z" fill="#EAFF82"/>
<path d="M15.7873 25.2194H14.5684V26.4383H15.7873V25.2194Z" fill="#EAFF82"/>
<path d="M19.3381 25.2194H18.1191V26.4383H19.3381V25.2194Z" fill="#EAFF82"/>
<path d="M20.5217 25.2194H19.3027V26.4383H20.5217V25.2194Z" fill="#EAFF82"/>
<path d="M21.7043 25.2194H20.4854V26.4383H21.7043V25.2194Z" fill="#EAFF82"/>
<path d="M22.8879 25.2194H21.6689V26.4383H22.8879V25.2194Z" fill="#EAFF82"/>
<path d="M25.2551 25.2194H24.0361V26.4383H25.2551V25.2194Z" fill="#EAFF82"/>
<path d="M27.6223 25.2194H26.4033V26.4383H27.6223V25.2194Z" fill="#EAFF82"/>
<path d="M28.8059 25.2194H27.5869V26.4383H28.8059V25.2194Z" fill="#EAFF82"/>
<path d="M29.9885 25.2194H28.7695V26.4383H29.9885V25.2194Z" fill="#EAFF82"/>
<path d="M11.0539 26.4028H9.83496V27.6218H11.0539V26.4028Z" fill="#EAFF82"/>
<path d="M13.4211 26.4028H12.2021V27.6218H13.4211V26.4028Z" fill="#EAFF82"/>
<path d="M20.5217 26.4028H19.3027V27.6218H20.5217V26.4028Z" fill="#EAFF82"/>
<path d="M24.0715 26.4028H22.8525V27.6218H24.0715V26.4028Z" fill="#EAFF82"/>
<path d="M27.6223 26.4028H26.4033V27.6218H27.6223V26.4028Z" fill="#EAFF82"/>
<path d="M29.9885 26.4028H28.7695V27.6218H29.9885V26.4028Z" fill="#EAFF82"/>
<path d="M11.0539 27.5863H9.83496V28.8053H11.0539V27.5863Z" fill="#EAFF82"/>
<path d="M12.2375 27.5863H11.0186V28.8053H12.2375V27.5863Z" fill="#EAFF82"/>
<path d="M14.6037 27.5863H13.3848V28.8053H14.6037V27.5863Z" fill="#EAFF82"/>
<path d="M16.9709 27.5863H15.752V28.8053H16.9709V27.5863Z" fill="#EAFF82"/>
<path d="M18.1545 27.5863H16.9355V28.8053H18.1545V27.5863Z" fill="#EAFF82"/>
<path d="M19.3381 27.5863H18.1191V28.8053H19.3381V27.5863Z" fill="#EAFF82"/>
<path d="M20.5217 27.5863H19.3027V28.8053H20.5217V27.5863Z" fill="#EAFF82"/>
<path d="M21.7043 27.5863H20.4854V28.8053H21.7043V27.5863Z" fill="#EAFF82"/>
<path d="M22.8879 27.5863H21.6689V28.8053H22.8879V27.5863Z" fill="#EAFF82"/>
<path d="M24.0715 27.5863H22.8525V28.8053H24.0715V27.5863Z" fill="#EAFF82"/>
<path d="M25.2551 27.5863H24.0361V28.8053H25.2551V27.5863Z" fill="#EAFF82"/>
<path d="M26.4387 27.5863H25.2197V28.8053H26.4387V27.5863Z" fill="#EAFF82"/>
<path d="M29.9885 27.5863H28.7695V28.8053H29.9885V27.5863Z" fill="#EAFF82"/>
<path d="M13.4211 28.7697H12.2021V29.9886H13.4211V28.7697Z" fill="#EAFF82"/>
<path d="M14.6037 28.7697H13.3848V29.9886H14.6037V28.7697Z" fill="#EAFF82"/>
<path d="M18.1545 28.7697H16.9355V29.9886H18.1545V28.7697Z" fill="#EAFF82"/>
<path d="M19.3381 28.7697H18.1191V29.9886H19.3381V28.7697Z" fill="#EAFF82"/>
<path d="M21.7043 28.7697H20.4854V29.9886H21.7043V28.7697Z" fill="#EAFF82"/>
<path d="M22.8879 28.7697H21.6689V29.9886H22.8879V28.7697Z" fill="#EAFF82"/>
<path d="M24.0715 28.7697H22.8525V29.9886H24.0715V28.7697Z" fill="#EAFF82"/>
<path d="M25.2551 28.7697H24.0361V29.9886H25.2551V28.7697Z" fill="#EAFF82"/>
<path d="M26.4387 28.7697H25.2197V29.9886H26.4387V28.7697Z" fill="#EAFF82"/>
<path d="M27.6223 28.7697H26.4033V29.9886H27.6223V28.7697Z" fill="#EAFF82"/>
<path d="M28.8059 28.7697H27.5869V29.9886H28.8059V28.7697Z" fill="#EAFF82"/>
<path d="M29.9885 28.7697H28.7695V29.9886H29.9885V28.7697Z" fill="#EAFF82"/>
<path d="M0.367188 0.366943V8.65108H8.65133V0.366943H0.367188ZM7.46788 7.46763H1.55064V1.55039H7.46788V7.46763Z" fill="#EAFF82"/>
<path d="M21.6689 0.366943V8.65108H29.9531V0.366943H21.6689ZM28.7696 7.46763H22.8524V1.55039H28.7696V7.46763Z" fill="#EAFF82"/>
<path d="M0.367188 21.6691V29.9532H8.65133V21.6691H0.367188ZM7.46788 28.7698H1.55064V22.8525H7.46788V28.7698Z" fill="#EAFF82"/>
<path d="M6.28472 2.73389H2.73438V6.28423H6.28472V2.73389Z" fill="#EAFF82"/>
<path d="M27.5865 2.73389H24.0361V6.28423H27.5865V2.73389Z" fill="#EAFF82"/>
<path d="M6.28472 24.0359H2.73438V27.5862H6.28472V24.0359Z" fill="#EAFF82"/>
</svg>
