<svg xmlns="http://www.w3.org/2000/svg" viewBox="0 0 32 32"><title>27-Email-Message</title><g id="_27-Email-Message" data-name="27-Email-Message"><path d="M31.59,11.19,27,7.83V5a1,1,0,0,0-1-1H21.78L16.59.19a1,1,0,0,0-1.18,0L10.22,4H6A1,1,0,0,0,5,5V7.83L.41,11.19A1,1,0,0,0,0,12V29a3,3,0,0,0,3,3H29a3,3,0,0,0,3-3V12A1,1,0,0,0,31.59,11.19ZM27,10.31l2.2,1.61L27,13.23ZM16,2.24,18.4,4H13.6ZM7,6H25v8.43l-9,5.4-9-5.4ZM5,10.31v2.93L2.8,11.92ZM2,28.59V13.77l9.26,5.56ZM3.41,30,13,20.38l2.46,1.47a1,1,0,0,0,1,0L19,20.38,28.59,30ZM30,28.59l-9.26-9.26L30,13.77Z"/><rect x="10" y="9" width="12" height="2"/><rect x="12" y="13" width="8" height="2"/></g></svg>