<?xml version="1.0" encoding="utf-8"?><!DOCTYPE svg  PUBLIC '-//W3C//DTD SVG 1.1//EN'  'http://www.w3.org/Graphics/SVG/1.1/DTD/svg11.dtd'><svg viewBox="0 0 512 512" xmlns="http://www.w3.org/2000/svg" xmlns:xlink="http://www.w3.org/1999/xlink"><style>:root>svg{display:none}:root>svg:target{display:block}</style><svg viewBox="0 0 512 512" id="download" xmlns="http://www.w3.org/2000/svg"><!--! Font Awesome Pro 6.1.1 by @fontawesome - https://fontawesome.com License - https://fontawesome.com/license (Commercial License) Copyright 2022 Fonticons, Inc.--><path d="M480 352H346.5l-45.25 45.25C289.2 409.3 273.1 416 256 416s-33.16-6.656-45.25-18.75L165.5 352H32c-17.67 0-32 14.33-32 32v96c0 17.67 14.33 32 32 32h448c17.67 0 32-14.33 32-32v-96c0-17.7-14.3-32-32-32zm-48 104c-13.2 0-24-10.8-24-24s10.8-24 24-24 24 10.8 24 24-10.8 24-24 24zm-198.6-81.4c6.2 6.3 14.4 9.4 22.6 9.4s16.38-3.125 22.62-9.375l128-128c12.49-12.5 12.49-32.75 0-45.25-12.5-12.5-32.76-12.5-45.25 0L288 274.8V32c0-17.67-14.33-32-32-32-17.7 0-32 14.33-32 32v242.8l-73.4-73.4c-12.49-12.5-32.75-12.5-45.25 0-12.49 12.5-12.49 32.75 0 45.25L233.4 374.6z"/></svg><svg viewBox="0 0 512 512" id="github" xmlns="http://www.w3.org/2000/svg"><path d="M218.7 445.5c-6.6.7-12.2 1.4-17.8 2-29.1 2.9-54.5-5-73.7-27.7-6-7.1-9.4-16.3-14.5-24.2-7.9-12.4-16-24.7-24.7-36.6-3-4.1-8.2-6.5-12.2-10-1.3-1.1-1.7-3.2-2.6-4.9 1.8-.7 3.5-1.9 5.3-2.1 23-2.1 39.2 8.5 50.5 27.6 14.1 23.8 34.5 36.8 62.2 36.8 8 0 16-2.7 23.9-4.5 1.5-.4 3.3-2.7 3.5-4.4 1.4-10.4 2.7-20.8 7.5-30.3 1.8-3.5 3.9-6.8 6-10.4-8.1-1.6-15.9-2.8-23.6-4.7-35.5-9-64.8-26.8-81.8-60.6-6.6-13.2-10.3-27.4-10.8-42.2-.8-22.8-.5-45.7 4.1-68.2 3.3-15.8 9.3-30.5 21.3-41.9 2.6-2.5 3.1-4.7 1.7-8.5-6.7-18.7-7.4-37.7-1.7-56.8 1.2-4.1 2.3-8.2 3.5-12.5 27.4 5.2 43.7 23.7 59 44.2 15.8-11.7 34.5-12.7 52.7-13.9 21.6-1.4 43.3-1.1 64.8 2.4 11.2 1.8 18.1 4.1 29 10.6 9.4-9.7 18.2-19.5 27.9-28.4 7.7-7.1 17.3-11.6 27.7-14 2.9-.7 4.4-.4 5.6 2.8 8.1 22.1 9.3 44.1.4 66.2-1.2 3-1.1 5.1 1.4 7.5 14.4 13.7 21 31.4 23.2 50.5 2 17.7 3.1 35.5 3.1 53.3 0 25.3-7.5 48.5-23.4 68.4-11.2 14.1-25.7 24.2-42.1 31.8-15.9 7.3-32.5 11.5-49.7 13.7-.4.1-.8.4-1.5.7 11.8 16.9 13.7 35.9 13.5 55.6-.3 28.7-.2 57.3 0 86 0 4.5-1.3 5.6-5.7 5.6-35.5-.2-71-.2-106.5 0-4.4 0-5.8-1.4-5.8-5.7.2-15.5.1-31 .1-46.5.2-2.3.2-4.3.2-6.7z"/></svg><svg viewBox="0 0 512 512" id="linkedin" xmlns="http://www.w3.org/2000/svg"><path d="M173.5 508.7v-7-323c0-3-.2-5.4 4.2-5.4 31.8.2 63.7.1 95.5.1.8 0 1.6.2 2.9.4v41.7c.4.1.7.3 1.1.4 4-5.2 7.8-10.6 12-15.7 12.2-15 27.5-26 45.5-32.6 9.8-3.6 20.5-5.8 30.8-6.3 14.2-.6 28.7-.4 42.7 2 23 3.9 43.3 14.1 60.1 30.8 15.9 15.7 26.4 34.6 32.1 55.9 3 11.3 4.9 22.9 6.7 34.4 1.2 8 1.8 16.2 1.8 24.2.1 65 .1 130 .1 195 0 1.6-.1 3.2-.2 5.3h-5.1c-30.7 0-61.3-.1-92 .1-5.1 0-6-1.7-6-6.3.1-59.8.3-119.7-.1-179.5-.1-10.5-1.1-21.4-3.8-31.5-4.9-17.7-16.1-30.5-33.9-37-15-5.5-30.2-6.5-45.6-2.6-17 4.3-28.7 15.6-37.5 30.5-6.8 11.5-8.1 24.2-8.2 36.9-.4 60.7-.2 121.3-.2 182v7.1c-34.5.1-68.4.1-102.9.1zM109.1 342.6c0 53.3-.1 106.6.1 159.9 0 4.8-1 6.6-6.3 6.5-30.5-.3-61-.3-91.5 0-5 0-6.1-1.7-6.1-6.3.1-107.1.1-214.3 0-321.4 0-4.3 1.2-5.8 5.6-5.8 30.8.2 61.6.2 92.5 0 4.8 0 5.7 1.8 5.7 6.1v161zM56.1 4.8C89 4 108.7 27.9 108.8 57.2c.1 30-20.9 52.4-53.9 52.3-30.7 0-52.4-22-52.3-53.1.1-29.1 21.2-52.6 53.5-51.6z"/></svg><svg viewBox="0 0 512 512" id="telegram" xmlns="http://www.w3.org/2000/svg"><path d="M470.435 45.423L16.827 221.249c-18.254 8.188-24.428 24.585-4.412 33.484l116.37 37.173 281.368-174.79c15.363-10.973 31.091-8.047 17.557 4.024L186.053 341.075l-7.591 93.076c7.031 14.371 19.905 14.438 28.117 7.295l66.858-63.589 114.505 86.187c26.595 15.826 41.066 5.613 46.788-23.394l75.105-357.47c7.798-35.705-5.5-51.437-39.4-37.757z"/></svg></svg>