<?xml version="1.0" standalone="no"?>
<!DOCTYPE svg PUBLIC "-//W3C//DTD SVG 1.1//EN" "http://www.w3.org/Graphics/SVG/1.1/DTD/svg11.dtd" >
<svg xmlns="http://www.w3.org/2000/svg">
<metadata>Generated by IcoMoon</metadata>
<defs>
<font id="icomoon" horiz-adv-x="1024">
<font-face units-per-em="1024" ascent="960" descent="-64" />
<missing-glyph horiz-adv-x="1024" />
<glyph unicode="&#x20;" horiz-adv-x="512" d="" />
<glyph unicode="&#xe900;" glyph-name="home" d="M960 480c-6.978 0.047-13.417 2.32-18.651 6.143l0.091-0.063-429.44 306.56-429.44-306.56c-4.663-2.806-10.291-4.467-16.307-4.467-17.673 0-32 14.327-32 32 0 9.706 4.321 18.403 11.145 24.271l0.042 0.035 448 320c5.156 3.709 11.599 5.932 18.56 5.932s13.404-2.223 18.655-5.998l-0.095 0.065 448-320c8.059-5.883 13.235-15.298 13.235-25.921 0-17.601-14.21-31.883-31.784-31.999h-0.011zM160 672c-17.673 0-32 14.327-32 32v0 128c0 17.673 14.327 32 32 32v0h128c17.673 0 32-14.327 32-32s-14.327-32-32-32v0h-96v-96c0-17.673-14.327-32-32-32v0zM800 32h-160c-17.673 0-32 14.327-32 32v0 224h-192v-224c0-17.673-14.327-32-32-32v0h-160c-53.019 0-96 42.981-96 96v0 320c0 17.673 14.327 32 32 32s32-14.327 32-32v0-320c0-17.673 14.327-32 32-32v0h128v224c0 17.673 14.327 32 32 32v0h256c17.673 0 32-14.327 32-32v0-224h128c17.673 0 32 14.327 32 32v0 320c0 17.673 14.327 32 32 32s32-14.327 32-32v0-320c0-53.019-42.981-96-96-96v0z" />
<glyph unicode="&#xe901;" glyph-name="person" d="M512 416c-141.385 0-256 114.615-256 256s114.615 256 256 256c141.385 0 256-114.615 256-256v0c0-141.385-114.615-256-256-256v0zM512 864c-106.039 0-192-85.961-192-192s85.961-192 192-192c106.039 0 192 85.961 192 192v0c0 106.039-85.961 192-192 192v0zM736-32h-448c-88.366 0-160 71.634-160 160v0 128c0.002 11.65 6.229 21.844 15.535 27.439l0.145 0.081 160 96c3.872 1.794 8.403 2.84 13.179 2.84 17.673 0 32-14.327 32-32 0-10.599-5.153-19.994-13.089-25.817l-0.089-0.063-143.68-86.72v-109.76c0-53.019 42.981-96 96-96v0h448c53.019 0 96 42.981 96 96v0 109.76l-144.32 86.72c-11.191 5.148-18.821 16.263-18.821 29.16 0 17.673 14.327 32 32 32 7.074 0 13.613-2.296 18.911-6.183l-0.089 0.063 160-96c9.706-5.531 16.177-15.754 16.32-27.5v-128.020c0-88.366-71.634-160-160-160v0z" />
<glyph unicode="&#xe902;" glyph-name="code" d="M280.4 628.4c-5.766 7.135-14.516 11.66-24.323 11.66-7.853 0-15.029-2.902-20.514-7.691l0.037 0.031-192-160c-7.057-5.839-11.52-14.598-11.52-24.4s4.463-18.561 11.467-24.357l0.053-0.043 192-160c5.448-4.758 12.623-7.66 20.477-7.66 9.807 0 18.557 4.525 24.277 11.601l0.046 0.059c4.758 5.448 7.66 12.623 7.66 20.477 0 9.807-4.525 18.557-11.601 24.277l-0.059 0.046-162.4 135.6 162.4 135.6c7.135 5.766 11.66 14.516 11.66 24.323 0 7.853-2.902 15.029-7.691 20.514l0.031-0.037zM980.4 472.4l-192 160c-4.975 3.342-11.1 5.334-17.69 5.334-17.673 0-32-14.327-32-32 0-8.594 3.388-16.396 8.9-22.145l-0.011 0.011 162.4-135.6-162.4-135.6c-6.931-5.907-11.298-14.644-11.298-24.401 0-17.567 14.155-31.828 31.682-31.998h0.016c0.042 0 0.092 0 0.141 0 7.773 0 14.874 2.88 20.294 7.631l-0.035-0.030 192 160c7.057 5.839 11.52 14.598 11.52 24.4s-4.463 18.561-11.467 24.357l-0.053 0.043zM650.8 830c-3.261 1.245-7.032 1.966-10.972 1.966-13.714 0-25.387-8.735-29.759-20.946l-0.069-0.221-256-704c-1.245-3.261-1.966-7.032-1.966-10.972 0-13.714 8.735-25.387 20.946-29.759l0.221-0.069c3.203-1.183 6.903-1.909 10.759-1.999l0.041-0.001c0.048 0 0.104 0 0.16 0 13.726 0 25.409 8.752 29.771 20.98l0.069 0.221 256 704c1.245 3.261 1.966 7.032 1.966 10.972 0 13.714-8.735 25.387-20.946 29.759l-0.221 0.069z" />
<glyph unicode="&#xe903;" glyph-name="email" d="M896 544c-17.673 0-32-14.327-32-32v0-256c0-17.673-14.327-32-32-32v0h-640c-17.673 0-32 14.327-32 32v0 256c0 17.673-14.327 32-32 32s-32-14.327-32-32v0-256c0.024-26.5 10.782-50.483 28.159-67.839l0.001-0.001c17.357-17.378 41.34-28.136 67.835-28.16h640.005c26.5 0.024 50.483 10.782 67.839 28.159l0.001 0.001c17.378 17.357 28.136 41.34 28.16 67.835v256.005c0 17.673-14.327 32-32 32v0zM492.8 358.4c5.281-3.996 11.96-6.4 19.2-6.4s13.919 2.404 19.28 6.458l-0.080-0.058 377.92 283.52c7.769 5.902 12.733 15.146 12.733 25.55 0 5.021-1.156 9.771-3.217 14l0.083-0.19c-5.023 10.245-11.339 19.015-18.88 26.56v0c-17.357 17.378-41.34 28.136-67.835 28.16h-640.005c-26.5-0.024-50.483-10.782-67.839-28.159l-0.001-0.001c-7.541-7.545-13.857-16.315-18.624-25.986l-0.256-0.574c-1.977-4.039-3.133-8.79-3.133-13.81 0-10.404 4.965-19.648 12.654-25.492l0.079-0.058zM192 672h640c1.347 0.223 2.898 0.351 4.48 0.351s3.133-0.127 4.646-0.373l-0.166 0.022-328.96-248-328.96 248c1.347 0.223 2.898 0.351 4.48 0.351s3.133-0.127 4.646-0.373l-0.166 0.022z" />
<glyph unicode="&#xe904;" glyph-name="download" d="M960 256h-267l-90.5-90.5c-24.1-24.1-56.3-37.5-90.5-37.5s-66.32 13.312-90.5 37.5l-90.5 90.5h-267c-35.34 0-64-28.66-64-64v-192c0-35.34 28.66-64 64-64h896c35.34 0 64 28.66 64 64v192c0 35.4-28.6 64-64 64zM864 48c-26.4 0-48 21.6-48 48s21.6 48 48 48 48-21.6 48-48c0-26.4-21.6-48-48-48zM466.8 210.8c12.4-12.6 28.8-18.8 45.2-18.8s32.76 6.25 45.24 18.75l256 256c24.98 25 24.98 65.5 0 90.5-25 25-65.52 25-90.5 0l-146.74-146.85v485.6c0 35.34-28.66 64-64 64-35.4 0-64-28.66-64-64v-485.6l-146.8 146.8c-24.98 25-65.5 25-90.5 0-24.98-25-24.98-65.5 0-90.5l256.1-255.9z" />
<glyph unicode="&#xe905;" glyph-name="hire" horiz-adv-x="1280" d="M0 192.2l128-0.081c35.5 0 64 28.58 64 64.060v447.221h-192v-511.2zM96 319.8c17.5 0 32-14.236 32-31.98 0-17.484-14.5-31.98-32-31.98s-32 14.56-32 31.96c0 17.8 14.5 32 32 32zM697.6 832c-15.882 0-31.32-5.938-43.040-16.656l-196.76-179.944c-0.2-0.4-0.2-0.8-0.6-0.8-33.2-31.2-32.6-81-4.2-112 25.5-26.2 78.76-35.24 112.26-5.5 0.34 0.3 0.54 0.3 0.74 0.5l159.76 146.2c13 11.742 33.5 10.992 45.24-2 12-12.992 11-33.24-2-45.24l-52.24-47.74 291.24-236.22c5.75-4.992 11-9.992 15.75-15.484v388.684c-81.96 81.92-192.96 127.76-308.8 127.76l-17.35-1.56zM669.2 525.2l-60-54.98c-59.5-54.22-150.5-48.98-203.6 8.742-53.6 58.638-49.4 149.638 9 203.238l163.6 149.8h-13.2c-115.6 0-226.8-46.16-308.6-127.8l-0.4-447.8 36.5-0.074 181-163.64c55-44.74 135.5-36.24 180 18.492l36.24-30.48c31.76-24.2 78.76-21 104.76 10.742l62.76 77.2 10.748-8.996c27.5-22 67.76-18.004 90 9.496l19.076 23.56c22.24 27.5 18.072 67.56-9.388 89.86l-298.496 242.64zM1088 703.2v-447.2c0-35.24 28.5-64.1 62.2-64.1l129.8 0.1v511.8l-192-0.6zM1184 256c-17.5 0-32 14.492-32 31.98 0 17.75 14.5 31.98 32 31.98s32-14.36 32-32.16c0-17.4-14.4-31.8-32-31.8z" />
<glyph unicode="&#xe906;" glyph-name="linkedin" d="M347-57.4c0 4.8 0 9.4 0 14 0 215.4 0 430.6 0 646 0 6-0.4 10.8 8.4 10.8 63.6-0.4 127.4-0.2 191-0.2 1.6 0 3.2-0.4 5.8-0.8 0-28 0-55.6 0-83.4 0.8-0.2 1.4-0.6 2.2-0.8 8 10.4 15.6 21.2 24 31.4 24.4 30 55 52 91 65.2 19.6 7.2 41 11.6 61.6 12.6 28.4 1.2 57.4 0.8 85.4-4 46-7.8 86.6-28.2 120.2-61.6 31.8-31.4 52.8-69.2 64.2-111.8 6-22.6 9.8-45.8 13.4-68.8 2.4-16 3.6-32.4 3.6-48.4 0.2-130 0.2-260 0.2-390 0-3.2-0.2-6.4-0.4-10.6-3.8 0-7 0-10.2 0-61.4 0-122.6 0.2-184-0.2-10.2 0-12 3.4-12 12.6 0.2 119.6 0.6 239.4-0.2 359-0.2 21-2.2 42.8-7.6 63-9.8 35.4-32.2 61-67.8 74-30 11-60.4 13-91.2 5.2-34-8.6-57.4-31.2-75-61-13.6-23-16.2-48.4-16.4-73.8-0.8-121.4-0.4-242.6-0.4-364 0-4.6 0-9.2 0-14.2-69-0.2-136.8-0.2-205.8-0.2zM218.2 274.8c0-106.6-0.2-213.2 0.2-319.8 0-9.6-2-13.2-12.6-13-61 0.6-122 0.6-183 0-10 0-12.2 3.4-12.2 12.6 0.2 214.2 0.2 428.6 0 642.8 0 8.6 2.4 11.6 11.2 11.6 61.6-0.4 123.2-0.4 185 0 9.6 0 11.4-3.6 11.4-12.2 0-107.4 0-214.8 0-322zM112.2 950.4c65.8 1.6 105.2-46.2 105.4-104.8 0.2-60-41.8-104.8-107.8-104.6-61.4 0-104.8 44-104.6 106.2 0.2 58.2 42.4 105.2 107 103.2z" />
<glyph unicode="&#xe907;" glyph-name="github" d="M512 896c-247.4 0-448-205.8-448-459.4 0-203 128.4-375 306.4-435.8 2.241-0.509 4.814-0.8 7.455-0.8 0.051 0 0.102 0 0.153 0h-0.008c16.6 0 23 12.2 23 22.8 0 11-0.4 39.8-0.6 78.2-13.536-3.314-29.108-5.275-45.117-5.399l-0.083-0.001c-86.2 0-105.8 67-105.8 67-20.4 53-49.8 67.2-49.8 67.2-39 27.4-0.2 28.2 2.8 28.2h0.2c45-4 68.6-47.6 68.6-47.6 22.4-39.2 52.4-50.2 79.2-50.2 18.667 0.385 36.218 4.769 51.957 12.327l-0.757-0.327c4 29.6 15.6 49.8 28.4 61.4-99.4 11.6-204 51-204 227 0 50.2 17.4 91.2 46 123.2-4.6 11.6-20 58.4 4.4 121.6 2.606 0.65 5.597 1.024 8.676 1.024 0.466 0 0.929-0.009 1.391-0.025l-0.067 0.002c16.2 0 52.8-6.2 113.2-48.2 33.628 9.777 72.257 15.4 112.2 15.4s78.572-5.624 115.139-16.122l-2.939 0.722c60.4 42 97 48.2 113.2 48.2 0.395 0.015 0.859 0.024 1.324 0.024 3.079 0 6.070-0.373 8.931-1.077l-0.256 0.053c24.4-63.2 9-110 4.4-121.6 28.6-32.2 46-73.2 46-123.2 0-176.4-104.8-215.2-204.6-226.6 16-14.2 30.4-42.2 30.4-85 0-61.4-0.6-111-0.6-126 0-10.8 6.2-23 22.8-23 0.051 0 0.11 0 0.17 0 2.772 0 5.476 0.291 8.083 0.845l-0.253-0.045c178.2 60.8 306.4 233 306.4 435.8 0 253.6-200.6 459.4-448 459.4z" />
<glyph unicode="&#xe908;" glyph-name="telegram" d="M940.871 869.155l-907.216-351.653c-36.508-16.375-48.856-49.171-8.825-66.968l232.742-74.345 562.735 349.579c30.725 21.947 62.182 16.094 35.115-8.047l-483.314-439.87-15.183-186.152c14.063-28.743 39.811-28.876 56.234-14.591l133.717 127.178 229.010-172.373c53.189-31.653 82.13-11.226 93.574 46.787l150.211 714.94c15.596 71.412-11.001 102.876-78.799 75.516z" />
<glyph unicode="&#xe909;" glyph-name="instagram-bold" d="M512 874.667c115.925 0 130.389-0.427 175.872-2.56 45.44-2.133 76.373-9.259 103.595-19.84 28.16-10.837 51.883-25.515 75.605-49.195 21.149-20.801 37.882-46.022 48.71-74.172l0.485-1.433c10.539-27.179 17.707-58.155 19.84-103.595 2.005-45.483 2.56-59.947 2.56-175.872s-0.427-130.389-2.56-175.872c-2.133-45.44-9.301-76.373-19.84-103.595-11.279-29.595-28.017-54.822-49.162-75.574l-0.032-0.032c-20.806-21.141-46.025-37.873-74.171-48.709l-1.434-0.486c-27.179-10.539-58.155-17.707-103.595-19.84-45.483-2.005-59.947-2.56-175.872-2.56s-130.389 0.427-175.872 2.56c-45.44 2.133-76.373 9.301-103.595 19.84-29.592 11.289-54.817 28.025-75.575 49.164l-0.030 0.031c-21.154 20.799-37.887 46.020-48.711 74.173l-0.484 1.432c-10.581 27.179-17.707 58.155-19.84 103.595-2.005 45.483-2.56 59.947-2.56 175.872s0.427 130.389 2.56 175.872c2.133 45.483 9.259 76.373 19.84 103.595 11.275 29.597 28.014 54.824 49.162 75.574l0.033 0.032c20.794 21.161 46.017 37.897 74.175 48.712l1.43 0.483c27.221 10.581 58.112 17.707 103.595 19.84 45.483 2.005 59.947 2.56 175.872 2.56zM512 661.333c-117.821 0-213.333-95.513-213.333-213.333s95.513-213.333 213.333-213.333v0c117.821 0 213.333 95.513 213.333 213.333s-95.513 213.333-213.333 213.333v0zM789.333 672c0 29.455-23.878 53.333-53.333 53.333s-53.333-23.878-53.333-53.333v0c0-29.455 23.878-53.333 53.333-53.333s53.333 23.878 53.333 53.333v0zM512 576c70.692 0 128-57.308 128-128s-57.308-128-128-128v0c-70.692 0-128 57.308-128 128s57.308 128 128 128v0z" />
<glyph unicode="&#xe90a;" glyph-name="facebook-bold" d="M1024 444.89c0 282.77-229.23 512-512 512s-512-229.23-512-512c0-255.554 187.232-467.37 432-505.78v357.78h-130v148h130v112.8c0 128.32 76.438 199.2 193.39 199.2 56.018 0 114.61-10 114.61-10v-126h-64.562c-63.602 0-83.438-39.466-83.438-79.956v-96.044h142l-22.7-148h-119.3v-357.78c244.77 38.41 432 250.226 432 505.78z" />
<glyph unicode="&#xe90b;" glyph-name="calendar" d="M157.568 838.619h42.585v54.74c0 13.824 11.224 25.048 25.048 25.048h85.17c13.824 0 25.036-11.224 25.036-25.048v-54.74h353.186v54.74c0 13.824 11.212 25.048 25.048 25.048h85.158c13.824 0 25.048-11.224 25.048-25.048v-54.74h42.585c80.876 0 146.961-66.085 146.961-146.973 0-189.026 0-378.052 0-567.079 0-80.889-66.085-146.973-146.961-146.973h-708.864c-80.876 0-146.961 66.085-146.961 146.973 0 189.026 0 378.052 0 567.079 0 80.889 66.085 146.973 146.961 146.973zM138.169 297.229h102.695v-102.695h-102.695v102.695zM783.136 297.229h102.707v-102.695h-102.707v102.695zM568.143 297.229h102.695v-102.695h-102.695v102.695zM353.162 297.229h102.695v-102.695h-102.695v102.695zM138.169 455.027h102.695v-102.695h-102.695v102.695zM783.136 455.027h102.707v-102.695h-102.707v102.695zM568.143 455.027h102.695v-102.695h-102.695v102.695zM353.162 455.027h102.695v-102.695h-102.695v102.695zM250.249 813.571v-55.478h35.074v110.218h-35.074v-54.74zM738.689 758.093h35.062v110.218h-35.062v-110.218zM60.703 567.736h902.595v42.162h-902.595v-42.162zM963.297 517.641h-902.595v-393.074c0-53.228 43.637-96.878 96.866-96.878h708.864c53.228 0 96.866 43.649 96.866 96.878v393.074zM60.703 659.994h902.595v31.652c0 53.228-43.637 96.878-96.866 96.878h-42.585v-55.478c0-13.824-11.224-25.048-25.048-25.048h-85.158c-13.836 0-25.048 11.224-25.048 25.048v55.478h-353.186v-55.478c0-13.824-11.212-25.048-25.036-25.048h-85.17c-13.824 0-25.048 11.224-25.048 25.048v55.478h-42.585c-53.228 0-96.866-43.649-96.866-96.878v-31.652z" />
<glyph unicode="&#xe90c;" glyph-name="location" d="M512 32c-0.055 0-0.12-0.001-0.185-0.001-8.791 0-16.753 3.545-22.537 9.283l-226.238 223.998c-63.666 63.259-103.072 150.867-103.072 247.68s39.406 184.422 103.054 247.662l0.018 0.018c63.949 63.199 151.896 102.238 248.96 102.238s185.011-39.039 248.994-102.272l-0.034 0.034c63.666-63.259 103.072-150.867 103.072-247.68s-39.406-184.422-103.054-247.662l-0.018-0.018-226.24-224c-5.782-5.736-13.744-9.281-22.535-9.281-0.065 0-0.13 0-0.195 0.001h0.010zM512 800c-0.21 0.001-0.458 0.001-0.707 0.001-79.274 0-151.067-32.029-203.145-83.852l0.012 0.012c-51.974-51.659-84.141-123.193-84.141-202.24s32.168-150.582 84.127-202.226l203.854-202.574 203.84 202.56c51.974 51.659 84.141 123.193 84.141 202.24s-32.168 150.582-84.127 202.226l-0.014 0.014c-52.066 51.812-123.859 83.841-203.133 83.841-0.248 0-0.497 0-0.745-0.001h0.038zM285.76 738.88v0zM512 352c-88.366 0-160 71.634-160 160s71.634 160 160 160c88.366 0 160-71.634 160-160v0c0-88.366-71.634-160-160-160v0zM512 608c-53.019 0-96-42.981-96-96s42.981-96 96-96c53.019 0 96 42.981 96 96v0c0 53.019-42.981 96-96 96v0z" />
<glyph unicode="&#xe90d;" glyph-name="link" d="M394.667 661.333c17.673 0 32-14.327 32-32 0-16.067-11.84-29.367-27.271-31.653l-4.729-0.347h-96c-82.475 0-149.333-66.859-149.333-149.333 0-79.531 62.168-144.538 140.559-149.082l8.774-0.252h96c17.673 0 32-14.327 32-32 0-16.068-11.84-29.367-27.271-31.654l-4.729-0.346h-96c-117.821 0-213.333 95.514-213.333 213.333 0 114.25 89.812 207.524 202.686 213.072l10.647 0.261h96zM725.333 661.333c117.82 0 213.333-95.513 213.333-213.333 0-114.249-89.813-207.522-202.688-213.073l-10.645-0.26h-96c-17.673 0-32 14.327-32 32 0 16.068 11.84 29.367 27.273 31.654l4.727 0.346h96c82.475 0 149.333 66.859 149.333 149.333 0 79.531-62.17 144.538-140.557 149.080l-8.777 0.253h-96c-17.673 0-32 14.327-32 32 0 16.067 11.84 29.367 27.273 31.653l4.727 0.347h96zM298.667 480h426.667c17.673 0 32-14.327 32-32 0-16.201-12.041-29.589-27.657-31.71l-4.343-0.29h-426.667c-17.673 0-32 14.327-32 32 0 16.201 12.038 29.589 27.658 31.71l4.342 0.29z" />
<glyph unicode="&#xe90e;" glyph-name="html" d="M756.826 960h-366.596l-294.818-294.832v-557.38c0-94.72 77.056-171.79 171.792-171.79h489.622c94.706 0 171.762 77.070 171.762 171.79v680.42c0 94.736-77.056 171.792-171.762 171.792zM864.994 107.79c0-59.754-48.428-108.182-108.168-108.182h-489.622c-59.768 0-108.196 48.428-108.196 108.182v531.028h167.432c49.77 0 90.154 40.356 90.154 90.14v167.434h340.232c59.74 0 108.168-48.428 108.168-108.184v-680.418zM326.328 453.62c-10.194 0-17.734-7.304-17.734-18.964v-46.906c0-0.978-0.502-1.468-1.452-1.468h-53.986c-0.95 0-1.452 0.49-1.452 1.468v46.906c0 11.662-7.542 18.964-17.736 18.964-10.444 0-17.986-7.304-17.986-18.964v-130.288c0-11.66 7.29-18.95 17.736-18.95 10.222 0 17.986 7.29 17.986 18.95v48.61c0 0.978 0.502 1.468 1.452 1.468h53.986c0.95 0 1.452-0.488 1.452-1.468v-48.61c0-11.66 7.54-18.95 17.734-18.95 10.446 0 17.986 7.29 17.986 18.95v130.288c0 11.662-7.54 18.964-17.986 18.964zM470.498 452.154h-94.568c-10.92 0-17.986-6.564-17.986-16.046 0-9.23 7.066-15.794 17.986-15.794h27.956c0.976 0 1.452-0.488 1.452-1.452v-114.494c0-11.422 7.542-18.95 17.764-18.95 10.446 0 17.986 7.528 17.986 18.95v114.494c0 0.964 0.474 1.452 1.452 1.452h27.956c10.92 0 17.986 6.564 17.986 15.794 0.002 9.484-7.064 16.046-17.984 16.046zM636.506 453.62c-10.696 0-16.534-5.838-21.868-18.476l-34.52-79.724h-0.978l-35.246 79.724c-5.588 12.638-11.424 18.476-22.12 18.476-11.896 0-19.69-8.268-19.69-21.394v-129.562c0-10.934 6.816-17.246 16.536-17.246 9.244 0 16.058 6.312 16.058 17.246v79.736h1.2l25.78-59.306c5.082-11.674 9.216-15.082 17.484-15.082 8.266 0 12.4 3.408 17.512 15.082l25.528 59.306h1.202v-79.736c0-10.934 6.562-17.246 16.282-17.246 9.748 0 16.312 6.312 16.312 17.246v129.562c-0.004 13.128-7.546 21.394-19.472 21.394zM778.72 318.71h-58.816c-0.978 0-1.452 0.488-1.452 1.468v114.48c0 11.424-7.54 18.964-17.734 18.964-10.474 0-17.986-7.54-17.986-18.964v-129.798c0-10.698 7.036-17.986 17.986-17.986h78.004c10.95 0 17.988 6.564 17.988 16.044-0.002 9.23-7.040 15.792-17.99 15.792z" />
<glyph unicode="&#xe90f;" glyph-name="css" d="M756.826 960h-366.596l-294.818-294.832v-557.38c0-94.72 77.056-171.79 171.792-171.79h489.622c94.706 0 171.762 77.070 171.762 171.79v680.42c0 94.736-77.056 171.792-171.762 171.792zM864.994 107.79c0-59.754-48.428-108.182-108.168-108.182h-489.622c-59.768 0-108.196 48.428-108.196 108.182v531.028h167.432c49.77 0 90.154 40.356 90.154 90.14v167.434h340.232c59.74 0 108.168-48.428 108.168-108.184v-680.418zM339.148 422.102c11.674 0 18.208-4.342 24.998-13.572 5.418-7.61 10.864-10.334 17.65-10.334 10.056 0 18.21 7.346 18.21 17.93 0 4.342-1.368 8.156-3.548 11.954-9.244 16.576-29.604 29.338-57.31 29.338-32.342 0-56.248-15.206-66.024-45.37-3.798-12.22-5.14-21.73-5.14-49.978 0-28.25 1.34-37.762 5.14-49.98 9.776-30.162 33.682-45.37 66.024-45.37 27.706 0 48.066 12.764 57.31 29.34 2.18 3.798 3.548 7.61 3.548 11.952 0 10.6-8.156 17.93-18.21 17.93-6.786 0-12.232-2.722-17.65-10.32-6.788-9.244-13.324-13.588-24.998-13.588-14.942 0-23.628 7.876-27.706 20.374-2.178 6.786-2.988 13.308-2.988 39.66 0 26.35 0.812 32.872 2.988 39.658 4.078 12.5 12.764 20.376 27.706 20.376zM510.298 380.81l-9.776 1.368c-21.45 2.988-28.796 10.040-28.796 20.374 0 11.674 8.686 19.83 24.996 19.83 11.396 0 22.818-3.268 31.784-7.61 3.798-1.9 7.876-2.988 11.674-2.988 9.776 0 17.4 7.332 17.4 17.386 0 6.522-2.988 11.954-9.524 16.032-10.864 6.788-31.224 12.22-51.612 12.22-39.94 0-65.466-22.538-65.466-56.5 0-32.608 20.64-50.26 58.4-55.426l9.802-1.354c21.98-2.988 28.516-9.776 28.516-20.64 0-12.778-10.612-21.744-30.164-21.744-13.574 0-24.438 3.534-39.66 11.954-3.268 1.912-7.344 3.268-11.674 3.268-10.332 0-17.93-7.876-17.93-17.664 0-6.508 3.268-12.764 9.496-16.84 12.232-7.598 32.062-15.752 58.148-15.752 48.064 0 72.532 24.716 72.532 58.134 0.002 33.412-19.83 50.52-58.146 55.952zM677.394 380.81l-9.776 1.368c-21.476 2.988-28.796 10.040-28.796 20.374 0 11.674 8.688 19.83 24.968 19.83 11.424 0 22.846-3.268 31.784-7.61 3.826-1.9 7.904-2.988 11.702-2.988 9.774 0 17.372 7.332 17.372 17.386 0 6.522-2.988 11.954-9.496 16.032-10.864 6.788-31.252 12.22-51.612 12.22-39.938 0-65.466-22.538-65.466-56.5 0-32.608 20.64-50.26 58.4-55.426l9.776-1.354c22.008-2.988 28.516-9.776 28.516-20.64 0-12.778-10.584-21.744-30.136-21.744-13.6 0-24.464 3.534-39.658 11.954-3.268 1.912-7.346 3.268-11.702 3.268-10.306 0-17.93-7.876-17.93-17.664 0-6.508 3.268-12.764 9.524-16.84 12.234-7.598 32.064-15.752 58.12-15.752 48.094 0 72.532 24.716 72.532 58.134 0 33.412-19.83 50.52-58.122 55.952z" />
<glyph unicode="&#xe910;" glyph-name="js" d="M896 672v-608c0-70.692-57.308-128-128-128v0h-256v64h256c35.346 0 64 28.654 64 64v0 608h-128c-53.019 0-96 42.981-96 96v0 128h-352c-35.346 0-64-28.654-64-64v0-576h-64v576c0 70.692 57.308 128 128 128v0h352l288-288zM203.904-18.56c-4.054 8.4-6.623 18.213-7.098 28.571l-0.006 0.165h48.96c1.89-10.36 7.874-19.050 16.179-24.489l0.141-0.087c4.48-3.136 9.792-5.568 15.936-7.296 6.080-1.792 12.928-2.624 20.416-2.624 10.496 0 19.328 1.472 26.432 4.48 6.679 2.542 12.22 6.806 16.251 12.255l0.069 0.097c3.411 5.056 5.445 11.287 5.445 17.992 0 0.2-0.002 0.399-0.005 0.598v-0.030c0.016 0.334 0.025 0.724 0.025 1.117 0 8.036-3.827 15.177-9.757 19.703l-0.060 0.044c-6.464 5.12-16.32 9.216-29.568 12.352l-39.616 9.152c-13.036 2.812-24.577 7.55-34.97 13.968l0.474-0.272c-9.405 5.847-17.003 13.772-22.298 23.167l-0.166 0.321c-4.971 9.241-7.892 20.221-7.892 31.884 0 0.581 0.007 1.16 0.022 1.738l-0.002-0.086c0 15.616 4.032 29.248 12.16 40.896 8.128 11.584 19.392 20.608 33.792 27.008 14.336 6.4 30.912 9.536 49.664 9.536 19.52 0 36.096-3.2 49.92-9.728s24.512-15.296 32-26.24c7.68-10.88 11.904-22.976 12.8-36.224h-48c-1.175 6.364-3.882 11.957-7.727 16.57l0.047-0.058c-4.179 5.032-9.486 8.983-15.543 11.487l-0.265 0.097c-6.593 2.762-14.254 4.367-22.29 4.367-0.466 0-0.931-0.005-1.395-0.016l0.069 0.001c-13.888 0-24.832-3.2-32.832-9.728-7.196-5.577-11.783-14.222-11.783-23.938 0-0.224 0.002-0.448 0.007-0.671l-0.001 0.033c0-7.744 3.072-14.080 9.152-19.2 7.289-5.447 16.033-9.377 25.537-11.141l0.383-0.059 39.68-9.152c13.952-3.2 25.984-7.68 36.224-13.504 10.24-5.76 18.24-13.44 24-22.912s8.64-21.44 8.64-35.84c0-15.808-4.032-29.824-12.032-41.984-8.527-12.417-20.247-22.078-33.986-27.904l-0.51-0.192c-14.976-6.72-33.28-10.112-54.912-10.112-16.256 0-30.464 1.92-42.56 5.76-11.75 3.588-21.945 9.106-30.759 16.259l0.167-0.131c-7.704 6.534-13.954 14.524-18.371 23.572l-0.189 0.428zM5.248-16.448c-3.324 8.713-5.25 18.789-5.25 29.316 0 0.179 0.001 0.357 0.002 0.536v-0.027h48.96c0.123-6.364 1.841-12.301 4.767-17.463l-0.095 0.183c5.649-9.507 15.866-15.78 27.548-15.78 0.53 0 1.058 0.013 1.582 0.039l-0.074-0.003c12.16 0 21.12 3.52 27.008 10.496 5.888 7.040 8.832 16.96 8.832 29.824v175.68h50.56v-174.4c0-28.16-7.616-49.536-22.848-64.32-15.104-14.72-36.096-22.080-62.976-22.080-0.564-0.011-1.23-0.018-1.897-0.018-12.382 0-24.248 2.212-35.224 6.261l0.705-0.228c-10.184 3.954-18.867 9.738-26.039 17.015l-0.009 0.009c-6.625 6.958-11.907 15.265-15.385 24.458l-0.167 0.502z" />
<glyph unicode="&#xe911;" glyph-name="vue" d="M512 671.94l-110.98 192.22h-158.86l269.84-467.38 269.84 467.38h-158.86l-110.98-192.22zM818.8 864.16l-306.8-531.38-306.8 531.38h-173.72l480.52-832.32 480.52 832.32h-173.72z" />
<glyph unicode="&#xe912;" glyph-name="react" d="M821.32 598.56q-15.34 5.24-30.9 9.76 2.58 10.5 4.76 21.12c23.4 113.8 8.1 205.48-44.12 235.66-50 28.96-132-1.22-214.72-73.38q-12.2-10.68-23.9-22-7.8 7.52-16 14.72c-86.7 77.16-173.6 109.66-225.76 79.38-50-29.020-64.86-115.2-43.8-223.060q3.16-16 7.1-31.86c-16.513-4.614-28.347-8.438-40.026-12.591l4.486 1.391c-101.52-35.5-166.44-91.16-166.44-148.88 0-59.64 69.68-119.44 175.54-155.7q12.88-4.38 26-8.14-4.26-16.98-7.54-34.34c-20-106-4.4-190.14 45.5-218.98 51.54-29.78 138 0.82 222.28 74.62q10 8.76 20 18.5 12.64-12.22 26-23.72c81.6-70.36 162.18-98.78 212-69.86 51.5 29.88 68.24 120.28 46.5 230.26q-2.5 12.6-5.76 25.72 9.12 2.7 17.86 5.58c110 36.54 181.66 95.62 181.66 156-0.040 58-67.040 114.020-170.72 149.8zM563.32 760.72c70.86 61.82 137.1 86.22 167.3 68.78 32.14-18.58 44.64-93.5 24.44-191.76q-2-9.6-4.32-19.14c-36.087 8.68-79.85 15.857-124.487 20.028l-3.873 0.292c-26.45 37.882-53.093 70.987-81.77 102.195l0.63-0.695q10.76 10.44 22.040 20.3zM315.46 399.5q13.020-25.2 27.22-49.78 14.46-25.080 30.14-49.42c-34.562 3.791-64.691 8.809-94.255 15.329l5.775-1.069c8.48 27.44 18.92 55.94 31.12 84.94zM315.46 496.16c-12 28.38-22.16 56.3-30.5 83.26 27.4 6.14 56.6 11.16 87.040 14.96q-15.3-23.88-29.44-48.46t-27.16-49.76zM337.26 447.82q18.96 39.54 40.84 77.56 21.86 38 46.54 74.26c28.56 2.16 57.84 3.3 87.42 3.3s59.040-1.14 87.58-3.32q24.42-36.18 46.26-74t41.38-77.2q-19.28-39.68-41.28-77.88-21.82-38-46-74.48c-28.5-2-58-3.1-88-3.1s-58.94 0.94-86.92 2.76q-24.86 36.38-46.92 74.58t-40.96 77.52zM681.5 350q14.5 25.16 27.84 50.98c10.037-21.72 20.963-49.743 30.456-78.418l1.784-6.222c-24.007-5.771-54.462-11.144-85.419-14.89l-4.161-0.41q15.24 24.18 29.5 48.96zM708.94 496.14q-13.28 25.3-27.62 50-14 24.36-29.18 48.12c30.62-3.88 60-9.040 87.54-15.34-10.799-34.271-21.229-61.7-32.95-88.434l2.21 5.654zM512.46 711.040c18.963-20.66 37.475-42.933 54.87-66.093l1.63-2.267q-56.7 2.7-113.48 0c18.66 24.68 37.76 47.58 56.98 68.36zM291.32 828.28c32.12 18.64 103.14-8 178-74.54 4.78-4.26 9.6-8.72 14.4-13.34-28.216-30.541-55.040-63.617-79.664-98.363l-2.056-3.057c-48.489-4.435-92.183-11.5-134.834-21.298l6.714 1.298q-3.66 14.72-6.6 29.64c-18.1 92.46-6.12 162.16 24.040 179.66zM244.5 324.58q-12 3.42-23.7 7.42c-46.8 16-85.46 36.88-112 59.62-23.76 20.38-35.8 40.72-35.8 57.2 0 35.020 52.12 79.7 139.040 110q16.38 5.7 33.040 10.42c15.14-48.42 31.016-88.661 49.352-127.514l-2.552 6.014c-15.96-33.26-32.033-74.053-45.421-116.044l-1.959-7.116zM466.76 137.24c-37.26-32.64-74.58-55.78-107.48-67.44-29.56-10.46-53.1-10.76-67.32-2.54-30.28 17.5-42.88 85.080-25.7 175.72q3.060 16 7 32c36.738-8.364 80.954-15.022 126.044-18.569l3.336-0.211c26.941-38.003 53.985-71.267 83.012-102.671l-0.612 0.671c-5.96-5.86-12.060-11.5-18.28-16.96zM513.6 183.68c-19.44 21.020-38.84 44.28-57.76 69.28q27.58-1.080 56.16-1.080c19.56 0 38.92 0.42 58 1.28-19.045-25.954-37.534-48.593-57.087-70.253l0.687 0.773zM762.64 126.5c-5.72-30.88-17.22-51.48-31.44-59.72-30.26-17.56-94.96 5.26-164.72 65.44-8 6.88-16 14.26-24.14 22 27.724 30.674 54.157 64.074 78.339 99.146l2.121 3.254c48.862 4.209 93.218 11.318 136.449 21.362l-6.449-1.262q2.94-11.88 5.2-23.28c9.62-48.6 11-92.56 4.64-126.94zM797.44 331.78c-5.24-1.74-10.64-3.42-16.12-5.060-15.675 48.403-32.143 88.729-51.141 127.591l2.521-5.711c15.81 32.559 31.653 72.333 44.827 113.304l1.893 6.816c9.82-2.86 19.36-5.86 28.54-9.040 88.84-30.64 143.040-76 143.040-110.86 0-37.2-58.54-85.48-153.56-117.040zM512 362.9c0.083 0 0.182 0 0.28 0 47.496 0 86 38.504 86 86s-38.504 86-86 86c-47.496 0-86-38.503-86-86v0c0-0.053 0-0.117 0-0.18 0-47.362 38.366-85.763 85.715-85.82h0.005z" />
<glyph unicode="&#xe913;" glyph-name="nodejs" d="M517.931-64c-0.043 0-0.085 0-0.128 0-14.464 0-27.989 3.883-39.595 10.709l0.384-0.213-125.312 74.112c-18.688 10.496-9.557 14.165-3.413 16.341 21.589 6.784 40.363 15.573 57.685 26.368l-1.024-0.597c1.195 0.555 2.56 0.853 4.011 0.853 1.963 0 3.797-0.597 5.333-1.621l-0.043 0.043 96.256-57.131c1.664-0.896 3.669-1.451 5.803-1.451s4.139 0.555 5.888 1.493l-0.085-0.043 375.211 216.619c3.456 2.133 5.717 5.888 5.717 10.155 0 0.043 0 0.043 0 0.085v432.939c-0.043 4.309-2.347 8.107-5.803 10.197l-0.043 0.043-375.083 216.405c-1.664 0.939-3.669 1.493-5.76 1.493s-4.096-0.555-5.845-1.536l0.043 0.043-374.997-216.448c-3.541-2.091-5.888-5.888-5.931-10.24v-433.024c0-4.309 2.347-8.021 5.845-9.984l0.043-0.043 102.827-59.392c55.765-27.904 89.899 4.949 89.899 37.931v427.605c0 5.973 4.864 10.837 10.837 10.837h47.744c5.973 0 10.837-4.821 10.837-10.837v-427.605c0-74.453-40.533-117.163-111.104-117.163-0.853 0-1.835-0.043-2.816-0.043-30.933 0-59.819 8.747-84.309 23.893l-97.707 56.235c-23.723 13.995-39.339 39.381-39.339 68.48v433.109c0.043 29.013 15.701 54.315 38.997 68.053l0.384 0.213 375.253 216.832c11.392 6.357 24.96 10.069 39.424 10.069s28.075-3.755 39.851-10.283l-0.427 0.213 375.211-216.832c23.68-13.952 39.296-39.253 39.381-68.267v-433.067c-0.043-29.056-15.701-54.443-39.040-68.267l-0.384-0.213-375.125-216.661c-11.264-6.613-24.832-10.496-39.339-10.496-0.085 0-0.213 0-0.299 0zM633.856 234.283c-164.181 0-198.613 75.349-198.613 138.624v0.043c0 5.973 4.821 10.795 10.795 10.795h48.64c5.419 0 9.899-3.968 10.752-9.131v-0.043c7.296-49.408 29.141-74.325 128.427-74.325 79.061 0 112.64 17.877 112.64 59.819 0 24.192-9.515 42.112-132.352 54.144-102.656 10.24-166.144 32.853-166.144 114.987 0 75.691 63.829 120.875 170.667 120.875 120.235 0 179.712-41.728 187.221-131.243 0.043-0.299 0.043-0.64 0.043-0.939 0-6.016-4.864-10.837-10.837-10.837h-48.341c-5.12 0-9.429 3.627-10.496 8.448v0.085c-11.691 51.968-40.107 68.565-117.163 68.565-86.315 0-96.341-30.080-96.341-52.565 0-27.307 11.861-35.243 128.384-50.645 115.285-15.275 170.069-36.821 170.069-117.845-0.171-81.877-68.309-128.725-187.221-128.725z" />
<glyph unicode="&#xe914;" glyph-name="figma" horiz-adv-x="768" d="M28 768.415c0 105.809 85.776 191.585 191.586 191.585h328.736c105.81 0 191.586-85.775 191.586-191.585 0-66.999-34.392-125.967-86.486-160.209 52.094-34.244 86.486-93.21 86.486-160.21 0-105.81-85.776-191.586-191.586-191.586h-4.16c-49.604 0-94.806 18.852-128.83 49.782v-176.526c0-107.22-88.018-193.666-194.714-193.666-105.546 0-192.618 85.514-192.618 191.586 0 66.996 34.389 125.96 86.478 160.204-52.089 34.244-86.478 93.21-86.478 160.206 0 67 34.392 125.966 86.485 160.21-52.093 34.242-86.485 93.21-86.485 160.209zM352.576 576.826h-132.99c-71.152 0-128.83-57.68-128.83-128.83 0-70.876 57.234-128.384 128.006-128.828 0.274 0.002 0.548 0.002 0.824 0.002h132.99v257.656zM415.332 447.996c0-71.15 57.678-128.83 128.83-128.83h4.16c71.152 0 128.83 57.68 128.83 128.83s-57.678 128.83-128.83 128.83h-4.16c-71.152 0-128.83-57.68-128.83-128.83zM219.586 256.41c-0.276 0-0.55 0.002-0.824 0.002-70.772-0.442-128.006-57.95-128.006-128.826 0-70.89 58.449-128.83 129.862-128.83 72.564 0 131.958 58.872 131.958 130.91v126.744h-132.99zM219.586 897.244c-71.152 0-128.83-57.679-128.83-128.829s57.679-128.829 128.83-128.829h132.99v257.658h-132.99zM415.332 639.586h132.99c71.152 0 128.83 57.678 128.83 128.829s-57.678 128.829-128.83 128.829h-132.99v-257.658z" />
<glyph unicode="&#xe915;" glyph-name="mail-error" d="M896-64h-768c-70.692 0-128 57.308-128 128v0 512c0 70.692 57.308 128 128 128v0h64c17.673 0 32-14.327 32-32s-14.327-32-32-32v0h-64c-35.346 0-64-28.654-64-64v0-512c0-35.346 28.654-64 64-64v0h768c35.346 0 64 28.654 64 64v0 512c0 35.346-28.654 64-64 64v0h-64c-17.673 0-32 14.327-32 32s14.327 32 32 32v0h64c70.692 0 128-57.308 128-128v0-512c0-70.692-57.308-128-128-128v0zM512 256c-7.496 0.002-14.39 2.581-19.843 6.899l0.067-0.051-448 352c-7.717 5.904-12.645 15.118-12.645 25.483 0 17.673 14.327 32 32 32 7.685 0 14.737-2.709 20.254-7.224l-0.057 0.045 428.224-336.448 428.224 336.448c5.46 4.47 12.512 7.179 20.197 7.179 17.673 0 32-14.327 32-32 0-10.365-4.928-19.579-12.568-25.427l-0.077-0.056-448-352c-5.387-4.267-12.28-6.846-19.776-6.848v0zM64-32c-17.67 0.004-31.993 14.329-31.993 32 0 8.835 3.58 16.833 9.369 22.624l352 352c5.749 5.558 13.59 8.983 22.231 8.983 17.673 0 32-14.327 32-32 0-8.641-3.425-16.482-8.991-22.24l-351.991-351.991c-5.79-5.791-13.788-9.374-22.624-9.376v0zM960-32c-8.836 0.002-16.834 3.585-22.624 9.376l-352 352c-5.558 5.749-8.983 13.59-8.983 22.231 0 17.673 14.327 32 32 32 8.641 0 16.482-3.425 22.24-8.991l351.991-351.991c5.789-5.791 9.369-13.789 9.369-22.624 0-17.671-14.323-31.996-31.993-32v0zM832 512c-17.673 0-32 14.327-32 32v0 352h-576v-352c0-17.673-14.327-32-32-32s-32 14.327-32 32v0 352c0 35.346 28.654 64 64 64v0h576c35.346 0 64-28.654 64-64v0-352c0-17.673-14.327-32-32-32v0zM608 544c-8.836 0.002-16.834 3.585-22.624 9.376l-192 192c-5.558 5.749-8.983 13.59-8.983 22.231 0 17.673 14.327 32 32 32 8.641 0 16.482-3.425 22.24-8.991l191.991-191.991c5.789-5.791 9.369-13.789 9.369-22.624 0-17.671-14.323-31.996-31.993-32v0zM416 544c-17.67 0.004-31.993 14.329-31.993 32 0 8.835 3.58 16.833 9.369 22.624l192 192c5.827 6.027 13.985 9.769 23.017 9.769 17.673 0 32-14.327 32-32 0-9.032-3.742-17.19-9.76-23.009l-192.009-192.009c-5.79-5.791-13.788-9.374-22.624-9.376v0z" />
<glyph unicode="&#xe916;" glyph-name="email-bold" d="M512 256c-33.060 0-66.12 10.844-94.32 32.82l-417.68 324.78v-453.6c0-53 42.98-96 96-96h832c53.020 0 96 42.98 96 96v453.6l-417.6-325c-28.2-21.8-61.4-32.6-94.4-32.6zM32.58 669.4l424.4-330.2c32.38-25.2 77.74-25.2 110.12 0l424.4 330.2c18.7 16 32.5 40.6 32.5 66.6 0 53.020-43 96-96 96h-832c-53.020 0-96-42.98-96-96 0-26 12.020-50.6 32.58-66.6z" />
<glyph unicode="&#xe917;" glyph-name="location-bold" d="M512 874.667c-164.907 0-298.667-133.76-298.667-298.667 0-224 298.667-554.667 298.667-554.667s298.667 330.667 298.667 554.667c0 164.907-133.76 298.667-298.667 298.667zM512 469.333c-58.88 0-106.667 47.787-106.667 106.667s47.787 106.667 106.667 106.667 106.667-47.787 106.667-106.667-47.787-106.667-106.667-106.667z" />
<glyph unicode="&#xe918;" glyph-name="telegram-bold" horiz-adv-x="896" d="M893.4 762.8l-135.2-637.6c-10.2-45-36.8-56.2-74.6-35l-206 151.8-99.4-95.6c-11-11-20.2-20.2-41.4-20.2l14.8 209.8 381.8 345c16.6 14.8-3.6 23-25.8 8.2l-472-297.2-203.2 63.6c-44.2 13.8-45 44.2 9.2 65.4l794.8 306.2c36.8 13.8 69-8.2 57-64.4z" />
<glyph unicode="&#xe919;" glyph-name="phone-bold" d="M914.286 251.429q0-15.429-5.714-40.286t-12-39.143q-12-28.571-69.714-60.571-53.714-29.143-106.286-29.143-15.429 0-30 2t-32.857 7.143-27.143 8.286-31.714 11.714-28 10.286q-56 20-100 47.429-73.143 45.143-151.143 123.143t-123.143 151.143q-27.429 44-47.429 100-1.714 5.143-10.286 28t-11.714 31.714-8.286 27.143-7.143 32.857-2 30q0 52.571 29.143 106.286 32 57.714 60.571 69.714 14.286 6.286 39.143 12t40.286 5.714q8 0 12-1.714 10.286-3.429 30.286-43.429 6.286-10.857 17.143-30.857t20-36.286 17.714-30.571q1.714-2.286 10-14.286t12.286-20.286 4-16.286q0-11.429-16.286-28.571t-35.429-31.429-35.429-30.286-16.286-26.286q0-5.143 2.857-12.857t4.857-11.714 8-13.714 6.571-10.857q43.429-78.286 99.429-134.286t134.286-99.429q1.143-0.571 10.857-6.571t13.714-8 11.714-4.857 12.857-2.857q10.286 0 26.286 16.286t30.286 35.429 31.429 35.429 28.571 16.286q8 0 16.286-4t20.286-12.286 14.286-10q14.286-8.571 30.571-17.714t36.286-20 30.857-17.143q40-20 43.429-30.286 1.714-4 1.714-12z" />
<glyph unicode="&#xe91a;" glyph-name="call-outline" d="M832 32h-5.44c-628.8 36.16-718.080 566.72-730.56 728.64-0.194 2.289-0.305 4.953-0.305 7.644 0 50.424 38.875 91.768 88.289 95.695l0.336 0.021h176.32c0.018 0 0.040 0 0.062 0 26.818 0 49.783-16.495 59.304-39.892l0.154-0.428 48.64-119.68c2.929-7.074 4.63-15.288 4.63-23.9 0-17.656-7.149-33.642-18.711-45.221l0.001 0.001-68.16-68.8c22.412-124.038 118.619-220.462 240.718-242.919l1.842-0.281 69.44 68.8c11.516 11.212 27.264 18.126 44.627 18.126 8.959 0 17.488-1.841 25.23-5.165l-0.416 0.159 120.64-48.32c23.312-9.908 39.362-32.614 39.362-59.067 0-0.159-0.001-0.318-0.002-0.477v0.024-168.96c0-53.019-42.981-96-96-96v0zM192 800c-17.673 0-32-14.327-32-32v0-2.56c14.72-189.44 109.12-637.44 670.080-669.44 0.59-0.039 1.28-0.061 1.974-0.061 17.019 0 30.935 13.286 31.942 30.052l0.004 0.089v170.88l-120.64 48.32-91.84-91.2-15.36 1.92c-278.4 34.88-316.16 313.28-316.16 316.16l-1.92 15.36 90.88 91.84-48 120.64z" />
<glyph unicode="&#xe91b;" glyph-name="codepen" d="M482.48 352.12c-30.64 20.72-61.48 41.14-92.12 61.86-4 2.76-6.86 2.96-11 0l-77.76-52.24c62.4-41.54 186.4-124.38 186.4-124.38v107.58c0 2.44-3.1 5.56-5.52 7.18zM390.18 478.66q46.38 30.48 92.22 61.72c3.176 2.566 5.28 6.349 5.597 10.63l0.003 0.050v103.4s-124-82.24-186.52-123.88c27.4-18.32 53.34-35.82 79.56-52.88 2.040-1.32 6.8-0.56 9.14 0.96zM539.68 541.3q47.42-32.14 95.26-63.64c1.116-0.567 2.434-0.9 3.83-0.9s2.714 0.332 3.879 0.922l-0.049-0.023 79.52 52.94-186.12 124.44v-106.7c0.16-2.865 1.556-5.375 3.659-7.024l0.021-0.016zM516.22 499.26c-1.292 0.608-2.806 0.964-4.403 0.964-1.863 0-3.612-0.483-5.131-1.331l0.053 0.027c-9.64-6-18.94-12.4-28.34-18.7-16.5-11.060-50.7-34-50.7-34l77.68-51.72c1.836-1.139 4.063-1.815 6.447-1.815 2.232 0 4.326 0.592 6.133 1.627l-0.060-0.032 78 52s-68.14 45.32-79.68 52.98zM282 485.76v-79.22l59.24 39.68-59.24 39.54zM512 896c-247.42 0-448-200.58-448-448s200.58-448 448-448 448 200.58 448 448-200.58 448-448 448zM790 366c0-11.56-5.3-19.72-15.020-26.18q-123.42-82-246.58-164.38c-11.7-7.84-22.34-7.5-34 0.28q-122.34 82-245.26 163.34c-10.22 6.78-15.18 15.12-15.18 27.46v159.48c0 12.28 5.040 20.68 15.24 27.44 81.82 54.26 163.88 108.72 245.46 163.36 11.64 7.78 22.18 8 33.88 0.18q123.080-82.42 246.52-164.38c9.36-6.22 14.9-13.9 14.9-25.32zM632.5 413.54q-45.18-30.68-90.78-60.68c-4.82-3.16-5.78-6.62-5.72-12.38v-102.68l186 124-77.060 51.76c-4.6 3.22-7.78 3.14-12.44-0.020zM740 406.64v79.24l-59.18-39.74 59.18-39.5z" />
<glyph unicode="&#xe91c;" glyph-name="figma-bold" d="M362.667 874.667c-70.692 0-128-57.308-128-128s57.308-128 128-128h298.667c70.694 0 128 57.308 128 128s-57.306 128-128 128h-298.667zM661.333 576c-70.694 0-128-57.306-128-128s57.306-128 128-128c70.694 0 128 57.306 128 128s-57.306 128-128 128zM234.667 448c0 70.694 57.308 128 128 128h128v-256h-128c-70.692 0-128 57.306-128 128zM362.667 277.333c-70.692 0-128-57.306-128-128s57.308-128 128-128c70.694 0 128 57.306 128 128v128h-128z" />
<glyph unicode="&#xe91d;" glyph-name="send" d="M243.2 499.2c-4.267-42.667 12.8-81.067 38.4-110.933l136.533-136.533c25.6-25.6 59.733-42.667 98.133-42.667s72.533 12.8 98.133 42.667l273.067 273.067c25.6 25.6 42.667 59.733 42.667 98.133s-12.8 72.533-42.667 98.133l-136.533 136.533c-29.867 29.867-68.267 42.667-110.933 38.4-34.133-4.267-64-17.067-85.333-38.4l-268.8-273.067c-25.6-21.333-38.4-55.467-42.667-85.333 0 0 0 0 0 0s0 0 0 0 0 0 0 0zM593.067 772.267l-21.333-170.667c-4.267-21.333-17.067-34.133-38.4-38.4l-170.667-21.333 230.4 230.4zM546.133 482.133c59.733 8.533 106.667 51.2 110.933 110.933l25.6 209.067c4.267 0 4.267-4.267 8.533-4.267l136.533-136.533c21.333-21.333 21.333-55.467 0-76.8l-273.067-273.067c-21.333-21.333-55.467-21.333-76.8 0l-132.267 136.533c-4.267 4.267-4.267 8.533-8.533 8.533l209.067 25.6zM128 149.333c12.8 0 21.333 4.267 29.867 12.8l128 128c17.067 17.067 17.067 42.667 0 59.733s-42.667 17.067-59.733 0l-128-128c-17.067-17.067-17.067-42.667 0-59.733 8.533-8.533 17.067-12.8 29.867-12.8zM328.533 119.467l42.667 42.667c17.067 17.067 17.067 42.667 0 59.733s-42.667 17.067-59.733 0l-42.667-42.667c-17.067-17.067-17.067-42.667 0-59.733 8.533-8.533 17.067-12.8 29.867-12.8s21.333 4.267 29.867 12.8z" />
<glyph unicode="&#xe91e;" glyph-name="done" d="M365.335 290.671l-97.636 96.107c-15.627 15.378-15.627 40.356 0 55.698l42.436 41.76c15.556 15.36 40.889 15.36 56.444 0l72.089-70.933 240.036 236.462c15.627 15.378 40.942 15.378 56.533 0l42.382-41.742c15.591-15.378 15.591-40.267 0-55.662l-310.862-306.169c-15.591-15.378-40.907-15.378-56.533 0l-42.347 41.724-2.542 2.756z" />
<glyph unicode="&#xe91f;" glyph-name="photoshop" d="M1008.544 944.098v-992.98h-989.76v992.98h989.76zM968.544 904.098h-909.76v-912.98h909.76v912.98zM169.6 734.84c36.276 6.6 85.45 11.55 151.55 11.55 72.55 0 124.948-15.674 159.608-45.372 32.246-27.224 53.206-70.946 53.206-122.914 0-52.796-16.122-95.692-45.948-125.388-40.306-40.422-101.57-60.224-171.704-60.224-18.54 0-34.662 0.828-48.366 4.128v-208.29h-98.346v546.51zM267.946 476.64c12.898-4.126 28.214-4.952 48.366-4.952 74.164 0 119.306 37.948 119.306 102.292 0 61.868-41.918 94.042-110.438 94.042-27.41 0-46.756-2.476-57.236-4.95v-186.432zM585.122 290.644c21.766-14.022 64.492-29.696 99.958-29.696 43.532 0 62.876 14.836 62.876 41.234 0 27.224-16.124 40.42-64.49 58.57-76.58 26.4-108.018 69.292-108.018 117.138 0 70.946 57.234 125.39 148.326 125.39 43.528 0 81.418-10.724 104.792-23.922l-20.154-70.944c-16.122 9.898-48.366 23.096-83.028 23.096-35.468 0-54.816-18.148-54.816-42.894 0-25.574 18.54-37.122 68.52-56.096 71.744-25.574 103.99-62.694 104.794-122.088 0-73.422-55.626-122.080-159.612-122.080-47.558 0-90.286 11.55-119.302 28.050l20.154 74.242z" />
<glyph unicode="&#xe920;" glyph-name="email-message" d="M1010.88 601.92l-146.88 107.52v90.56c0 17.673-14.327 32-32 32v0h-135.040l-166.080 121.92c-5.22 3.851-11.78 6.163-18.88 6.163s-13.66-2.312-18.968-6.225l0.088 0.062-166.080-121.92h-135.040c-17.673 0-32-14.327-32-32v0-90.56l-146.88-107.52c-7.992-5.888-13.12-15.264-13.12-25.837 0-0.029 0-0.058 0-0.088v0.005-544c0-53.019 42.981-96 96-96v0h832c53.019 0 96 42.981 96 96v0 544c0 0.025 0 0.054 0 0.083 0 10.573-5.128 19.949-13.032 25.775l-0.088 0.062zM864 630.080l70.4-51.52-70.4-41.92zM512 888.32l76.8-56.32h-153.6zM224 768h576v-269.76l-288-172.8-288 172.8zM160 630.080v-93.76l-70.4 42.24zM64 45.12v474.24l296.32-177.92zM109.12 0l306.88 307.84 78.72-47.040c4.59-2.695 10.109-4.287 16-4.287s11.41 1.592 16.151 4.369l-0.151-0.082 81.28 47.040 306.88-307.84zM960 45.12l-296.32 296.32 296.32 177.92zM320 672h384v-64h-384v64zM384 544h256v-64h-256v64z" />
<glyph unicode="&#xe921;" glyph-name="sent" d="M928 832h-832c-53.019 0-96-42.981-96-96v0-128h64v120.64l429.44-306.56c5.156-3.709 11.599-5.932 18.56-5.932s13.404 2.223 18.655 5.998l-0.095-0.065 429.44 306.56v-568.64c0-17.673-14.327-32-32-32v0h-800v-64h800c53.019 0 96 42.981 96 96v0 576c0 53.019-42.981 96-96 96v0zM512 487.36l-392.96 280.64h785.92zM0 128h64v-64h-64v64zM0 288h448v-64h-448v64zM512 288h64v-64h-64v64zM0 448h64v-64h-64v64zM128 448h192v-64h-192v64z" />
<glyph unicode="&#xe922;" glyph-name="ts" d="M222.208 650.752h-193.536v92.16h494.592v-92.16h-194.56v-497.664h-106.496v497.664zM655.36 304.64s64.512-62.464 147.456-62.464c45.056 0 86.016 23.552 86.016 71.68 0 105.472-278.528 87.040-278.528 268.288 0 98.304 84.992 171.008 197.632 171.008 116.736 0 176.128-63.488 176.128-63.488l-46.080-87.040s-56.32 51.2-130.048 51.2c-50.176 0-89.088-28.672-89.088-70.656 0-104.448 277.504-78.848 277.504-267.264 0-94.208-71.68-173.056-194.56-173.056-131.072 0-203.776 80.896-203.776 80.896l57.344 80.896z" />
<glyph unicode="&#xe923;" glyph-name="PHP" d="M512 725.333c-287.084 0-512-121.833-512-277.333s224.916-277.333 512-277.333 512 121.835 512 277.333c0 155.5-224.917 277.333-512 277.333zM458.833 640h55.919l-17.754-85.333h49.92c31.663 0 52.915-4.417 64.998-15.5 11.831-10.915 15.415-28.835 10.667-53.249l-22.165-101.918h-56.836l20.42 94.251c2.496 12.915 1.498 21.918-2.837 26.667-4.331 4.749-13.833 7.083-28.083 7.083h-44.749l-26.999-128h-56l53.5 256zM213.333 554.667h113.75c54.25 0 87.083-36.335 74.25-90.581-14.917-63.002-54.917-80.085-128.417-80.085h-35.166l-11.167-64h-56.5l43.25 234.667zM661.333 554.667h113.749c54.251 0 87.083-36.335 74.249-90.581-14.916-63.002-54.916-80.085-128.414-80.085h-35.166l-11.17-64h-56.499l43.251 234.667zM261.75 512l-16.084-85.333h36.5c31.584 0 60.917 3.584 65.833 50.667 1.833 18.249-5.75 34.667-42.25 34.667h-44zM709.751 512l-16.085-85.333h36.501c31.582 0 60.915 3.584 65.83 50.667 1.835 18.249-5.747 34.667-42.249 34.667h-43.998z" />
</font>
</defs>
</svg>
