<svg width="512" height="512" viewBox="0 0 512 512" fill="none" xmlns="http://www.w3.org/2000/svg">
<g clip-path="url(#clip0_23_2)">
<rect width="512" height="512" rx="91" fill="#F5F5F5"/>
<path d="M52.5203 229V154.1H73.7063V229H52.5203ZM88.7791 229V154.1H106.22L147.522 203.962H139.283V154.1H160.041V229H142.6L101.298 179.138H109.537V229H88.7791ZM201.307 230.498C195.172 230.498 189.252 229.749 183.545 228.251C177.91 226.682 173.309 224.684 169.742 222.259L176.697 206.637C180.05 208.777 183.902 210.56 188.253 211.987C192.676 213.342 197.063 214.02 201.414 214.02C204.339 214.02 206.693 213.77 208.476 213.271C210.259 212.7 211.543 211.987 212.328 211.131C213.184 210.204 213.612 209.134 213.612 207.921C213.612 206.209 212.827 204.854 211.258 203.855C209.689 202.856 207.656 202.036 205.159 201.394C202.662 200.752 199.88 200.11 196.813 199.468C193.817 198.826 190.785 198.006 187.718 197.007C184.722 196.008 181.976 194.724 179.479 193.155C176.982 191.514 174.949 189.41 173.38 186.842C171.811 184.203 171.026 180.886 171.026 176.891C171.026 172.397 172.239 168.331 174.664 164.693C177.161 161.055 180.87 158.13 185.792 155.919C190.714 153.708 196.849 152.602 204.196 152.602C209.118 152.602 213.933 153.173 218.641 154.314C223.42 155.384 227.665 156.989 231.374 159.129L224.847 174.858C221.28 172.932 217.749 171.505 214.254 170.578C210.759 169.579 207.37 169.08 204.089 169.08C201.164 169.08 198.81 169.401 197.027 170.043C195.244 170.614 193.96 171.398 193.175 172.397C192.39 173.396 191.998 174.537 191.998 175.821C191.998 177.462 192.747 178.781 194.245 179.78C195.814 180.707 197.847 181.492 200.344 182.134C202.912 182.705 205.694 183.311 208.69 183.953C211.757 184.595 214.789 185.415 217.785 186.414C220.852 187.341 223.634 188.625 226.131 190.266C228.628 191.835 230.625 193.94 232.123 196.579C233.692 199.147 234.477 202.393 234.477 206.316C234.477 210.667 233.229 214.698 230.732 218.407C228.307 222.045 224.633 224.97 219.711 227.181C214.86 229.392 208.726 230.498 201.307 230.498ZM259.162 229V170.899H236.157V154.1H303.246V170.899H280.348V229H259.162ZM311.138 229V154.1H345.378C352.226 154.1 358.111 155.206 363.033 157.417C368.027 159.628 371.879 162.838 374.589 167.047C377.3 171.184 378.655 176.106 378.655 181.813C378.655 187.448 377.3 192.335 374.589 196.472C371.879 200.538 368.027 203.677 363.033 205.888C358.111 208.028 352.226 209.098 345.378 209.098H322.908L332.324 200.217V229H311.138ZM357.469 229L338.851 201.715H361.428L380.153 229H357.469ZM332.324 202.464L322.908 192.727H344.094C348.517 192.727 351.798 191.764 353.938 189.838C356.15 187.912 357.255 185.237 357.255 181.813C357.255 178.318 356.15 175.607 353.938 173.681C351.798 171.755 348.517 170.792 344.094 170.792H322.908L332.324 161.055V202.464ZM424.905 230.498C413.848 230.498 405.217 227.466 399.011 221.403C392.805 215.34 389.702 206.744 389.702 195.616V154.1H410.888V194.974C410.888 201.394 412.136 205.995 414.633 208.777C417.201 211.559 420.696 212.95 425.119 212.95C429.541 212.95 433.001 211.559 435.498 208.777C437.994 205.995 439.243 201.394 439.243 194.974V154.1H460.108V195.616C460.108 206.744 457.005 215.34 450.799 221.403C444.593 227.466 435.961 230.498 424.905 230.498ZM26.6062 359V284.1H44.0472L75.0772 335.032H65.8752L96.0492 284.1H113.49L113.704 359H94.2302L94.0162 313.739H97.3332L74.7562 351.617H65.3402L42.1212 313.739H46.1872V359H26.6062ZM148.169 313.097H182.944V328.933H148.169V313.097ZM149.667 342.629H188.829V359H128.695V284.1H187.438V300.471H149.667V342.629ZM200.586 359V284.1H218.027L259.329 333.962H251.09V284.1H271.848V359H254.407L213.105 309.138H221.344V359H200.586ZM302.735 359V300.899H279.73V284.1H346.819V300.899H323.921V359H302.735ZM341.962 359L375.025 284.1H395.89L429.06 359H407.018L381.124 294.479H389.47L363.576 359H341.962ZM360.045 344.448L365.502 328.826H402.096L407.553 344.448H360.045ZM435.066 359V284.1H456.252V342.201H491.99V359H435.066Z" fill="#EA373E"/>
</g>
<defs>
<clipPath id="clip0_23_2">
<rect width="512" height="512" fill="white"/>
</clipPath>
</defs>
</svg>
