<svg width="512" height="512" viewBox="0 0 512 512" fill="none" xmlns="http://www.w3.org/2000/svg">
<g clip-path="url(#clip0_23_2)">
<rect width="512" height="512" rx="91" fill="white"/>
<path d="M247.22 400.76C205.513 400.76 170.093 395.24 140.96 384.2C112.133 373.16 90.2067 357.213 75.18 336.36C60.1533 315.2 52.64 289.44 52.64 259.08C52.64 228.72 60.1533 203.113 75.18 182.26C90.2067 161.1 112.133 145 140.96 133.96C170.093 122.92 205.513 117.4 247.22 117.4C247.833 117.4 249.52 117.4 252.28 117.4C255.347 117.4 258.26 117.4 261.02 117.4C264.087 117.4 265.773 117.4 266.08 117.4C307.48 117.4 342.44 122.92 370.96 133.96C399.787 145 421.56 161.1 436.28 182.26C451 203.42 458.36 229.027 458.36 259.08C458.36 288.827 451 314.433 436.28 335.9C421.867 357.06 400.553 373.16 372.34 384.2C344.433 395.24 310.24 400.76 269.76 400.76C268.84 400.76 266.693 400.76 263.32 400.76C259.947 400.76 256.573 400.76 253.2 400.76C250.133 400.76 248.14 400.76 247.22 400.76ZM254.12 343.26C255.04 343.26 256.267 343.26 257.8 343.26C259.333 343.26 260.407 343.26 261.02 343.26C289.233 343.26 312.54 340.193 330.94 334.06C349.647 327.62 363.6 318.267 372.8 306C382 293.427 386.6 277.633 386.6 258.62C386.6 239.607 381.847 223.967 372.34 211.7C362.833 199.433 348.88 190.387 330.48 184.56C312.387 178.427 289.54 175.36 261.94 175.36C261.327 175.36 260.1 175.36 258.26 175.36C256.727 175.36 255.347 175.36 254.12 175.36C224.987 175.36 200.913 178.273 181.9 184.1C162.887 189.927 148.627 199.127 139.12 211.7C129.613 223.967 124.86 239.76 124.86 259.08C124.86 278.4 129.92 294.347 140.04 306.92C150.16 319.187 164.727 328.387 183.74 334.52C203.06 340.347 226.52 343.26 254.12 343.26ZM221.46 435.26V85.2H290V435.26H221.46Z" fill="#EA373E"/>
</g>
<defs>
<clipPath id="clip0_23_2">
<rect width="512" height="512" fill="white"/>
</clipPath>
</defs>
</svg>
