<svg width="200" height="200" viewBox="0 0 200 200" fill="none" xmlns="http://www.w3.org/2000/svg">
<g clip-path="url(#clip0_5_59)">
<rect width="200" height="200" fill="#418F54"/>
<path d="M73.16 119.512V153H40.04V119.88L4.712 48.12H38.384L52.368 82.16C53.84 85.5947 55.1893 89.2133 56.416 93.016H56.784C58.1333 88.8453 59.4827 85.104 60.832 81.792L74.632 48.12H108.12L73.16 119.512ZM190.526 149.504C185.987 151.467 180.713 152.877 174.702 153.736C168.691 154.595 163.11 155.024 157.958 155.024C141.275 155.024 128.211 150.669 118.766 141.96C109.321 133.251 104.598 119.88 104.598 101.848C104.598 83.448 109.566 69.7093 119.502 60.632C129.438 51.432 143.422 46.832 161.454 46.832C170.041 46.832 178.995 47.9973 188.318 50.328C188.318 52.7813 188.073 56.4613 187.582 61.368C187.091 66.152 186.601 69.5253 186.11 71.488H174.518C166.054 71.488 159.369 71.672 154.462 72.04C149.678 72.2853 146.795 72.8373 145.814 73.696C143.974 75.4133 142.563 78.9093 141.582 84.184C140.601 89.336 140.11 94.304 140.11 99.088C140.11 107.429 141.153 113.869 143.238 118.408C145.323 122.824 147.961 125.768 151.15 127.24C154.217 128.712 159.307 129.448 166.422 129.448C172.065 129.448 179.425 128.957 188.502 127.976L190.526 149.504Z" fill="white"/>
</g>
<defs>
<clipPath id="clip0_5_59">
<rect width="200" height="200" rx="30" fill="white"/>
</clipPath>
</defs>
</svg>
