<svg xmlns="http://www.w3.org/2000/svg" version="1.1" xmlns:xlink="http://www.w3.org/1999/xlink" xmlns:svgjs="http://svgjs.dev/svgjs" viewBox="0 0 800 800"><defs><filter id="uuunion-blur" x="-100%" y="-100%" width="400%" height="400%" color-interpolation-filters="sRGB">
        <feGaussianBlur in="SourceGraphic" stdDeviation="0 0" result="blur"></feGaussianBlur>
        <feDropShadow stdDeviation="18.461538461538463" in="blur" dx="15" dy="15" flood-color="hsl(353, 34%, 26%)" flood-opacity="0.69" x="0%" y="0%" width="100%" height="100%"></feDropShadow>
      </filter><filter id="uuunion-blur2" x="-100%" y="-100%" width="400%" height="400%" color-interpolation-filters="sRGB">
        <feGaussianBlur in="SourceGraphic" stdDeviation="0 0" result="blur"></feGaussianBlur>
        <feDropShadow stdDeviation="18.461538461538463" in="blur" dx="-15" dy="-15" flood-color="hsl(353, 34%, 26%)" flood-opacity="0.69" x="0%" y="0%" width="100%" height="100%"></feDropShadow>
      </filter><linearGradient gradientTransform="rotate(257, 0.5, 0.5)" x1="50%" y1="0%" x2="50%" y2="100%" id="uuunion-grad"><stop stop-color="hsl(0, 1%, 14%)" offset="10%"></stop><stop stop-color="hsl(353, 34%, 26%)" offset="90%"></stop></linearGradient><linearGradient gradientTransform="rotate(74, 0.5, 0.5)" x1="50%" y1="0%" x2="50%" y2="100%" id="uuunion-grad2"><stop stop-color="hsl(0, 1%, 14%)" offset="25%"></stop><stop stop-color="hsl(353, 34%, 26%)" offset="100%"></stop></linearGradient><linearGradient gradientTransform="rotate(185, 0.5, 0.5)" x1="50%" y1="0%" x2="50%" y2="100%" id="uuunion-grad3"><stop stop-color="hsl(0, 1%, 14%)" offset="0%"></stop><stop stop-color="hsl(353, 34%, 26%)" offset="75%"></stop></linearGradient></defs><path d="M-79.64 -88.71Q-64.84 -85.84 -50.04 -81.43 -35.24 -76.65 -20.44 -72.74 -5.64 -70.73 9.15 -71.15 23.95 -73.88 38.75 -78.21 53.55 -83 68.35 -87.01 83.15 -89.19 97.96 -88.96 112.76 -86.38 127.56 -82.13 142.36 -77.33 157.16 -73.22 171.96 -70.88 186.76 -70.93 201.56 -73.35 216.36 -77.51 231.16 -82.32 245.96 -86.52 260.76 -89.01 275.56 -89.15 290.36 -86.89 305.16 -82.83 319.96 -78.02 334.76 -73.74 349.56 -71.09 364.36 -70.77 379.16 -72.86 393.97 -76.82 408.77 -81.61 423.57 -85.98 438.37 -88.78 453.17 -89.28 467.97 -87.36 482.77 -83.5 497.57 -78.73 512.37 -74.29 527.17 -71.34 541.97 -70.66 556.77 -72.42 571.57 -76.16 586.37 -80.9 601.17 -85.41 615.97 -88.5 630.77 -89.37 645.57 -87.78 660.37 -84.16 675.17 -79.44 689.97 -74.88 704.78 -71.65 719.58 -70.6 734.38 -72.02 749.18 -75.52 763.98 -80.19 778.78 -84.81 793.58 -88.17 808.38 -89.39 823.18 -88.16 837.98 -84.79 852.78 -80.16 867.58 -75.49 863.5 -60.44 862.58 -45.38 865 -30.33 870.28 -15.28 877.43 -0.22 885.07 14.82 891.73 29.88 896.15 44.93 897.48 59.98 895.45 75.04 890.47 90.09 883.48 105.15 875.82 120.2 868.96 135.25 864.22 150.31 862.5 165.36 864.12 180.42 868.79 195.47 875.6 210.52 883.26 225.58 890.28 240.63 895.34 255.69 897.46 270.74 896.24 285.79 891.9 300.85 885.29 315.9 877.66 330.95 870.47 346.01 865.12 361.06 862.61 376.12 863.43 391.17 867.42 406.22 873.82 421.28 881.41 436.33 888.72 451.39 894.36 466.44 897.25 481.49 896.84 496.55 893.2 511.6 887.03 526.66 879.52 541.71 872.09 556.76 866.18 571.82 862.92 586.87 862.92 601.92 866.2 616.98 872.11 632.03 879.54 647.09 887.05 662.14 893.22 677.19 896.85 692.25 897.25 707.3 894.35 722.36 888.7 737.41 881.38 752.46 873.8 767.52 867.41 782.57 863.42 797.63 862.61 812.68 865.13 827.73 870.49 842.79 877.68 857.84 881.02 876.3 861.54 871.53 846.34 865.58 831.15 863.4 815.96 865.55 800.77 871.49 785.58 879.65 770.39 887.9 755.19 894.09 740 896.58 724.81 894.74 709.62 889.04 694.43 880.97 679.24 872.65 664.04 866.25 648.85 863.45 633.66 864.97 618.47 870.43 603.28 878.39 588.09 886.77 572.89 893.38 557.7 896.48 542.51 895.28 527.32 890.07 512.13 882.23 496.94 873.8 481.74 867 466.55 863.59 451.36 864.48 436.17 869.42 420.98 877.13 405.79 885.59 390.59 892.59 375.4 896.29 360.21 895.73 345.02 891.05 329.83 883.48 314.64 875 299.45 867.82 284.25 863.83 269.06 864.07 253.87 868.48 238.68 875.9 223.49 884.39 208.3 891.73 193.1 896 177.91 896.08 162.72 891.96 147.53 884.7 132.34 876.22 117.15 868.72 101.95 864.17 86.76 863.76 71.57 867.6 56.38 874.68 41.19 883.15 26 890.8 10.8 895.62 -4.38 896.35 -19.57 892.8 -34.76 885.9 -49.95 877.46 -65.14 869.68 -80.34 864.6 -80.15 849.7 -79.93 834.81 -79.72 819.91 -79.57 805.01 -79.5 790.12 -79.52 775.22 -79.64 760.33 -79.82 745.43 -80.03 730.54 -80.24 715.64 -80.41 700.75 -80.49 685.85 -80.48 670.95 -80.37 656.06 -80.2 641.16 -79.98 626.27 -79.77 611.37 -79.6 596.48 -79.51 581.58 -79.51 566.68 -79.6 551.79 -79.77 536.89 -79.98 522 -80.2 507.1 -80.37 492.21 -80.48 477.31 -80.49 462.41 -80.41 447.52 -80.24 432.62 -80.04 417.73 -79.82 402.83 -79.64 387.94 -79.52 373.04 -79.5 358.15 -79.57 343.25 -79.72 328.35 -79.93 313.46 -80.15 298.56 -80.34 283.67 -80.46 268.77 -80.49 253.88 -80.43 238.98 -80.29 224.08 -80.09 209.19 -79.87 194.29 -79.67 179.4 -79.54 164.5 -79.5 149.61 -79.54 134.71 -79.68 119.82 -79.88 104.92 -80.09 90.02 -80.29 75.13 -80.44 60.23 -80.49 45.34 -80.46 30.44 -80.33 15.55 -80.14 0.65 -79.92 -14.24 -79.72 -29.13 -79.57 -44.03 -79.5 -58.92 -79.52 -73.82 -79.64 -88.71" fill="url(#uuunion-grad)"></path><path d="M-79.64 -88.71Q-79.52 -73.82 -79.5 -58.92 -79.57 -44.03 -79.72 -29.13 -79.92 -14.24 -80.14 0.65 -80.33 15.55 -80.46 30.44 -80.49 45.34 -80.44 60.23 -80.29 75.13 -80.09 90.02 -79.88 104.92 -79.68 119.82 -79.54 134.71 -79.5 149.61 -79.54 164.5 -79.67 179.4 -79.87 194.29 -80.09 209.19 -80.29 224.08 -80.43 238.98 -80.49 253.88 -80.46 268.77 -80.34 283.67 -80.15 298.56 -79.93 313.46 -79.72 328.35 -79.57 343.25 -79.5 358.15 -79.52 373.04 -79.64 387.94 -69.77 390.29 -59.91 393.78 -50.04 398.01 -40.17 402.47 -30.31 406.64 -20.44 410.02 -1.95 412.79 1.24 412.96 13.39 405.12 25.54 395.23 37.69 383.95 49.89 372.23 62.15 361.04 74.49 351.29 86.94 343.6 99.51 338.21 112.22 334.95 125.05 333.27 138.01 332.31 151.1 331.13 164.28 328.79 177.55 324.6 190.86 318.2 204.19 309.64 217.5 299.34 230.75 288.06 243.9 276.71 256.92 266.23 269.77 257.37 282.42 250.59 294.86 245.98 307.07 243.21 319.04 241.65 330.77 240.43 342.28 238.64 353.6 235.47 364.75 230.38 375.78 223.17 386.73 214.03 397.66 203.5 408.63 192.37 419.68 181.53 430.88 171.81 442.29 163.83 453.95 157.89 465.9 153.91 478.18 151.47 490.82 149.86 503.81 148.24 517.16 145.77 530.84 141.76 544.84 135.83 559.11 127.93 573.59 118.38 588.22 107.79 602.93 96.96 617.64 86.72 632.28 77.78 646.75 70.64 660.99 65.42 674.92 61.93 688.48 59.65 701.62 57.85 714.3 55.72 726.5 52.52 738.21 47.69 749.44 41.01 760.22 32.56 770.6 22.76 780.64 12.27 790.41 1.85 800 -7.72 792.12 -25.12 786.28 -42.52 784 -59.92 785.86 -77.31 791.39 -94.71 799.14 -112.11 802.61 -136.36 782.97 -138.7 767.83 -134.51 752.7 -131.74 737.56 -131.11 722.42 -132.77 707.28 -136.29 692.15 -140.78 677.01 -145.06 661.87 -148.03 646.73 -148.93 631.59 -147.52 616.46 -144.16 601.32 -139.72 586.18 -135.36 571.04 -132.19 555.91 -131.05 540.77 -132.21 525.63 -135.38 510.49 -139.75 495.35 -144.18 480.22 -147.53 465.08 -148.93 449.94 -148.02 434.8 -145.04 419.67 -140.75 404.53 -136.27 389.39 -132.75 374.25 -131.1 359.12 -131.75 343.98 -134.53 328.84 -138.73 313.7 -143.25 298.56 -146.93 283.43 -148.81 268.29 -148.42 253.15 -145.86 238.01 -141.77 222.88 -137.23 207.74 -133.4 192.6 -131.28 177.46 -131.41 162.32 -133.76 147.19 -137.72 132.05 -142.27 116.91 -146.23 101.77 -148.58 86.64 -148.71 71.5 -146.59 56.36 -142.77 41.22 -138.23 26.08 -134.14 10.95 -131.57 -4.18 -131.17 -19.32 -133.06 -34.46 -136.74 -49.59 -141.26 -64.73 -145.45 -79.87 -148.23 -95.01 -148.89 -110.15 -147.24 -125.28 -143.73 -134.92 -127.66 -117.11 -115.75 -107.62 -110.25 -98.21 -103.98 -88.88 -96.82 -79.64 -88.71" fill="url(#uuunion-grad2)" filter="url(#uuunion-blur)"></path><path d="M788.5 389.95Q798.36 387.75 808.23 387 818.09 387.77 827.96 389.98 837.83 393.37 847.69 397.54 857.56 402 867.42 406.22 873.82 421.28 881.41 436.33 888.72 451.39 894.36 466.44 897.25 481.49 896.84 496.55 893.2 511.6 887.03 526.66 879.52 541.71 872.09 556.76 866.18 571.82 862.92 586.87 862.92 601.92 866.2 616.98 872.11 632.03 879.54 647.09 887.05 662.14 893.22 677.19 896.85 692.25 897.25 707.3 894.35 722.36 888.7 737.41 881.38 752.46 873.8 767.52 867.41 782.57 863.42 797.63 862.61 812.68 865.13 827.73 870.49 842.79 877.68 857.84 881.64 876.65 864.04 872.78 850.09 866.74 836.15 863.64 822.21 864.15 808.27 868.17 794.33 874.8 780.39 882.58 766.45 889.79 752.5 894.83 738.56 896.59 724.62 894.69 710.68 889.53 696.74 882.27 682.8 874.5 668.85 867.95 654.91 864.06 640.97 863.7 627.03 866.93 613.09 873.06 599.15 880.72 585.21 888.22 571.26 893.9 557.32 896.51 543.38 895.46 529.44 891 515.5 884.1 501.56 876.29 487.62 869.31 473.67 864.68 459.73 863.45 445.79 865.87 431.85 871.41 417.91 878.86 403.97 886.55 390.03 892.8 376.08 896.21 362.14 896.04 348.2 892.32 334.26 885.88 320.32 878.13 306.38 870.8 292.43 865.5 278.49 863.4 264.55 864.98 250.61 869.87 236.67 877.01 222.73 884.8 208.79 891.53 194.84 895.71 180.9 896.42 166.96 893.49 153.02 887.58 139.08 879.99 125.14 872.41 111.2 866.5 97.25 863.57 83.31 864.28 69.37 868.46 55.43 875.19 41.49 882.99 27.55 890.12 6.52 890.76 -0.84 876.44 -1.12 866.36 -1.4 856.29 -1.64 846.21 -1.83 836.14 -1.71 821.03 -0.99 816 11.29 808.24 23.64 797.85 36.07 785.59 48.6 772.58 61.23 760.05 73.98 749.14 86.84 740.69 99.8 735.1 112.86 732.22 125.98 731.42 139.16 731.69 152.36 731.85 165.54 730.71 178.68 727.37 191.73 721.29 204.68 712.47 217.48 701.38 230.11 688.94 242.55 676.27 254.79 664.55 266.82 654.76 278.65 647.55 290.29 643.07 301.75 640.98 313.07 640.51 324.29 640.6 335.45 640.07 346.59 637.9 357.77 633.35 369.04 626.13 380.46 616.42 392.07 604.89 403.91 592.49 416.03 580.36 428.45 569.57 441.19 560.94 454.25 554.89 467.64 551.36 481.34 549.85 495.31 549.47 509.52 549.14 523.9 547.8 538.41 544.54 552.98 538.84 567.52 530.61 581.98 520.23 596.27 508.47 610.32 496.34 624.07 484.91 637.46 475.14 650.45 467.64 663 462.63 675.1 459.86 686.75 458.69 697.96 458.18 708.75 457.28 719.19 455.01 729.33 450.66 739.23 443.89 749 434.83 758.71 423.99 768.46 412.23 783.43 395.25 788.5 389.95" fill="url(#uuunion-grad3)" filter="url(#uuunion-blur2)"></path></svg>