<svg id="visual" viewBox="0 0 1920 1080" width="1920" height="1080" xmlns="http://www.w3.org/2000/svg" xmlns:xlink="http://www.w3.org/1999/xlink" version="1.1"><rect x="0" y="0" width="1920" height="1080" fill="#cedecc"></rect><path d="M0 626L213 707L427 682L640 658L853 741L1067 634L1280 770L1493 696L1707 630L1920 712L1920 1081L1707 1081L1493 1081L1280 1081L1067 1081L853 1081L640 1081L427 1081L213 1081L0 1081Z" fill="#e0c55f"></path><path d="M0 702L213 847L427 719L640 817L853 721L1067 729L1280 711L1493 748L1707 706L1920 807L1920 1081L1707 1081L1493 1081L1280 1081L1067 1081L853 1081L640 1081L427 1081L213 1081L0 1081Z" fill="#e0b054"></path><path d="M0 862L213 778L427 874L640 842L853 783L1067 821L1280 807L1493 763L1707 789L1920 788L1920 1081L1707 1081L1493 1081L1280 1081L1067 1081L853 1081L640 1081L427 1081L213 1081L0 1081Z" fill="#dd9a4e"></path><path d="M0 918L213 905L427 856L640 929L853 893L1067 831L1280 858L1493 931L1707 938L1920 844L1920 1081L1707 1081L1493 1081L1280 1081L1067 1081L853 1081L640 1081L427 1081L213 1081L0 1081Z" fill="#d8864b"></path><path d="M0 962L213 985L427 920L640 897L853 986L1067 967L1280 947L1493 932L1707 986L1920 902L1920 1081L1707 1081L1493 1081L1280 1081L1067 1081L853 1081L640 1081L427 1081L213 1081L0 1081Z" fill="#d0714b"></path><path d="M0 964L213 964L427 1002L640 985L853 1024L1067 1027L1280 986L1493 977L1707 1034L1920 1007L1920 1081L1707 1081L1493 1081L1280 1081L1067 1081L853 1081L640 1081L427 1081L213 1081L0 1081Z" fill="#c55e4c"></path></svg>