<svg id="visual" viewBox="0 0 1920 1080" width="1920" height="1080" xmlns="http://www.w3.org/2000/svg" xmlns:xlink="http://www.w3.org/1999/xlink" version="1.1"><rect x="0" y="0" width="1920" height="1080" fill="#cedecc"></rect><path d="M0 583L45.7 582.5C91.3 582 182.7 581 274.2 578C365.7 575 457.3 570 548.8 581.3C640.3 592.7 731.7 620.3 823 627.2C914.3 634 1005.7 620 1097 622.5C1188.3 625 1279.7 644 1371.2 642C1462.7 640 1554.3 617 1645.8 614.3C1737.3 611.7 1828.7 629.3 1874.3 638.2L1920 647L1920 1081L1874.3 1081C1828.7 1081 1737.3 1081 1645.8 1081C1554.3 1081 1462.7 1081 1371.2 1081C1279.7 1081 1188.3 1081 1097 1081C1005.7 1081 914.3 1081 823 1081C731.7 1081 640.3 1081 548.8 1081C457.3 1081 365.7 1081 274.2 1081C182.7 1081 91.3 1081 45.7 1081L0 1081Z" fill="#e9e09b"></path><path d="M0 682L45.7 687.8C91.3 693.7 182.7 705.3 274.2 705C365.7 704.7 457.3 692.3 548.8 674.2C640.3 656 731.7 632 823 627C914.3 622 1005.7 636 1097 646.5C1188.3 657 1279.7 664 1371.2 663.8C1462.7 663.7 1554.3 656.3 1645.8 657.7C1737.3 659 1828.7 669 1874.3 674L1920 679L1920 1081L1874.3 1081C1828.7 1081 1737.3 1081 1645.8 1081C1554.3 1081 1462.7 1081 1371.2 1081C1279.7 1081 1188.3 1081 1097 1081C1005.7 1081 914.3 1081 823 1081C731.7 1081 640.3 1081 548.8 1081C457.3 1081 365.7 1081 274.2 1081C182.7 1081 91.3 1081 45.7 1081L0 1081Z" fill="#ebc88e"></path><path d="M0 761L45.7 748.8C91.3 736.7 182.7 712.3 274.2 701.3C365.7 690.3 457.3 692.7 548.8 693.2C640.3 693.7 731.7 692.3 823 700.5C914.3 708.7 1005.7 726.3 1097 734.2C1188.3 742 1279.7 740 1371.2 739.8C1462.7 739.7 1554.3 741.3 1645.8 746C1737.3 750.7 1828.7 758.3 1874.3 762.2L1920 766L1920 1081L1874.3 1081C1828.7 1081 1737.3 1081 1645.8 1081C1554.3 1081 1462.7 1081 1371.2 1081C1279.7 1081 1188.3 1081 1097 1081C1005.7 1081 914.3 1081 823 1081C731.7 1081 640.3 1081 548.8 1081C457.3 1081 365.7 1081 274.2 1081C182.7 1081 91.3 1081 45.7 1081L0 1081Z" fill="#e7b188"></path><path d="M0 818L45.7 809C91.3 800 182.7 782 274.2 765.7C365.7 749.3 457.3 734.7 548.8 728.5C640.3 722.3 731.7 724.7 823 724.3C914.3 724 1005.7 721 1097 726C1188.3 731 1279.7 744 1371.2 753.5C1462.7 763 1554.3 769 1645.8 766C1737.3 763 1828.7 751 1874.3 745L1920 739L1920 1081L1874.3 1081C1828.7 1081 1737.3 1081 1645.8 1081C1554.3 1081 1462.7 1081 1371.2 1081C1279.7 1081 1188.3 1081 1097 1081C1005.7 1081 914.3 1081 823 1081C731.7 1081 640.3 1081 548.8 1081C457.3 1081 365.7 1081 274.2 1081C182.7 1081 91.3 1081 45.7 1081L0 1081Z" fill="#de9c86"></path><path d="M0 861L45.7 856.5C91.3 852 182.7 843 274.2 831.2C365.7 819.3 457.3 804.7 548.8 810.3C640.3 816 731.7 842 823 847.3C914.3 852.7 1005.7 837.3 1097 831.7C1188.3 826 1279.7 830 1371.2 829C1462.7 828 1554.3 822 1645.8 820.3C1737.3 818.7 1828.7 821.3 1874.3 822.7L1920 824L1920 1081L1874.3 1081C1828.7 1081 1737.3 1081 1645.8 1081C1554.3 1081 1462.7 1081 1371.2 1081C1279.7 1081 1188.3 1081 1097 1081C1005.7 1081 914.3 1081 823 1081C731.7 1081 640.3 1081 548.8 1081C457.3 1081 365.7 1081 274.2 1081C182.7 1081 91.3 1081 45.7 1081L0 1081Z" fill="#db9886"></path><path d="M0 854L45.7 852C91.3 850 182.7 846 274.2 852.2C365.7 858.3 457.3 874.7 548.8 881.3C640.3 888 731.7 885 823 886.8C914.3 888.7 1005.7 895.3 1097 886.2C1188.3 877 1279.7 852 1371.2 842C1462.7 832 1554.3 837 1645.8 851.8C1737.3 866.7 1828.7 891.3 1874.3 903.7L1920 916L1920 1081L1874.3 1081C1828.7 1081 1737.3 1081 1645.8 1081C1554.3 1081 1462.7 1081 1371.2 1081C1279.7 1081 1188.3 1081 1097 1081C1005.7 1081 914.3 1081 823 1081C731.7 1081 640.3 1081 548.8 1081C457.3 1081 365.7 1081 274.2 1081C182.7 1081 91.3 1081 45.7 1081L0 1081Z" fill="#de9c86"></path><path d="M0 969L45.7 957C91.3 945 182.7 921 274.2 910.3C365.7 899.7 457.3 902.3 548.8 907.2C640.3 912 731.7 919 823 925.3C914.3 931.7 1005.7 937.3 1097 938.3C1188.3 939.3 1279.7 935.7 1371.2 932.3C1462.7 929 1554.3 926 1645.8 920.5C1737.3 915 1828.7 907 1874.3 903L1920 899L1920 1081L1874.3 1081C1828.7 1081 1737.3 1081 1645.8 1081C1554.3 1081 1462.7 1081 1371.2 1081C1279.7 1081 1188.3 1081 1097 1081C1005.7 1081 914.3 1081 823 1081C731.7 1081 640.3 1081 548.8 1081C457.3 1081 365.7 1081 274.2 1081C182.7 1081 91.3 1081 45.7 1081L0 1081Z" fill="#e7b188"></path><path d="M0 969L45.7 966.3C91.3 963.7 182.7 958.3 274.2 953.8C365.7 949.3 457.3 945.7 548.8 954.2C640.3 962.7 731.7 983.3 823 982.5C914.3 981.7 1005.7 959.3 1097 949.3C1188.3 939.3 1279.7 941.7 1371.2 951.3C1462.7 961 1554.3 978 1645.8 980C1737.3 982 1828.7 969 1874.3 962.5L1920 956L1920 1081L1874.3 1081C1828.7 1081 1737.3 1081 1645.8 1081C1554.3 1081 1462.7 1081 1371.2 1081C1279.7 1081 1188.3 1081 1097 1081C1005.7 1081 914.3 1081 823 1081C731.7 1081 640.3 1081 548.8 1081C457.3 1081 365.7 1081 274.2 1081C182.7 1081 91.3 1081 45.7 1081L0 1081Z" fill="#ebc88e"></path><path d="M0 983L45.7 995.5C91.3 1008 182.7 1033 274.2 1040.2C365.7 1047.3 457.3 1036.7 548.8 1026.5C640.3 1016.3 731.7 1006.7 823 1012.5C914.3 1018.3 1005.7 1039.7 1097 1048.5C1188.3 1057.3 1279.7 1053.7 1371.2 1052.2C1462.7 1050.7 1554.3 1051.3 1645.8 1052C1737.3 1052.7 1828.7 1053.3 1874.3 1053.7L1920 1054L1920 1081L1874.3 1081C1828.7 1081 1737.3 1081 1645.8 1081C1554.3 1081 1462.7 1081 1371.2 1081C1279.7 1081 1188.3 1081 1097 1081C1005.7 1081 914.3 1081 823 1081C731.7 1081 640.3 1081 548.8 1081C457.3 1081 365.7 1081 274.2 1081C182.7 1081 91.3 1081 45.7 1081L0 1081Z" fill="#e9e09b"></path></svg>