<svg id="visual" viewBox="0 0 1920 1080" width="1920" height="1080" xmlns="http://www.w3.org/2000/svg" xmlns:xlink="http://www.w3.org/1999/xlink" version="1.1"><rect x="0" y="0" width="1920" height="1080" fill="#bdcedb"></rect><path d="M0 482L45.7 468.5C91.3 455 182.7 428 274.2 447.8C365.7 467.7 457.3 534.3 548.8 554C640.3 573.7 731.7 546.3 823 524C914.3 501.7 1005.7 484.3 1097 467.5C1188.3 450.7 1279.7 434.3 1371.2 455.8C1462.7 477.3 1554.3 536.7 1645.8 554.5C1737.3 572.3 1828.7 548.7 1874.3 536.8L1920 525L1920 1081L1874.3 1081C1828.7 1081 1737.3 1081 1645.8 1081C1554.3 1081 1462.7 1081 1371.2 1081C1279.7 1081 1188.3 1081 1097 1081C1005.7 1081 914.3 1081 823 1081C731.7 1081 640.3 1081 548.8 1081C457.3 1081 365.7 1081 274.2 1081C182.7 1081 91.3 1081 45.7 1081L0 1081Z" fill="#eef3d4"></path><path d="M0 647L45.7 634.3C91.3 621.7 182.7 596.3 274.2 579.7C365.7 563 457.3 555 548.8 580.8C640.3 606.7 731.7 666.3 823 695C914.3 723.7 1005.7 721.3 1097 681.3C1188.3 641.3 1279.7 563.7 1371.2 537.2C1462.7 510.7 1554.3 535.3 1645.8 541.7C1737.3 548 1828.7 536 1874.3 530L1920 524L1920 1081L1874.3 1081C1828.7 1081 1737.3 1081 1645.8 1081C1554.3 1081 1462.7 1081 1371.2 1081C1279.7 1081 1188.3 1081 1097 1081C1005.7 1081 914.3 1081 823 1081C731.7 1081 640.3 1081 548.8 1081C457.3 1081 365.7 1081 274.2 1081C182.7 1081 91.3 1081 45.7 1081L0 1081Z" fill="#e2deb5"></path><path d="M0 670L45.7 668.7C91.3 667.3 182.7 664.7 274.2 663.7C365.7 662.7 457.3 663.3 548.8 657.8C640.3 652.3 731.7 640.7 823 656.7C914.3 672.7 1005.7 716.3 1097 721.8C1188.3 727.3 1279.7 694.7 1371.2 698.2C1462.7 701.7 1554.3 741.3 1645.8 750.2C1737.3 759 1828.7 737 1874.3 726L1920 715L1920 1081L1874.3 1081C1828.7 1081 1737.3 1081 1645.8 1081C1554.3 1081 1462.7 1081 1371.2 1081C1279.7 1081 1188.3 1081 1097 1081C1005.7 1081 914.3 1081 823 1081C731.7 1081 640.3 1081 548.8 1081C457.3 1081 365.7 1081 274.2 1081C182.7 1081 91.3 1081 45.7 1081L0 1081Z" fill="#d9c898"></path><path d="M0 862L45.7 860C91.3 858 182.7 854 274.2 838.7C365.7 823.3 457.3 796.7 548.8 803C640.3 809.3 731.7 848.7 823 845.7C914.3 842.7 1005.7 797.3 1097 790.2C1188.3 783 1279.7 814 1371.2 836.3C1462.7 858.7 1554.3 872.3 1645.8 865.5C1737.3 858.7 1828.7 831.3 1874.3 817.7L1920 804L1920 1081L1874.3 1081C1828.7 1081 1737.3 1081 1645.8 1081C1554.3 1081 1462.7 1081 1371.2 1081C1279.7 1081 1188.3 1081 1097 1081C1005.7 1081 914.3 1081 823 1081C731.7 1081 640.3 1081 548.8 1081C457.3 1081 365.7 1081 274.2 1081C182.7 1081 91.3 1081 45.7 1081L0 1081Z" fill="#d2b17d"></path><path d="M0 927L45.7 916.5C91.3 906 182.7 885 274.2 893.2C365.7 901.3 457.3 938.7 548.8 939C640.3 939.3 731.7 902.7 823 903.8C914.3 905 1005.7 944 1097 957.8C1188.3 971.7 1279.7 960.3 1371.2 948.7C1462.7 937 1554.3 925 1645.8 913.5C1737.3 902 1828.7 891 1874.3 885.5L1920 880L1920 1081L1874.3 1081C1828.7 1081 1737.3 1081 1645.8 1081C1554.3 1081 1462.7 1081 1371.2 1081C1279.7 1081 1188.3 1081 1097 1081C1005.7 1081 914.3 1081 823 1081C731.7 1081 640.3 1081 548.8 1081C457.3 1081 365.7 1081 274.2 1081C182.7 1081 91.3 1081 45.7 1081L0 1081Z" fill="#cc9a66"></path></svg>