<?xml version="1.0" ?><!DOCTYPE svg  PUBLIC '-//W3C//DTD SVG 1.1//EN'  'http://www.w3.org/Graphics/SVG/1.1/DTD/svg11.dtd'><svg height="8.4666mm" style="shape-rendering:geometricPrecision; text-rendering:geometricPrecision; image-rendering:optimizeQuality; fill-rule:evenodd; clip-rule:evenodd" version="1.1" viewBox="0 0 846.66 846.66" width="8.4666mm" xml:space="preserve" xmlns="http://www.w3.org/2000/svg" xmlns:xlink="http://www.w3.org/1999/xlink"><defs><style type="text/css">
   <![CDATA[
    .fil0 {fill:black;fill-rule:nonzero}
   ]]>
  </style></defs><g id="Layer_x0020_1"><path class="fil0" d="M130.28 100.36l35.21 0 0 -45.26c0,-11.43 9.28,-20.71 20.71,-20.71l70.42 0c11.43,0 20.7,9.28 20.7,20.71l0 45.26 292.02 0 0 -45.26c0,-11.43 9.27,-20.71 20.71,-20.71l70.41 0c11.43,0 20.71,9.28 20.71,20.71l0 45.26 35.21 0c66.87,0 121.51,54.64 121.51,121.52 0,156.29 0,312.58 0,468.87 0,66.88 -54.64,121.52 -121.51,121.52l-586.1 0c-66.87,0 -121.51,-54.64 -121.51,-121.52 0,-156.29 0,-312.58 0,-468.87 0,-66.88 54.64,-121.52 121.51,-121.52zm-16.04 447.63l84.91 0 0 84.91 -84.91 0 0 -84.91zm533.27 0l84.92 0 0 84.91 -84.92 0 0 -84.91zm-177.76 0l84.91 0 0 84.91 -84.91 0 0 -84.91zm-177.75 0l84.91 0 0 84.91 -84.91 0 0 -84.91zm-177.76 -130.47l84.91 0 0 84.91 -84.91 0 0 -84.91zm533.27 0l84.92 0 0 84.91 -84.92 0 0 -84.91zm-177.76 0l84.91 0 0 84.91 -84.91 0 0 -84.91zm-177.75 0l84.91 0 0 84.91 -84.91 0 0 -84.91zm-85.09 -296.45l0 45.87 29 0 0 -45.87 0 -45.26 -29 0 0 45.26zm403.85 45.87l28.99 0 0 -91.13 -28.99 0 0 91.13zm-560.57 157.39l746.28 0 0 -34.86 -746.28 0 0 34.86zm746.28 41.42l-746.28 0 0 325c0,44.01 36.08,80.1 80.09,80.1l586.1 0c44.01,0 80.09,-36.09 80.09,-80.1l0 -325zm-746.28 -117.7l746.28 0 0 -26.17c0,-44.01 -36.08,-80.1 -80.09,-80.1l-35.21 0 0 45.87c0,11.43 -9.28,20.71 -20.71,20.71l-70.41 0c-11.44,0 -20.71,-9.28 -20.71,-20.71l0 -45.87 -292.02 0 0 45.87c0,11.43 -9.27,20.71 -20.7,20.71l-70.42 0c-11.43,0 -20.71,-9.28 -20.71,-20.71l0 -45.87 -35.21 0c-44.01,0 -80.09,36.09 -80.09,80.1l0 26.17z"/></g></svg>