<svg id="visual" viewBox="0 0 1920 1080" width="1920" height="1080" xmlns="http://www.w3.org/2000/svg" xmlns:xlink="http://www.w3.org/1999/xlink" version="1.1"><rect x="0" y="0" width="1920" height="1080" fill="#cedecc"></rect><path d="M0 575L45.7 521.3C91.3 467.7 182.7 360.3 274.2 268.2C365.7 176 457.3 99 548.8 162.3C640.3 225.7 731.7 429.3 823 474.8C914.3 520.3 1005.7 407.7 1097 396.8C1188.3 386 1279.7 477 1371.2 442.8C1462.7 408.7 1554.3 249.3 1645.8 209.5C1737.3 169.7 1828.7 249.3 1874.3 289.2L1920 329L1920 0L1874.3 0C1828.7 0 1737.3 0 1645.8 0C1554.3 0 1462.7 0 1371.2 0C1279.7 0 1188.3 0 1097 0C1005.7 0 914.3 0 823 0C731.7 0 640.3 0 548.8 0C457.3 0 365.7 0 274.2 0C182.7 0 91.3 0 45.7 0L0 0Z" fill="#faed69"></path><path d="M0 118L45.7 162.7C91.3 207.3 182.7 296.7 274.2 341.3C365.7 386 457.3 386 548.8 361.5C640.3 337 731.7 288 823 326.2C914.3 364.3 1005.7 489.7 1097 533.8C1188.3 578 1279.7 541 1371.2 458.8C1462.7 376.7 1554.3 249.3 1645.8 194.7C1737.3 140 1828.7 158 1874.3 167L1920 176L1920 0L1874.3 0C1828.7 0 1737.3 0 1645.8 0C1554.3 0 1462.7 0 1371.2 0C1279.7 0 1188.3 0 1097 0C1005.7 0 914.3 0 823 0C731.7 0 640.3 0 548.8 0C457.3 0 365.7 0 274.2 0C182.7 0 91.3 0 45.7 0L0 0Z" fill="#fed368"></path><path d="M0 318L45.7 299.2C91.3 280.3 182.7 242.7 274.2 190.2C365.7 137.7 457.3 70.3 548.8 97C640.3 123.7 731.7 244.3 823 289.3C914.3 334.3 1005.7 303.7 1097 318.2C1188.3 332.7 1279.7 392.3 1371.2 415.8C1462.7 439.3 1554.3 426.7 1645.8 417.8C1737.3 409 1828.7 404 1874.3 401.5L1920 399L1920 0L1874.3 0C1828.7 0 1737.3 0 1645.8 0C1554.3 0 1462.7 0 1371.2 0C1279.7 0 1188.3 0 1097 0C1005.7 0 914.3 0 823 0C731.7 0 640.3 0 548.8 0C457.3 0 365.7 0 274.2 0C182.7 0 91.3 0 45.7 0L0 0Z" fill="#fabb6c"></path><path d="M0 220L45.7 190.3C91.3 160.7 182.7 101.3 274.2 126.5C365.7 151.7 457.3 261.3 548.8 271C640.3 280.7 731.7 190.3 823 188.2C914.3 186 1005.7 272 1097 260C1188.3 248 1279.7 138 1371.2 126.8C1462.7 115.7 1554.3 203.3 1645.8 253C1737.3 302.7 1828.7 314.3 1874.3 320.2L1920 326L1920 0L1874.3 0C1828.7 0 1737.3 0 1645.8 0C1554.3 0 1462.7 0 1371.2 0C1279.7 0 1188.3 0 1097 0C1005.7 0 914.3 0 823 0C731.7 0 640.3 0 548.8 0C457.3 0 365.7 0 274.2 0C182.7 0 91.3 0 45.7 0L0 0Z" fill="#efa572"></path><path d="M0 247L45.7 224.5C91.3 202 182.7 157 274.2 132.3C365.7 107.7 457.3 103.3 548.8 87.8C640.3 72.3 731.7 45.7 823 37.7C914.3 29.7 1005.7 40.3 1097 53C1188.3 65.7 1279.7 80.3 1371.2 75C1462.7 69.7 1554.3 44.3 1645.8 54.8C1737.3 65.3 1828.7 111.7 1874.3 134.8L1920 158L1920 0L1874.3 0C1828.7 0 1737.3 0 1645.8 0C1554.3 0 1462.7 0 1371.2 0C1279.7 0 1188.3 0 1097 0C1005.7 0 914.3 0 823 0C731.7 0 640.3 0 548.8 0C457.3 0 365.7 0 274.2 0C182.7 0 91.3 0 45.7 0L0 0Z" fill="#dd9377"></path></svg>