<svg id="visual" viewBox="0 0 960 540" width="960" height="540" xmlns="http://www.w3.org/2000/svg" xmlns:xlink="http://www.w3.org/1999/xlink" version="1.1"><rect x="0" y="0" width="960" height="540" fill="#cddecb"></rect><path d="M0 386L137 391L274 340L411 351L549 337L686 330L823 319L960 379L960 541L823 541L686 541L549 541L411 541L274 541L137 541L0 541Z" fill="#d0bc4a"></path><path d="M0 403L137 360L274 428L411 397L549 413L686 365L823 425L960 360L960 541L823 541L686 541L549 541L411 541L274 541L137 541L0 541Z" fill="#deab54"></path><path d="M0 425L137 428L274 437L411 450L549 420L686 427L823 426L960 403L960 541L823 541L686 541L549 541L411 541L274 541L137 541L0 541Z" fill="#e39d63"></path><path d="M0 471L137 467L274 436L411 481L549 473L686 434L823 453L960 468L960 541L823 541L686 541L549 541L411 541L274 541L137 541L0 541Z" fill="#df9273"></path><path d="M0 504L137 498L274 483L411 497L549 486L686 503L823 494L960 478L960 541L823 541L686 541L549 541L411 541L274 541L137 541L0 541Z" fill="#d48b81"></path></svg>