<?xml version="1.0" standalone="no"?>
<!DOCTYPE svg PUBLIC "-//W3C//DTD SVG 20010904//EN"
 "http://www.w3.org/TR/2001/REC-SVG-20010904/DTD/svg10.dtd">
<svg version="1.0" xmlns="http://www.w3.org/2000/svg"
 width="300.000000pt" height="199.000000pt" viewBox="0 0 300.000000 199.000000"
 preserveAspectRatio="xMidYMid meet">
<metadata>
Created by potrace 1.10, written by Peter Selinger 2001-2011
</metadata>
<g transform="translate(0.000000,199.000000) scale(0.100000,-0.100000)"
fill="#d8dce4" stroke="none">
<path d="M443 1738 c15 -542 20 -684 29 -703 5 -12 6 61 3 180 -3 110 -8 329
-12 488 -4 179 -10 287 -16 287 -7 0 -8 -87 -4 -252z"/>
<path d="M555 1968 c3 -13 7 -142 10 -288 2 -146 7 -348 10 -449 4 -119 2
-186 -4 -190 -6 -4 -2 -12 9 -19 19 -12 20 -9 20 55 0 38 -5 185 -10 328 -5
143 -10 319 -11 390 -2 145 -7 195 -20 195 -5 0 -7 -10 -4 -22z"/>
<path d="M594 1828 c3 -90 8 -248 11 -353 9 -317 16 -430 26 -433 5 -2 9 -15
9 -30 0 -14 2 -23 5 -20 3 3 1 45 -6 94 -6 49 -11 174 -10 277 0 122 -3 186
-9 182 -6 -3 -10 1 -10 10 0 9 5 13 10 10 6 -3 10 -1 10 4 0 6 -3 11 -7 11 -5
0 -8 79 -7 176 0 191 -3 234 -18 234 -7 0 -8 -56 -4 -162z"/>
<path d="M930 1911 c0 -50 4 -80 10 -76 8 5 4 145 -6 154 -2 2 -4 -33 -4 -78z"/>
<path d="M1002 1916 l2 -71 3 60 c2 32 8 64 13 70 7 8 5 12 -5 12 -12 0 -15
-14 -13 -71z"/>
<path d="M885 1960 c-3 -5 -1 -10 4 -10 6 0 11 5 11 10 0 6 -2 10 -4 10 -3 0
-8 -4 -11 -10z"/>
<path d="M750 1949 c0 -5 5 -7 10 -4 6 3 10 8 10 11 0 2 -4 4 -10 4 -5 0 -10
-5 -10 -11z"/>
<path d="M700 1940 c-8 -5 -10 -10 -5 -10 6 0 17 5 25 10 8 5 11 10 5 10 -5 0
-17 -5 -25 -10z"/>
<path d="M860 1936 c0 -2 9 -6 20 -9 11 -3 18 -1 14 4 -5 9 -34 13 -34 5z"/>
<path d="M36 1916 c3 -9 11 -16 16 -16 13 0 5 23 -10 28 -7 2 -10 -2 -6 -12z"/>
<path d="M70 1916 c0 -2 7 -6 15 -10 8 -3 15 -1 15 4 0 6 -7 10 -15 10 -8 0
-15 -2 -15 -4z"/>
<path d="M110 1906 c0 -2 7 -6 15 -10 8 -3 15 -1 15 4 0 6 -7 10 -15 10 -8 0
-15 -2 -15 -4z"/>
<path d="M632 1890 c0 -14 2 -19 5 -12 2 6 2 18 0 25 -3 6 -5 1 -5 -13z"/>
<path d="M2340 1889 c-25 -5 -70 -11 -100 -14 -30 -3 -74 -8 -97 -11 l-43 -6
0 -106 0 -105 68 7 c37 4 96 9 132 12 119 8 111 -1 108 121 -2 60 -7 107 -13
109 -5 1 -30 -2 -55 -7z m50 -49 c0 -22 -4 -40 -10 -40 -5 0 -10 9 -10 20 0
11 -2 20 -4 20 -2 0 -13 3 -23 7 -17 6 -17 6 0 -14 16 -18 16 -24 6 -41 -7
-12 -22 -25 -34 -31 -17 -8 -17 -10 -2 -10 24 -1 22 -21 -2 -21 -11 0 -23 -4
-26 -10 -3 -5 2 -10 12 -9 21 1 62 17 48 19 -5 1 0 5 13 10 12 5 22 15 22 21
0 8 -5 7 -17 -2 -15 -12 -16 -12 -10 4 4 10 7 23 7 28 0 4 7 6 15 3 11 -4 15
-21 15 -55 0 -37 -4 -49 -15 -49 -8 0 -15 6 -15 13 0 9 -2 9 -9 -1 -4 -7 -24
-17 -45 -22 l-36 -8 0 40 c0 23 4 37 10 33 6 -3 10 1 10 10 0 8 12 20 26 25
30 12 24 31 -8 22 -17 -4 -20 -2 -15 12 4 10 7 20 7 22 0 3 5 2 10 -1 6 -3 10
3 10 14 0 21 12 29 48 30 19 1 22 -4 22 -39z m-80 21 c0 -5 -7 -12 -16 -15
-12 -5 -15 -14 -10 -40 4 -20 2 -37 -4 -41 -6 -4 -10 14 -10 49 0 49 2 56 20
56 11 0 20 -4 20 -9z m-80 -95 l0 -94 -57 -5 c-62 -5 -76 -1 -53 13 10 7 11
10 3 10 -15 0 -17 48 -3 70 5 9 5 19 -1 27 -6 6 -9 22 -7 35 3 23 30 34 91 37
l27 1 0 -94z m30 22 c0 -40 -5 -80 -10 -88 -7 -10 -10 12 -10 73 0 51 4 87 10
87 6 0 10 -31 10 -72z"/>
<path d="M2145 1831 c-2 -4 8 -11 21 -18 13 -6 24 -7 24 -2 0 5 -5 9 -11 9 -5
0 -8 4 -5 8 3 5 -2 9 -10 9 -8 0 -17 -3 -19 -6z"/>
<path d="M2136 1803 c-13 -14 -5 -25 15 -20 12 3 18 3 15 0 -3 -4 0 -13 7 -21
10 -13 9 -14 -10 -4 -32 17 -43 14 -13 -4 19 -11 20 -14 6 -12 -12 2 -22 -6
-27 -20 -7 -18 -6 -22 4 -19 6 2 11 9 10 15 -1 5 8 13 21 16 32 8 32 50 1 64
-13 6 -26 8 -29 5z"/>
<path d="M2173 1713 c9 -2 23 -2 30 0 6 3 -1 5 -18 5 -16 0 -22 -2 -12 -5z"/>
<path d="M2160 1690 c-13 -8 -12 -10 3 -10 9 0 17 5 17 10 0 12 -1 12 -20 0z"/>
<path d="M152 1870 c0 -14 2 -19 5 -12 2 6 2 18 0 25 -3 6 -5 1 -5 -13z"/>
<path d="M760 1880 c-13 -8 -13 -10 2 -10 9 0 20 5 23 10 8 13 -5 13 -25 0z"/>
<path d="M690 1861 c0 -5 9 -7 20 -4 11 3 20 7 20 9 0 2 -9 4 -20 4 -11 0 -20
-4 -20 -9z"/>
<path d="M483 1815 c0 -22 2 -30 4 -17 2 12 2 30 0 40 -3 9 -5 -1 -4 -23z"/>
<path d="M3 1520 c0 -173 1 -308 3 -300 4 13 32 15 177 15 l172 -1 -167 3
-168 3 -1 73 c-1 39 -5 173 -8 297 l-7 225 -1 -315z"/>
<path d="M1013 1795 c0 -22 2 -30 4 -17 2 12 2 30 0 40 -3 9 -5 -1 -4 -23z"/>
<path d="M40 1805 c0 -9 6 -12 15 -9 19 8 19 10 0 18 -9 3 -15 0 -15 -9z"/>
<path d="M100 1799 c13 -6 28 -15 32 -22 5 -8 8 -7 8 4 0 9 -10 19 -22 23 -35
9 -46 6 -18 -5z"/>
<path d="M160 1800 c-12 -8 -11 -10 8 -10 12 0 22 5 22 10 0 13 -11 13 -30 0z"/>
<path d="M825 1798 c3 -7 21 -13 40 -13 21 0 35 5 35 13 0 7 -15 12 -40 12
-27 0 -38 -4 -35 -12z"/>
<path d="M863 1763 c9 -2 23 -2 30 0 6 3 -1 5 -18 5 -16 0 -22 -2 -12 -5z"/>
<path d="M150 1741 c0 -6 9 -9 20 -8 11 1 20 5 20 9 0 4 -9 8 -20 8 -11 0 -20
-4 -20 -9z"/>
<path d="M940 1635 c0 -65 3 -116 6 -112 7 7 5 219 -2 226 -2 2 -4 -49 -4
-114z"/>
<path d="M1010 1576 c0 -106 4 -175 9 -171 9 5 4 335 -5 344 -2 2 -4 -75 -4
-173z"/>
<path d="M630 1728 c0 -4 9 -8 20 -8 11 0 20 4 20 8 0 4 -9 8 -20 8 -11 0 -20
-4 -20 -8z"/>
<path d="M763 1723 c-18 -7 -16 -20 2 -20 8 0 16 6 19 14 6 13 0 15 -21 6z"/>
<path d="M830 1718 c0 -8 14 -13 35 -13 21 0 35 5 35 13 0 7 -14 12 -35 12
-21 0 -35 -5 -35 -12z"/>
<path d="M715 1709 c-4 -6 -5 -12 -2 -15 2 -3 7 2 10 11 7 17 1 20 -8 4z"/>
<path d="M1043 1680 c0 -25 2 -35 4 -22 2 12 2 32 0 45 -2 12 -4 2 -4 -23z"/>
<path d="M40 1700 c0 -6 16 -10 37 -10 43 0 41 5 -4 13 -19 4 -33 2 -33 -3z"/>
<path d="M120 1690 c0 -5 5 -10 11 -10 5 0 7 5 4 10 -3 6 -8 10 -11 10 -2 0
-4 -4 -4 -10z"/>
<path d="M181 1684 c0 -11 3 -14 6 -6 3 7 2 16 -1 19 -3 4 -6 -2 -5 -13z"/>
<path d="M155 1680 c3 -5 8 -10 11 -10 2 0 4 5 4 10 0 6 -5 10 -11 10 -5 0 -7
-4 -4 -10z"/>
<path d="M482 1670 c0 -14 2 -19 5 -12 2 6 2 18 0 25 -3 6 -5 1 -5 -13z"/>
<path d="M868 1683 c6 -2 18 -2 25 0 6 3 1 5 -13 5 -14 0 -19 -2 -12 -5z"/>
<path d="M2500 1673 c-95 -7 -90 -1 -90 -115 0 -56 -3 -98 -7 -94 -4 3 -6 49
-4 101 l3 95 -39 0 c-21 0 -55 -3 -75 -6 l-38 -7 0 -105 0 -105 128 6 c70 4
141 7 157 7 l30 0 0 63 c0 34 2 84 5 112 5 55 7 54 -70 48z m50 -106 c0 -52
-3 -97 -7 -100 -3 -4 -13 -1 -21 6 -13 9 -14 9 -8 0 5 -10 -5 -13 -43 -13
l-49 0 -1 96 -1 96 35 -3 c18 -2 37 0 41 4 4 4 18 7 31 7 22 0 23 -2 23 -93z
m-160 76 c0 -12 -16 -35 -24 -34 -19 3 -26 0 -26 -10 0 -6 9 -8 20 -4 19 6 20
2 20 -64 0 -67 -1 -71 -22 -71 -13 0 -40 -3 -60 -6 l-38 -7 0 96 0 96 38 4
c70 7 92 7 92 0z"/>
<path d="M2444 1633 c4 -7 2 -13 -3 -13 -6 0 -11 -5 -11 -11 0 -5 5 -7 10 -4
6 3 10 -1 10 -9 0 -9 -5 -16 -11 -16 -6 0 -3 -7 6 -16 9 -9 14 -23 11 -31 -3
-8 -6 -17 -6 -19 0 -3 -5 -2 -11 2 -7 4 -10 1 -7 -7 4 -12 27 -16 61 -10 4 0
7 10 7 22 0 11 -4 18 -9 14 -17 -10 -40 35 -31 60 7 17 5 27 -7 37 -12 9 -15
10 -9 1z"/>
<path d="M2490 1614 c0 -9 5 -12 12 -8 6 4 8 3 5 -4 -4 -5 -3 -21 2 -34 8 -19
9 -16 9 20 0 29 -5 42 -14 42 -8 0 -14 -7 -14 -16z"/>
<path d="M2480 1576 c0 -8 4 -17 9 -20 5 -4 7 3 4 14 -6 23 -13 26 -13 6z"/>
<path d="M2517 1521 c-3 -12 -1 -21 3 -21 14 0 19 15 11 29 -6 9 -10 7 -14 -8z"/>
<path d="M2270 1595 c0 -10 10 -15 30 -15 17 0 30 5 30 11 0 6 -6 9 -12 6 -7
-2 -21 0 -30 5 -13 6 -18 5 -18 -7z"/>
<path d="M2340 1570 c0 -5 7 -10 16 -10 8 0 12 5 9 10 -3 6 -10 10 -16 10 -5
0 -9 -4 -9 -10z"/>
<path d="M2293 1563 c9 -2 23 -2 30 0 6 3 -1 5 -18 5 -16 0 -22 -2 -12 -5z"/>
<path d="M2271 1533 c0 -10 3 -13 5 -6 3 7 11 10 19 7 7 -3 16 -1 20 5 4 7 -4
11 -19 11 -18 0 -26 -5 -25 -17z"/>
<path d="M2347 1539 c7 -7 15 -10 18 -7 3 3 -2 9 -12 12 -14 6 -15 5 -6 -5z"/>
<path d="M2300 1520 c-13 -9 -13 -10 0 -10 8 0 22 5 30 10 13 9 13 10 0 10 -8
0 -22 -5 -30 -10z"/>
<path d="M2288 1492 c-10 -2 -18 -11 -18 -20 0 -14 2 -14 9 -3 5 8 18 12 30 8
12 -3 24 -1 27 4 3 5 11 6 17 3 7 -4 9 -3 4 1 -8 9 -41 12 -69 7z"/>
<path d="M660 1660 c0 -5 5 -10 11 -10 5 0 7 5 4 10 -3 6 -8 10 -11 10 -2 0
-4 -4 -4 -10z"/>
<path d="M48 1653 c7 -3 16 -2 19 1 4 3 -2 6 -13 5 -11 0 -14 -3 -6 -6z"/>
<path d="M830 1638 c0 -10 5 -18 10 -18 6 0 10 4 10 10 0 6 9 6 26 0 33 -13
34 -13 28 4 -3 8 -21 16 -40 18 -28 3 -34 1 -34 -14z"/>
<path d="M88 1643 c7 -3 16 -2 19 1 4 3 -2 6 -13 5 -11 0 -14 -3 -6 -6z"/>
<path d="M128 1643 c7 -3 16 -2 19 1 4 3 -2 6 -13 5 -11 0 -14 -3 -6 -6z"/>
<path d="M210 1639 c0 -5 5 -7 10 -4 6 3 10 8 10 11 0 2 -4 4 -10 4 -5 0 -10
-5 -10 -11z"/>
<path d="M778 1643 c7 -3 16 -2 19 1 4 3 -2 6 -13 5 -11 0 -14 -3 -6 -6z"/>
<path d="M160 1630 c0 -5 9 -10 20 -10 11 0 20 5 20 10 0 6 -9 10 -20 10 -11
0 -20 -4 -20 -10z"/>
<path d="M327 1629 c7 -7 15 -10 18 -7 3 3 -2 9 -12 12 -14 6 -15 5 -6 -5z"/>
<path d="M708 1633 c6 -2 18 -2 25 0 6 3 1 5 -13 5 -14 0 -19 -2 -12 -5z"/>
<path d="M868 1603 c6 -2 18 -2 25 0 6 3 1 5 -13 5 -14 0 -19 -2 -12 -5z"/>
<path d="M50 1577 c0 -14 3 -17 13 -9 6 5 21 12 32 14 14 3 11 6 -12 9 -28 5
-33 2 -33 -14z"/>
<path d="M491 1584 c0 -11 3 -14 6 -6 3 7 2 16 -1 19 -3 4 -6 -2 -5 -13z"/>
<path d="M126 1582 c6 -4 14 -14 17 -22 4 -10 6 -8 6 8 1 15 -5 22 -16 22 -11
0 -14 -3 -7 -8z"/>
<path d="M640 1578 c0 -11 28 -10 35 1 3 6 -4 9 -15 8 -11 -1 -20 -5 -20 -9z"/>
<path d="M160 1571 c0 -10 26 -9 36 2 4 4 -2 7 -14 7 -12 0 -22 -4 -22 -9z"/>
<path d="M830 1558 c0 -21 1 -21 34 -8 18 6 26 6 26 -1 0 -6 5 -7 11 -4 20 13
3 28 -34 29 -29 1 -37 -3 -37 -16z"/>
<path d="M791 1554 c0 -11 3 -14 6 -6 3 7 2 16 -1 19 -3 4 -6 -2 -5 -13z"/>
<path d="M700 1549 c0 -5 5 -7 11 -3 6 3 15 0 20 -7 7 -11 9 -10 9 4 0 10 -8
17 -20 17 -11 0 -20 -5 -20 -11z"/>
<path d="M641 1534 c0 -11 3 -14 6 -6 3 7 2 16 -1 19 -3 4 -6 -2 -5 -13z"/>
<path d="M141 1524 c0 -11 3 -14 6 -6 3 7 2 16 -1 19 -3 4 -6 -2 -5 -13z"/>
<path d="M165 1519 c-4 -6 -4 -13 -1 -16 3 -4 6 -1 6 6 0 7 4 10 9 6 5 -3 12
-1 16 5 3 5 -1 10 -9 10 -8 0 -18 -5 -21 -11z"/>
<path d="M878 1523 c7 -3 16 -2 19 1 4 3 -2 6 -13 5 -11 0 -14 -3 -6 -6z"/>
<path d="M640 1501 c0 -5 9 -7 20 -4 11 3 20 7 20 9 0 2 -9 4 -20 4 -11 0 -20
-4 -20 -9z"/>
<path d="M941 1494 c0 -11 3 -14 6 -6 3 7 2 16 -1 19 -3 4 -6 -2 -5 -13z"/>
<path d="M830 1482 c0 -10 8 -13 30 -10 17 3 30 1 30 -4 0 -5 5 -6 11 -3 20
13 3 27 -34 30 -27 1 -37 -2 -37 -13z"/>
<path d="M50 1480 c0 -6 7 -10 15 -10 19 0 19 6 0 14 -8 3 -15 1 -15 -4z"/>
<path d="M768 1483 c6 -2 18 -2 25 0 6 3 1 5 -13 5 -14 0 -19 -2 -12 -5z"/>
<path d="M1270 1200 l0 -290 100 -1 c131 -2 124 0 128 -29 2 -14 8 -30 12 -35
5 -6 5 -17 0 -25 -9 -14 -9 -14 -23 55 -3 11 -5 1 -6 -22 0 -24 -6 -43 -12
-43 -5 0 -7 5 -3 12 4 7 3 8 -4 4 -7 -4 -12 -11 -12 -15 0 -10 180 -33 235
-30 59 3 299 -23 306 -33 3 -5 57 -10 120 -12 124 -5 249 -14 289 -22 15 -3
21 -2 15 4 -11 9 -208 33 -309 36 -73 3 -77 11 -70 128 4 73 3 81 -10 68 -12
-12 -13 -31 -7 -105 5 -49 7 -92 4 -95 -2 -2 -12 1 -22 7 -10 7 -65 17 -122
23 -57 6 -114 18 -126 26 -26 16 -37 18 -28 4 3 -5 -1 -10 -9 -10 -10 0 -16 9
-16 23 0 20 -5 22 -68 24 -83 3 -117 14 -125 43 -5 21 -4 21 68 15 l74 -7 3
296 3 296 -192 0 -193 0 0 -290z m75 252 c-3 -3 -11 0 -18 7 -9 10 -8 11 6 5
10 -3 15 -9 12 -12z m257 12 c14 -4 18 -16 17 -59 -1 -37 -5 -52 -13 -48 -7 5
-7 2 1 -8 8 -10 11 -75 11 -211 l-1 -198 -157 0 -158 0 -1 88 c-1 80 1 91 21
108 l22 19 -18 -28 c-10 -16 -15 -31 -12 -35 3 -3 6 0 6 6 0 7 6 12 13 12 8 0
14 6 15 13 1 6 4 32 7 57 11 97 11 108 -2 103 -7 -3 -13 -13 -13 -23 0 -10 -7
-23 -15 -30 -8 -7 -15 -18 -15 -26 0 -7 -5 -16 -11 -20 -14 -8 -4 27 22 79 10
20 16 37 13 37 -3 0 4 12 16 27 l21 27 -26 13 c-32 17 -32 27 0 19 30 -8 31
-5 5 17 -19 16 -20 15 -30 -4 -8 -15 -8 -24 -1 -33 9 -10 6 -20 -9 -37 -10
-13 -19 -19 -20 -12 0 6 5 15 10 18 7 4 8 11 1 18 -5 7 -8 29 -8 50 1 37 1 37
37 31 47 -9 100 -36 129 -68 13 -14 29 -23 35 -19 6 3 8 3 4 -1 -3 -4 2 -26
13 -49 24 -55 25 -149 0 -203 -19 -42 -101 -120 -110 -106 -3 5 -17 5 -31 2
l-25 -7 29 -12 c21 -9 32 -9 42 0 8 6 14 8 14 5 0 -4 10 2 22 14 12 11 25 20
29 20 5 0 23 21 41 48 30 43 33 53 33 127 0 55 -5 90 -17 112 -18 37 -18 61 2
73 7 4 14 20 16 34 3 26 2 26 -21 8 -15 -11 -22 -23 -19 -34 4 -13 0 -18 -15
-18 -12 0 -21 4 -21 10 0 14 -51 58 -84 72 l-30 12 24 7 c29 8 187 10 212 3z
m35 -386 c-1 -73 -3 -14 -3 132 0 146 2 205 3 133 2 -73 2 -193 0 -265z m-308
83 c-31 -26 -49 -27 -21 -1 13 13 19 27 15 38 -5 16 -5 16 12 0 18 -16 17 -18
-6 -37z m224 -238 c-45 -2 -122 -2 -170 0 -48 1 -11 3 82 3 94 0 133 -2 88 -3z
m37 -105 c0 -18 -2 -20 -9 -8 -6 8 -7 18 -5 22 9 14 14 9 14 -14z m-40 2 c0
-5 -7 -10 -15 -10 -8 0 -15 5 -15 10 0 6 7 10 15 10 8 0 15 -4 15 -10z m90
-10 c0 -11 -6 -17 -17 -16 -23 4 -25 32 -2 33 12 1 19 -5 19 -17z"/>
<path d="M1381 1343 c-35 -36 -39 -55 -5 -25 11 9 28 22 38 27 18 10 24 28 9
31 -4 1 -23 -14 -42 -33z"/>
<path d="M1422 1329 c-30 -11 -28 -23 3 -15 19 5 25 2 25 -9 0 -9 7 -15 16
-13 9 2 18 -5 20 -14 2 -10 5 -25 7 -33 5 -25 16 -28 13 -3 -7 63 -44 102 -84
87z"/>
<path d="M1425 1297 c-6 -15 -10 -16 -16 -5 -6 9 -9 6 -9 -10 0 -14 -4 -21
-11 -16 -8 5 -8 1 0 -14 15 -28 14 -35 -5 -28 -13 5 -15 2 -9 -21 4 -16 8 -33
8 -39 0 -6 11 -9 25 -6 17 3 23 1 18 -7 -4 -6 -13 -11 -20 -11 -7 0 -25 -11
-40 -25 -14 -13 -26 -21 -26 -17 0 3 -8 -4 -17 -18 -12 -17 -13 -25 -5 -28 7
-2 9 -9 5 -15 -3 -7 -3 -9 2 -5 4 4 15 3 22 -4 11 -9 16 -9 23 1 6 10 9 11 15
1 6 -9 13 -7 25 10 17 22 47 20 34 -2 -5 -7 -2 -8 5 -3 17 10 51 85 50 110 0
17 -2 16 -10 -5 -6 -14 -12 -33 -14 -42 -7 -33 -22 -52 -30 -38 -4 7 -2 16 6
21 11 7 11 9 1 9 -7 0 -10 5 -7 10 3 6 1 10 -5 10 -7 0 -10 -7 -6 -15 6 -17
-9 -21 -19 -5 -9 14 -54 -21 -55 -43 0 -15 -2 -16 -15 -5 -12 11 -11 16 9 33
56 48 68 55 78 49 7 -4 8 -3 4 4 -4 7 -3 12 1 12 5 0 18 6 28 14 18 13 17 13
-6 12 -13 -1 -32 2 -41 6 -20 10 -24 28 -7 28 5 0 7 -6 3 -12 -5 -10 -3 -10 7
0 9 9 10 15 3 20 -6 4 -13 17 -16 30 -5 17 -2 22 13 22 10 0 19 -6 19 -14 0
-8 5 -18 12 -22 8 -5 9 -2 5 9 -3 10 -2 17 3 17 6 0 10 5 10 12 0 6 -3 8 -7 4
-4 -3 -12 6 -19 21 -10 25 -12 26 -19 10z m-24 -230 c-6 -8 -8 -17 -4 -21 4
-4 -1 -4 -11 0 -18 7 -18 8 0 21 23 17 30 17 15 0z"/>
<path d="M1471 1201 c-10 -18 -9 -21 9 -21 22 0 25 7 11 29 -7 11 -11 9 -20
-8z"/>
<path d="M1325 1000 c-3 -5 -1 -10 4 -10 6 0 11 5 11 10 0 6 -2 10 -4 10 -3 0
-8 -4 -11 -10z"/>
<path d="M91 1476 c12 -10 59 -15 59 -6 0 5 -14 10 -32 10 -17 0 -29 -2 -27
-4z"/>
<path d="M641 1468 c-1 -26 10 -48 25 -48 21 0 17 20 -3 21 -11 0 -13 3 -5 6
6 2 12 9 12 14 0 6 -4 8 -9 5 -5 -4 -12 0 -14 6 -4 8 -6 7 -6 -4z"/>
<path d="M175 1460 c3 -5 10 -10 16 -10 5 0 9 5 9 10 0 6 -7 10 -16 10 -8 0
-12 -4 -9 -10z"/>
<path d="M941 1438 c-1 -16 4 -28 9 -28 12 0 12 8 0 35 -8 18 -9 17 -9 -7z"/>
<path d="M878 1443 c7 -3 16 -2 19 1 4 3 -2 6 -13 5 -11 0 -14 -3 -6 -6z"/>
<path d="M2458 1433 l-58 -4 0 -110 0 -110 78 3 77 3 3 113 c3 111 3 112 -20
110 -13 -1 -49 -3 -80 -5z m84 -110 l-3 -93 -65 0 -64 0 0 29 c0 24 4 29 20
28 25 -2 27 -17 3 -17 -15 0 -16 -2 -3 -10 23 -15 30 -12 30 12 0 21 0 21 16
2 8 -10 13 -14 10 -7 -4 7 3 13 16 16 20 4 20 4 -4 6 -15 0 -30 6 -33 11 -3 6
-18 7 -32 4 -25 -7 -26 -6 -20 32 4 21 7 49 7 61 0 20 6 22 58 25 31 2 59 1
62 -2 3 -3 4 -47 2 -97z"/>
<path d="M2447 1376 c-4 -10 -5 -21 -2 -24 9 -9 17 6 13 25 -3 17 -4 17 -11
-1z"/>
<path d="M2490 1366 c0 -9 5 -16 10 -16 6 0 10 4 10 9 0 6 -4 13 -10 16 -5 3
-10 -1 -10 -9z"/>
<path d="M2445 1330 c3 -5 8 -10 11 -10 2 0 4 5 4 10 0 6 -5 10 -11 10 -5 0
-7 -4 -4 -10z"/>
<path d="M2490 1325 c0 -8 2 -15 4 -15 2 0 6 7 10 15 3 8 1 15 -4 15 -6 0 -10
-7 -10 -15z"/>
<path d="M2570 1325 l0 -115 80 0 80 0 1 58 c0 31 4 83 8 115 l7 57 -88 0 -88
0 0 -115z m92 81 c-3 -17 -2 -18 12 -7 9 7 13 17 10 22 -8 14 12 11 23 -3 6
-7 11 -52 11 -100 l1 -88 -70 0 -69 0 0 33 c0 24 10 45 34 74 21 23 34 49 33
63 -1 21 -3 21 -29 -10 -15 -18 -25 -36 -23 -40 2 -3 0 -12 -6 -20 -6 -10 -9
4 -9 43 l0 58 43 -3 c35 -3 41 -6 39 -22z"/>
<path d="M2676 1373 c-3 -3 -3 -16 0 -29 6 -22 -21 -73 -38 -74 -10 0 3 33 16
42 6 4 7 10 4 14 -11 11 -68 -36 -68 -56 0 -16 8 -18 55 -18 54 1 92 18 40 18
l-26 0 20 28 c28 39 35 69 17 75 -8 3 -17 3 -20 0z"/>
<path d="M171 1403 c0 -13 2 -14 6 -4 5 11 7 11 14 0 7 -11 9 -10 9 4 0 9 -7
17 -15 17 -8 0 -15 -8 -14 -17z"/>
<path d="M830 1405 c0 -19 9 -23 42 -16 46 10 45 27 -2 27 -24 0 -40 -4 -40
-11z"/>
<path d="M2199 1416 c-2 -2 -121 -7 -264 -11 -143 -3 -263 -9 -266 -11 -4 -2
-8 -88 -9 -191 0 -103 1 -185 4 -182 3 2 6 65 7 139 1 74 4 153 7 175 4 39 5
40 46 40 22 0 150 4 282 8 l241 9 7 -139 c8 -157 6 -246 -5 -264 -5 -9 -40
-11 -141 -6 -208 10 -318 19 -314 26 6 10 -106 11 -123 1 -13 -7 -11 -9 9 -14
30 -6 581 -38 585 -34 1 2 5 105 9 231 l7 227 -39 0 c-21 0 -41 -2 -43 -4z"/>
<path d="M700 1401 c0 -10 26 -9 36 2 4 4 -2 7 -14 7 -12 0 -22 -4 -22 -9z"/>
<path d="M760 1401 c0 -5 9 -7 20 -4 11 3 20 7 20 9 0 2 -9 4 -20 4 -11 0 -20
-4 -20 -9z"/>
<path d="M655 1391 c-3 -5 -1 -12 5 -16 5 -3 10 1 10 9 0 18 -6 21 -15 7z"/>
<path d="M951 1384 c0 -11 3 -14 6 -6 3 7 2 16 -1 19 -3 4 -6 -2 -5 -13z"/>
<path d="M1027 1384 c-8 -13 -8 -412 0 -471 4 -28 11 -43 20 -43 9 0 11 5 6
13 -4 6 -9 41 -10 77 -5 156 -3 261 3 272 4 7 3 8 -4 4 -14 -8 -15 22 -4 74 9
37 1 92 -11 74z"/>
<path d="M60 1370 c0 -6 7 -10 15 -10 8 0 15 2 15 4 0 2 -7 6 -15 10 -8 3 -15
1 -15 -4z"/>
<path d="M138 1363 c7 -3 16 -2 19 1 4 3 -2 6 -13 5 -11 0 -14 -3 -6 -6z"/>
<path d="M853 1363 c9 -2 25 -2 35 0 9 3 1 5 -18 5 -19 0 -27 -2 -17 -5z"/>
<path d="M170 1351 c0 -5 9 -7 20 -4 11 3 20 7 20 9 0 2 -9 4 -20 4 -11 0 -20
-4 -20 -9z"/>
<path d="M650 1356 c0 -2 7 -6 15 -10 8 -3 15 -1 15 4 0 6 -7 10 -15 10 -8 0
-15 -2 -15 -4z"/>
<path d="M949 1344 c-7 -112 12 -498 21 -419 1 11 2 24 1 29 -1 5 -4 95 -8
200 -3 105 -7 193 -9 195 -2 2 -4 0 -5 -5z"/>
<path d="M840 1326 c0 -11 9 -16 26 -16 31 0 28 23 -4 28 -15 2 -22 -2 -22
-12z"/>
<path d="M897 1320 c3 -11 7 -20 9 -20 2 0 4 9 4 20 0 11 -4 20 -9 20 -5 0 -7
-9 -4 -20z"/>
<path d="M661 1314 c0 -11 3 -14 6 -6 3 7 2 16 -1 19 -3 4 -6 -2 -5 -13z"/>
<path d="M716 1315 c4 -8 7 -15 9 -15 2 0 5 7 9 15 3 9 0 15 -9 15 -9 0 -12
-6 -9 -15z"/>
<path d="M1780 1315 c0 -2 20 -10 45 -16 25 -6 48 -15 51 -20 7 -12 -3 -11
-58 6 -58 17 -61 12 -10 -14 36 -18 82 -15 82 6 0 14 -44 37 -77 40 -18 2 -33
1 -33 -2z"/>
<path d="M171 1294 c0 -11 3 -14 6 -6 3 7 2 16 -1 19 -3 4 -6 -2 -5 -13z"/>
<path d="M190 1296 c0 -9 5 -16 10 -16 6 0 10 4 10 9 0 6 -4 13 -10 16 -5 3
-10 -1 -10 -9z"/>
<path d="M493 1275 c0 -22 2 -30 4 -17 2 12 2 30 0 40 -3 9 -5 -1 -4 -23z"/>
<path d="M2150 1296 c0 -2 8 -10 18 -17 15 -13 16 -12 3 4 -13 16 -21 21 -21
13z"/>
<path d="M650 1280 c0 -5 7 -10 16 -10 8 0 12 5 9 10 -3 6 -10 10 -16 10 -5 0
-9 -4 -9 -10z"/>
<path d="M868 1283 c7 -3 16 -2 19 1 4 3 -2 6 -13 5 -11 0 -14 -3 -6 -6z"/>
<path d="M68 1263 c7 -3 16 -2 19 1 4 3 -2 6 -13 5 -11 0 -14 -3 -6 -6z"/>
<path d="M858 1253 c12 -2 30 -2 40 0 9 3 -1 5 -23 4 -22 0 -30 -2 -17 -4z"/>
<path d="M634 1229 c-5 -9 1 -10 20 -5 15 4 26 2 26 -4 0 -5 -11 -10 -25 -10
-14 0 -25 -4 -25 -10 0 -9 13 -14 31 -12 4 1 63 2 133 3 71 0 129 5 132 11 4
5 -2 17 -11 26 -15 14 -17 15 -13 2 5 -13 -4 -16 -40 -18 -42 -2 -44 -1 -26
13 17 13 8 14 -88 15 -70 0 -109 -4 -114 -11z m143 -5 c-3 -3 -12 -4 -19 -1
-8 3 -5 6 6 6 11 1 17 -2 13 -5z"/>
<path d="M155 1211 c77 -3 146 -10 153 -14 8 -5 12 -3 12 7 0 14 -20 16 -152
14 l-153 -2 140 -5z"/>
<path d="M1053 1175 c0 -27 2 -38 4 -22 2 15 2 37 0 50 -2 12 -4 0 -4 -28z"/>
<path d="M140 1190 c-122 -4 -135 -7 -138 -24 -3 -14 1 -17 13 -12 9 3 112 7
228 8 117 1 171 4 120 5 -76 3 -91 6 -86 18 3 8 4 14 2 13 -2 -1 -65 -5 -139
-8z m-3 -16 c-3 -3 -12 -4 -19 -1 -8 3 -5 6 6 6 11 1 17 -2 13 -5z"/>
<path d="M388 1193 c6 -2 18 -2 25 0 6 3 1 5 -13 5 -14 0 -19 -2 -12 -5z"/>
<path d="M1778 1193 c6 -2 18 -2 25 0 6 3 1 5 -13 5 -14 0 -19 -2 -12 -5z"/>
<path d="M2569 1140 c0 -30 -1 -80 -2 -110 l-2 -55 83 -3 82 -3 0 113 0 113
-80 0 -80 0 -1 -55z m90 13 l11 -28 -5 28 c-5 25 -3 27 25 27 31 0 31 -1 27
-42 -4 -39 -12 -68 -25 -92 -3 -5 0 -6 5 -3 7 5 11 -6 11 -28 0 -27 -4 -35
-18 -35 -30 0 -50 11 -43 24 3 6 1 6 -8 -1 -18 -17 -49 -16 -49 1 0 8 -3 21
-6 29 -7 20 35 30 53 11 13 -12 11 -14 -14 -15 l-28 -2 28 -4 c34 -5 66 21 39
33 -9 4 -20 8 -24 8 -3 1 -10 4 -13 8 -4 4 -16 3 -26 -3 -18 -9 -19 -5 -19 51
l0 60 34 0 c28 0 36 -5 45 -27z"/>
<path d="M2600 1137 c1 -21 25 -46 38 -38 9 5 5 14 -13 29 -15 13 -25 17 -25
9z"/>
<path d="M2666 1105 c-9 -24 5 -41 16 -20 7 11 7 20 0 27 -6 6 -12 3 -16 -7z"/>
<path d="M2746 1148 c-3 -29 -6 -81 -6 -114 l0 -61 46 -7 c26 -3 66 -6 90 -6
l44 0 0 104 c0 66 4 107 11 112 23 14 -17 24 -97 24 l-81 0 -7 -52z m159 -30
c-9 -77 -10 -79 -38 -69 -12 4 -37 6 -56 4 -43 -4 -51 7 -51 75 l0 52 76 0 76
0 -7 -62z m-55 -90 c0 -6 11 -8 25 -6 22 5 25 2 25 -23 0 -21 -5 -29 -17 -29
-14 0 -15 2 -4 9 19 12 2 19 -47 18 -27 0 -47 5 -53 14 -8 10 -9 8 -4 -8 4
-16 2 -23 -8 -23 -9 0 -12 9 -9 29 4 26 7 29 48 29 25 1 44 -3 44 -10z"/>
<path d="M2805 1160 c-4 -6 3 -10 14 -10 25 0 27 6 6 13 -8 4 -17 2 -20 -3z"/>
<path d="M2850 1161 c0 -11 26 -22 34 -14 3 4 6 11 6 17 0 6 -5 4 -10 -4 -6
-10 -10 -11 -10 -2 0 6 -4 12 -10 12 -5 0 -10 -4 -10 -9z"/>
<path d="M2783 1119 c-14 -14 -6 -39 13 -39 8 0 14 10 14 25 0 27 -9 32 -27
14z"/>
<path d="M871 1164 c0 -11 3 -14 6 -6 3 7 2 16 -1 19 -3 4 -6 -2 -5 -13z"/>
<path d="M2 958 c-1 -142 2 -189 12 -197 9 -8 58 -3 177 16 90 15 154 29 141
31 -13 2 -86 -6 -163 -19 -77 -12 -141 -20 -143 -18 -8 8 -11 138 -3 145 10
10 9 48 -3 60 -5 5 -11 45 -12 89 -2 44 -5 -4 -6 -107z"/>
<path d="M180 1128 c0 -4 7 -8 15 -8 8 0 15 4 15 8 0 5 -7 9 -15 9 -8 0 -15
-4 -15 -9z"/>
<path d="M668 1133 c7 -3 16 -2 19 1 4 3 -2 6 -13 5 -11 0 -14 -3 -6 -6z"/>
<path d="M1795 1132 c-4 -4 -10 -7 -13 -8 -4 0 -20 -6 -35 -12 -16 -7 -33 -12
-38 -12 -5 0 -9 -5 -9 -11 0 -6 6 -9 14 -6 8 3 31 9 50 13 20 3 36 9 36 13 0
4 11 8 25 9 34 3 32 -16 -2 -24 -93 -21 -127 -32 -103 -34 80 -7 162 32 132
62 -12 12 -49 18 -57 10z"/>
<path d="M888 1123 c7 -3 16 -2 19 1 4 3 -2 6 -13 5 -11 0 -14 -3 -6 -6z"/>
<path d="M2006 1101 c-3 -5 1 -14 8 -20 16 -13 32 2 21 19 -8 12 -22 13 -29 1z
m24 -11 c0 -5 -2 -10 -4 -10 -3 0 -8 5 -11 10 -3 6 -1 10 4 10 6 0 11 -4 11
-10z"/>
<path d="M860 1092 c23 -4 24 -5 5 -13 -16 -6 -13 -8 15 -8 23 -1 30 2 21 8
-11 7 -11 9 0 14 8 3 -4 5 -26 5 -27 -1 -32 -2 -15 -6z"/>
<path d="M200 1070 c0 -5 5 -10 10 -10 6 0 10 5 10 10 0 6 -4 10 -10 10 -5 0
-10 -4 -10 -10z"/>
<path d="M670 1060 c0 -5 5 -10 11 -10 5 0 7 5 4 10 -3 6 -8 10 -11 10 -2 0
-4 -4 -4 -10z"/>
<path d="M2230 1048 c0 -42 -12 -49 -66 -39 -27 4 -103 9 -168 10 -65 1 -122
4 -126 6 -4 2 -20 1 -36 -4 -30 -8 11 -12 289 -27 l117 -6 0 41 c0 22 -2 41
-5 41 -3 0 -5 -10 -5 -22z"/>
<path d="M157 1054 c-4 -4 -7 -14 -7 -23 0 -11 3 -12 11 -4 6 6 10 16 7 23 -2
6 -7 8 -11 4z"/>
<path d="M850 1050 c0 -5 5 -10 10 -10 6 0 10 5 10 10 0 6 -4 10 -10 10 -5 0
-10 -4 -10 -10z"/>
<path d="M70 1040 c0 -5 7 -7 15 -4 8 4 15 8 15 10 0 2 -7 4 -15 4 -8 0 -15
-4 -15 -10z"/>
<path d="M110 1013 c0 -20 3 -33 6 -30 11 10 13 67 3 67 -5 0 -9 -16 -9 -37z"/>
<path d="M195 1020 c-3 -5 1 -10 9 -10 9 0 16 5 16 10 0 6 -4 10 -9 10 -6 0
-13 -4 -16 -10z"/>
<path d="M344 1018 c-4 -6 -3 -8 4 -4 5 3 13 0 15 -6 3 -8 6 -6 6 5 1 19 -14
23 -25 5z"/>
<path d="M846 1005 c4 -8 10 -15 15 -15 4 0 6 7 3 15 -4 8 -10 15 -15 15 -4 0
-6 -7 -3 -15z"/>
<path d="M880 1008 c0 -10 6 -18 14 -18 19 0 29 17 16 25 -5 3 -10 0 -10 -7 0
-9 -3 -9 -10 2 -8 13 -10 12 -10 -2z"/>
<path d="M422 999 c-21 -6 -37 -20 -45 -37 -6 -15 -16 -30 -21 -33 -13 -10 2
-107 24 -154 10 -22 33 -98 50 -169 40 -158 37 -181 -31 -332 -34 -75 -49
-119 -44 -133 11 -37 54 -61 105 -61 65 0 110 10 110 25 0 9 -15 10 -61 2 -67
-10 -102 1 -121 36 -12 23 17 97 38 97 13 0 51 87 46 104 -2 5 1 12 5 15 13 9
32 81 22 81 -5 0 -9 15 -9 34 0 29 -31 174 -56 265 -6 21 -5 22 13 13 32 -18
76 -186 72 -280 -3 -68 -49 -217 -73 -234 -16 -11 14 -68 40 -74 12 -3 25 -12
28 -20 3 -8 19 -14 37 -14 22 0 32 -5 36 -20 4 -14 14 -20 34 -20 22 0 29 -5
29 -20 0 -11 5 -20 11 -20 6 0 25 -11 43 -25 35 -27 118 -36 132 -14 5 9 -6
10 -40 5 -35 -6 -50 -4 -61 8 -8 8 -26 23 -39 33 -13 11 -26 28 -28 39 -3 14
-12 19 -36 19 -19 0 -32 5 -32 12 0 7 -11 13 -24 13 -51 0 -65 56 -24 96 16
16 38 39 50 52 18 18 102 72 113 72 1 0 -1 -19 -5 -43 -18 -96 -20 -118 -10
-112 5 3 10 18 10 33 0 15 6 60 14 100 7 39 11 72 7 72 -3 0 1 5 9 10 13 8 13
10 -2 10 -10 0 -19 -11 -23 -28 -4 -20 -15 -32 -39 -40 -50 -19 -166 -128
-166 -158 0 -32 -17 -31 -32 2 -10 21 -9 27 2 34 25 14 214 166 229 183 17 21
48 22 67 2 9 -8 11 -15 6 -15 -6 0 -8 -8 -6 -17 3 -10 1 -47 -5 -83 -5 -36 -6
-69 -2 -73 4 -4 13 32 20 80 18 125 16 121 66 129 25 3 52 15 62 27 18 20 18
20 -7 13 -43 -12 -140 -24 -248 -32 -81 -5 -102 -10 -98 -20 3 -8 2 -14 -3
-14 -5 0 -11 9 -14 20 -7 29 15 38 116 46 l86 7 17 75 c15 69 15 81 1 154 -15
77 -71 204 -106 241 -17 17 -134 47 -181 46 -14 0 -40 -5 -58 -10z m184 -50
c6 -5 14 -32 18 -59 4 -27 11 -52 15 -55 5 -3 15 -37 21 -75 11 -65 10 -76
-11 -135 -13 -38 -27 -62 -33 -58 -6 3 -8 3 -4 -1 11 -13 -12 -64 -33 -69 -15
-4 -19 0 -19 22 0 48 -30 144 -73 231 -54 109 -52 104 -37 95 9 -5 11 -4 6 4
-4 6 -12 9 -17 6 -5 -4 -9 1 -9 9 0 9 -3 16 -7 16 -5 0 -16 14 -25 31 -10 16
-13 27 -6 23 6 -4 16 0 22 8 6 8 18 18 26 21 20 9 152 -2 166 -14z m50 -24
c-3 -8 5 -27 18 -42 28 -35 38 -61 24 -65 -7 -3 -7 -16 1 -43 14 -52 13 -179
-3 -230 -8 -29 -17 -40 -31 -40 -11 -1 -26 -4 -33 -8 -19 -12 -15 4 20 79 33
72 42 150 26 222 -5 21 -4 31 2 27 6 -3 10 -1 10 4 0 6 -8 11 -18 11 -10 0
-19 6 -20 13 0 6 -4 29 -8 50 -5 26 -3 37 6 37 7 0 10 -7 6 -15z m-209 -141
c-8 -8 -42 -7 -43 1 0 6 -6 23 -12 38 -7 16 -12 38 -12 50 0 16 9 7 35 -33 19
-29 34 -55 32 -56z m287 -20 c8 -21 8 -24 -3 -24 -5 0 -11 9 -14 20 -6 24 8
27 17 4z m14 -119 c-3 -39 -9 -78 -14 -86 -5 -8 -9 -17 -9 -21 0 -3 -4 -10 -8
-15 -5 -4 -5 10 -1 32 4 22 8 48 8 58 0 9 3 17 7 17 3 0 3 19 -2 43 -11 57
-11 57 7 50 14 -5 16 -18 12 -78z m-201 -137 c-3 -8 -6 -5 -6 6 -1 11 2 17 5
13 3 -3 4 -12 1 -19z m7 -116 c5 10 12 16 16 13 4 -3 10 1 13 8 3 8 23 14 49
15 l43 2 -45 -41 c-25 -22 -54 -49 -65 -60 -12 -10 -27 -19 -34 -19 -8 0 -20
-8 -28 -17 -14 -17 -14 -17 -8 2 4 11 11 40 16 65 14 68 21 80 29 45 6 -24 8
-27 14 -13z m-133 -125 c-10 -9 -11 -8 -5 6 3 10 9 15 12 12 3 -3 0 -11 -7
-18z"/>
<path d="M471 896 c1 -37 6 -69 11 -72 5 -3 8 -2 7 3 -3 20 2 27 11 13 6 -9
10 -10 10 -3 0 6 -4 15 -10 18 -5 3 -10 26 -10 50 0 24 -5 47 -11 50 -7 5 -9
-15 -8 -59z"/>
<path d="M586 905 c-3 -8 -1 -15 4 -15 6 0 10 7 10 15 0 8 -2 15 -4 15 -2 0
-6 -7 -10 -15z"/>
<path d="M589 863 c-1 -10 -1 -27 0 -38 2 -17 0 -17 -8 -5 -7 10 -11 11 -11 3
0 -7 -12 -20 -27 -28 -16 -9 -19 -13 -8 -10 11 4 32 9 47 12 24 5 27 10 26 40
-1 35 -17 57 -19 26z"/>
<path d="M606 758 c4 -7 -5 -8 -27 -4 -33 7 -33 6 -10 -7 18 -11 30 -12 52 -4
32 12 32 16 0 22 -13 2 -19 0 -15 -7z"/>
<path d="M532 744 c10 -10 20 -16 22 -13 3 3 -5 11 -17 18 -21 13 -21 12 -5
-5z"/>
<path d="M610 605 c0 -8 5 -15 10 -15 6 0 10 7 10 15 0 8 -4 15 -10 15 -5 0
-10 -7 -10 -15z"/>
<path d="M591 394 c0 -11 3 -14 6 -6 3 7 2 16 -1 19 -3 4 -6 -2 -5 -13z"/>
<path d="M850 935 c0 -9 6 -12 15 -9 8 4 15 7 15 9 0 2 -7 5 -15 9 -9 3 -15 0
-15 -9z"/>
<path d="M905 941 c-3 -5 -1 -12 5 -16 5 -3 10 1 10 9 0 18 -6 21 -15 7z"/>
<path d="M1062 925 c0 -16 2 -22 5 -12 2 9 2 23 0 30 -3 6 -5 -1 -5 -18z"/>
<path d="M2738 837 l-3 -116 65 -6 c36 -3 75 -7 87 -8 22 -2 23 1 26 116 l4
117 -57 0 c-32 0 -71 3 -88 6 l-31 6 -3 -115z m62 82 c12 -17 57 -20 73 -5 8
9 18 16 21 16 3 0 5 -48 4 -106 l-1 -106 -45 6 c-25 3 -58 6 -74 6 l-29 0 5
88 c3 48 6 89 7 92 1 3 1 8 1 11 -1 9 32 7 38 -2z m70 7 c0 -9 -40 -13 -46 -5
-3 5 6 9 20 9 14 0 26 -2 26 -4z"/>
<path d="M2795 864 c-18 -14 -18 -14 2 -14 23 0 39 15 26 23 -5 3 -17 -1 -28
-9z"/>
<path d="M2800 770 c23 -7 23 -8 3 -9 -46 -2 -28 -16 22 -17 51 -1 52 -1 37
17 -11 13 -29 19 -52 18 -32 -1 -33 -2 -10 -9z"/>
<path d="M150 895 c0 -9 6 -12 15 -9 8 4 12 10 9 15 -8 14 -24 10 -24 -6z"/>
<path d="M918 875 c-1 -2 -29 -6 -60 -9 -55 -6 -118 -24 -88 -26 13 0 13 -1 0
-11 -11 -8 -8 -9 15 -5 17 3 60 11 98 17 37 6 67 15 67 19 0 8 -26 21 -32 15z
m-15 -22 c-7 -2 -19 -2 -25 0 -7 3 -2 5 12 5 14 0 19 -2 13 -5z m-60 -10 c-7
-2 -21 -2 -30 0 -10 3 -4 5 12 5 17 0 24 -2 18 -5z"/>
<path d="M148 843 c6 -2 18 -2 25 0 6 3 1 5 -13 5 -14 0 -19 -2 -12 -5z"/>
<path d="M1021 834 c-41 -7 -78 -11 -82 -8 -4 2 -11 -1 -14 -7 -4 -6 -18 -8
-30 -5 -13 3 -27 2 -30 -4 -3 -6 -17 -7 -30 -4 -12 3 -26 1 -29 -5 -4 -5 -13
-8 -21 -4 -16 5 -21 -12 -7 -21 4 -3 75 8 157 25 82 16 152 29 157 29 4 0 8
-9 8 -20 0 -21 3 -20 -169 -45 -112 -16 -139 -32 -117 -67 6 -10 19 -18 28
-18 28 0 21 -17 -12 -29 -43 -14 -37 -20 13 -11 23 4 83 11 132 16 l90 7 -120
20 c-66 10 -122 21 -124 23 -14 13 29 25 154 44 170 25 185 28 185 39 0 5 -9
11 -20 14 -12 3 -20 14 -20 26 0 24 1 24 -99 5z"/>
<path d="M1408 835 c-3 -4 -39 -10 -148 -26 -41 -6 -79 -16 -85 -21 -6 -6 -1
-7 15 -4 14 3 76 13 138 22 61 9 112 18 112 19 0 5 -28 14 -32 10z"/>
<path d="M175 758 c-132 -22 -150 -26 -143 -34 5 -4 279 41 303 51 23 8 -47 1
-160 -17z"/>
<path d="M2078 773 c6 -2 18 -2 25 0 6 3 1 5 -13 5 -14 0 -19 -2 -12 -5z"/>
<path d="M1348 735 c-180 -34 -248 -51 -248 -64 0 -4 75 -19 168 -34 92 -15
217 -36 277 -46 61 -11 126 -22 145 -25 243 -37 291 -47 310 -66 11 -11 26
-20 33 -21 6 0 26 -3 42 -5 387 -60 373 -59 418 -59 l37 0 0 -102 c0 -57 -2
-103 -4 -103 -2 0 -39 7 -81 16 l-77 16 -64 -44 -64 -43 1 -80 0 -80 14 40 c8
22 15 41 15 42 0 1 14 10 32 19 20 10 43 14 65 11 41 -7 100 -49 115 -83 11
-24 40 -34 35 -12 -1 7 -18 29 -38 50 -20 20 -34 39 -32 42 5 4 -26 14 -100
30 -22 5 -27 4 -21 -6 5 -8 1 -8 -11 2 -10 8 -16 10 -12 4 3 -6 -5 -16 -18
-22 -22 -10 -25 -9 -25 8 0 11 5 20 12 20 6 0 8 3 5 6 -4 4 15 22 41 41 39 29
53 33 82 28 85 -15 122 -16 136 -5 10 9 14 35 14 94 0 75 9 106 31 106 3 0 5
-47 2 -104 -2 -60 0 -107 5 -110 6 -3 13 46 17 124 4 72 11 130 15 130 5 0 10
-9 12 -20 2 -15 7 -10 20 20 l16 40 -21 -12 c-12 -6 -38 -21 -57 -34 l-35 -22
-245 38 c-330 52 -309 47 -303 68 4 17 17 22 260 105 51 18 93 35 93 40 0 4
-16 7 -35 7 -29 0 -653 68 -770 84 -16 3 -109 -11 -207 -29z m241 11 c-6 -5
-318 -65 -364 -70 -22 -2 -2 -2 45 0 105 5 152 10 181 19 12 4 24 3 28 -2 6
-10 273 -53 329 -53 20 0 31 4 27 10 -3 6 2 11 12 11 10 1 0 5 -22 8 -22 4
-44 3 -50 -1 -5 -4 -14 -8 -20 -8 -5 0 -3 5 5 11 11 7 7 9 -20 8 -19 -1 -44 2
-55 7 -11 5 -59 9 -107 9 -49 0 -88 3 -88 6 0 12 154 39 164 29 7 -7 -3 -10
-29 -11 -30 -1 -19 -5 40 -14 44 -8 94 -13 110 -13 26 0 25 2 -15 14 l-45 14
55 -6 c30 -3 84 -7 120 -10 75 -7 94 -18 66 -40 -11 -8 -26 -14 -33 -14 -8 0
-41 -9 -74 -20 -59 -20 -64 -20 -173 -5 -61 9 -149 23 -195 31 -99 17 -94 16
-86 5 9 -15 139 -41 277 -55 120 -13 132 -13 189 5 33 10 70 19 81 19 11 0 22
8 25 20 3 11 10 20 15 20 5 0 6 5 2 11 -4 8 7 9 37 5 24 -3 78 -8 119 -12 41
-3 79 -10 84 -14 9 -9 -55 -40 -83 -40 -9 0 -25 -7 -35 -15 -28 -21 -34 -19
-29 9 6 31 -15 43 -35 20 -16 -17 -16 -17 1 -5 9 8 17 9 17 3 0 -19 -33 -23
-52 -6 -10 10 -21 14 -25 11 -4 -4 2 -14 13 -22 18 -14 18 -14 -8 -15 -14 0
-29 5 -31 10 -3 6 -4 5 -3 -2 2 -8 24 -15 57 -18 l54 -5 -38 -13 c-20 -8 -35
-18 -32 -23 8 -12 24 -14 -300 36 -159 25 -351 54 -425 66 -74 11 -136 22
-138 24 -2 2 39 10 90 19 51 9 140 25 198 35 97 18 179 26 169 17z m111 -26
c0 -5 -7 -7 -15 -4 -8 4 -15 8 -15 10 0 2 7 4 15 4 8 0 15 -4 15 -10z"/>
<path d="M1810 691 c0 -8 84 -21 125 -20 18 0 18 1 -3 9 -31 13 -122 21 -122
11z"/>
<path d="M1998 648 c17 -8 26 -8 34 0 9 9 4 12 -22 11 -33 0 -34 -1 -12 -11z"/>
<path d="M2440 732 l0 -39 110 -11 c60 -6 117 -9 125 -6 10 4 15 19 15 44 0
34 -2 37 -27 36 -16 0 -72 3 -125 8 l-98 8 0 -40z m88 -5 c2 -9 -4 -20 -13
-23 -20 -8 -50 19 -40 36 10 17 49 8 53 -13z m52 -8 c0 -5 -4 -9 -10 -9 -5 0
-10 7 -10 16 0 8 5 12 10 9 6 -3 10 -10 10 -16z m26 6 c-4 -24 -16 -30 -16 -7
0 12 4 22 9 22 5 0 8 -7 7 -15z m21 -27 c-3 -7 -5 -2 -5 12 0 14 2 19 5 13 2
-7 2 -19 0 -25z m46 12 c-3 -11 -7 -20 -9 -20 -2 0 -4 9 -4 20 0 11 4 20 9 20
5 0 7 -9 4 -20z"/>
<path d="M2501 732 c-1 -8 -6 -10 -13 -6 -10 5 -10 4 -1 -6 15 -16 28 -8 20
12 -4 11 -6 11 -6 0z"/>
<path d="M250 739 c-58 -10 -138 -25 -178 -31 -39 -7 -72 -16 -72 -21 0 -5 10
-7 23 -4 12 3 90 18 172 33 83 15 154 31 160 35 5 5 7 9 5 8 -3 0 -52 -9 -110
-20z"/>
<path d="M210 690 c-74 -15 -153 -30 -174 -34 -29 -6 -36 -10 -25 -17 10 -6
10 -9 2 -9 -7 0 -13 -4 -13 -9 0 -5 21 -4 48 1 26 6 56 11 67 13 44 7 270 57
274 60 7 8 -11 25 -27 24 -9 0 -78 -13 -152 -29z m57 -6 c-3 -3 -12 -4 -19 -1
-8 3 -5 6 6 6 11 1 17 -2 13 -5z m-50 -10 c-3 -3 -12 -4 -19 -1 -8 3 -5 6 6 6
11 1 17 -2 13 -5z m-50 -10 c-3 -3 -12 -4 -19 -1 -8 3 -5 6 6 6 11 1 17 -2 13
-5z m-50 -10 c-3 -3 -12 -4 -19 -1 -8 3 -5 6 6 6 11 1 17 -2 13 -5z m-50 -10
c-3 -3 -12 -4 -19 -1 -8 3 -5 6 6 6 11 1 17 -2 13 -5z"/>
<path d="M2700 692 c0 -5 41 -13 91 -17 100 -8 133 -1 42 9 -32 4 -75 9 -95
12 -22 3 -38 2 -38 -4z"/>
<path d="M1081 654 c-1 -7 -31 -14 -71 -18 -38 -3 -101 -9 -140 -12 -87 -8
-94 -27 -7 -23 68 4 66 7 54 -63 -4 -29 -2 -38 9 -38 20 0 17 -23 -6 -43 -28
-24 -25 -37 11 -37 24 0 29 -3 25 -18 -4 -11 2 -22 17 -31 22 -14 22 -13 4 7
-18 20 -18 20 20 26 21 3 47 4 58 3 11 -1 21 3 22 8 2 6 -21 10 -52 10 -31 0
-55 4 -55 10 0 5 7 48 15 95 8 47 15 86 15 88 0 1 17 2 39 2 l38 0 7 -61 c3
-34 6 -77 6 -95 l0 -34 48 2 c43 1 44 2 10 5 -37 4 -38 5 -38 46 l1 42 20 -24
20 -24 21 20 c37 37 -4 83 -42 48 -20 -18 -20 -17 -20 23 0 29 4 40 13 38 6
-3 31 -7 55 -10 52 -8 56 9 5 18 -81 14 -92 18 -96 34 -3 9 -5 12 -6 6z m-111
-87 c0 -24 -5 -34 -15 -34 -10 0 -14 6 -10 14 3 8 5 23 5 34 0 10 5 19 10 19
6 0 10 -15 10 -33z m196 -53 c-5 -13 -10 -14 -18 -6 -6 6 -8 18 -4 28 5 13 10
14 18 6 6 -6 8 -18 4 -28z m-206 -4 c0 -5 -2 -10 -4 -10 -3 0 -8 5 -11 10 -3
6 -1 10 4 10 6 0 11 -4 11 -10z"/>
<path d="M2902 649 c2 -6 -48 -43 -109 -81 -103 -63 -113 -72 -113 -99 0 -16
-7 -46 -15 -66 -8 -19 -15 -38 -15 -42 1 -13 34 55 45 94 13 42 17 46 165 132
36 20 68 36 73 35 16 -5 6 18 -13 28 -15 8 -20 8 -18 -1z"/>
<path d="M1140 640 c8 -5 28 -10 44 -10 39 0 30 6 -19 13 -27 4 -35 3 -25 -3z"/>
<path d="M2720 554 c-164 -95 -193 -114 -156 -100 24 8 326 187 326 192 0 7 0
7 -170 -92z"/>
<path d="M1227 619 c6 -8 13 -30 16 -49 l4 -35 2 40 c2 32 4 36 11 20 8 -18 9
-18 9 -2 1 10 5 16 10 12 5 -3 24 -7 42 -9 17 -2 36 -11 41 -19 5 -9 14 -14
22 -11 10 4 13 -16 14 -93 0 -54 1 -138 1 -188 1 -61 4 -85 11 -75 7 11 12 12
20 4 14 -14 12 -16 -86 -54 -81 -31 -99 -36 -76 -21 11 6 9 15 -7 42 -18 30
-26 32 -22 6 0 -4 -3 -7 -9 -7 -5 0 -10 5 -10 11 0 5 -4 8 -9 4 -5 -3 -16 1
-24 9 -9 9 -19 11 -28 5 -12 -7 -12 -9 1 -9 9 0 5 -6 -10 -17 -14 -10 -33 -16
-44 -15 -25 5 -76 -18 -76 -33 0 -13 -21 -25 -42 -25 -6 0 -5 6 2 15 11 14 10
14 -12 6 -14 -5 -29 -7 -32 -4 -3 3 -12 0 -20 -6 -20 -16 -109 -18 -114 -3 -2
7 -9 9 -14 6 -6 -4 -21 -9 -32 -11 -72 -12 -86 -17 -83 -27 4 -13 57 -21 57
-9 0 5 29 7 65 5 44 -3 65 -1 65 7 0 6 7 11 17 11 12 0 10 -6 -10 -23 -18 -15
-27 -33 -27 -51 0 -29 0 -29 20 -11 19 17 21 17 33 1 9 -12 23 -16 48 -13 34
4 98 37 72 37 -8 0 -12 14 -11 35 1 19 3 35 5 35 9 0 28 -25 29 -37 1 -7 2
-17 3 -23 2 -19 62 -10 144 24 241 98 305 130 292 143 -8 7 -25 13 -39 13 -24
0 -26 3 -26 46 0 38 3 45 18 40 59 -17 546 -126 554 -124 5 2 -55 18 -134 37
-79 18 -210 50 -292 70 l-148 37 1 132 c2 111 0 132 -13 132 -8 0 -20 -8 -26
-17 -10 -16 -10 -15 -5 3 6 23 4 24 -110 40 -42 6 -48 5 -38 -7z m7 -453 c11
4 16 1 16 -12 0 -14 -23 -30 -83 -59 -45 -21 -85 -41 -89 -43 -5 -2 -8 4 -8
13 0 9 -7 29 -15 45 l-16 30 56 0 c30 0 55 4 55 8 0 15 44 30 56 21 6 -5 19
-7 28 -3z m-247 -101 l11 -35 -44 0 c-40 0 -44 2 -44 24 0 17 8 27 28 34 39
15 38 15 49 -23z"/>
<path d="M1130 123 c-66 -31 -53 -42 14 -13 26 11 54 20 62 20 9 0 12 5 9 10
-9 14 -23 12 -85 -17z"/>
<path d="M2955 620 c3 -5 11 -10 16 -10 6 0 7 5 4 10 -3 6 -11 10 -16 10 -6 0
-7 -4 -4 -10z"/>
<path d="M1263 505 c0 -38 2 -53 4 -32 2 20 2 52 0 70 -2 17 -4 1 -4 -38z"/>
<path d="M1480 560 c0 -5 5 -10 11 -10 5 0 7 5 4 10 -3 6 -8 10 -11 10 -2 0
-4 -4 -4 -10z"/>
<path d="M1861 491 c34 -43 74 -71 104 -71 8 0 15 5 15 10 0 6 -13 10 -29 10
-21 0 -41 13 -76 48 l-48 47 34 -44z"/>
<path d="M780 510 c-10 -7 5 -10 53 -10 43 0 66 4 62 10 -8 13 -95 13 -115 0z"/>
<path d="M1940 486 c0 -2 7 -7 16 -10 8 -3 12 -2 9 4 -6 10 -25 14 -25 6z"/>
<path d="M1023 470 c-34 -14 -28 -21 7 -9 17 6 30 13 30 15 0 6 -12 4 -37 -6z"/>
<path d="M1990 460 c0 -5 5 -10 11 -10 5 0 7 5 4 10 -3 6 -8 10 -11 10 -2 0
-4 -4 -4 -10z"/>
<path d="M2220 430 c-12 -8 -10 -10 7 -10 20 0 22 -6 26 -62 l3 -63 2 61 c2
66 -11 91 -38 74z"/>
<path d="M1993 388 c0 -33 1 -36 4 -10 2 17 9 32 14 32 6 0 7 5 4 10 -13 21
-21 9 -22 -32z"/>
<path d="M2172 374 c-2 -66 8 -84 48 -83 23 1 22 2 -7 10 -31 9 -32 11 -36 72
l-3 62 -2 -61z"/>
<path d="M1262 395 c0 -16 2 -22 5 -12 2 9 2 23 0 30 -3 6 -5 -1 -5 -18z"/>
<path d="M835 400 c-7 -12 12 -12 40 0 18 8 17 9 -7 9 -15 1 -30 -3 -33 -9z"/>
<path d="M1435 360 c-3 -5 25 -15 62 -24 38 -9 172 -40 298 -71 127 -30 236
-55 244 -55 29 0 2 11 -60 25 -35 8 -111 26 -169 40 -58 14 -124 30 -148 35
-23 5 -51 14 -61 20 -11 5 -32 10 -46 10 -14 0 -34 4 -44 10 -27 14 -70 20
-76 10z"/>
<path d="M1938 358 c6 -6 18 -8 28 -6 14 3 12 5 -9 10 -19 3 -25 2 -19 -4z"/>
<path d="M2210 360 c0 -5 5 -10 10 -10 6 0 10 5 10 10 0 6 -4 10 -10 10 -5 0
-10 -4 -10 -10z"/>
<path d="M2637 343 c-4 -3 -7 -11 -7 -17 0 -6 5 -5 12 2 6 6 9 14 7 17 -3 3
-9 2 -12 -2z"/>
<path d="M1486 251 c-3 -5 5 -11 19 -13 20 -4 23 -3 14 8 -13 16 -25 18 -33 5z"/>
<path d="M797 226 c-5 -12 -1 -13 24 -4 17 6 40 7 57 1 15 -4 72 -6 127 -3
125 6 74 17 -92 19 -89 2 -112 -1 -116 -13z"/>
<path d="M1210 229 c0 -5 5 -7 10 -4 6 3 10 8 10 11 0 2 -4 4 -10 4 -5 0 -10
-5 -10 -11z"/>
<path d="M1550 228 c0 -5 6 -8 14 -8 8 0 20 -2 28 -3 7 -2 10 -2 5 0 -4 3 -5
8 -3 11 2 4 -7 7 -20 7 -13 0 -24 -3 -24 -7z"/>
<path d="M2060 211 c0 -8 52 -22 58 -16 2 1 -11 7 -27 13 -17 6 -31 7 -31 3z"/>
<path d="M665 200 c3 -5 8 -10 11 -10 2 0 4 5 4 10 0 6 -5 10 -11 10 -5 0 -7
-4 -4 -10z"/>
<path d="M295 193 c-11 -3 -24 -9 -29 -14 -6 -5 -20 -9 -33 -9 -13 0 -23 -5
-23 -11 0 -5 -4 -7 -10 -4 -5 3 -10 2 -10 -3 0 -6 -16 -13 -35 -16 -20 -4 -57
-18 -82 -32 -25 -13 -52 -24 -59 -24 -8 0 -14 -4 -14 -10 0 -6 8 -6 23 0 12 5
87 35 167 65 162 63 190 78 105 58z"/>
<path d="M1628 193 c7 -3 16 -2 19 1 4 3 -2 6 -13 5 -11 0 -14 -3 -6 -6z"/>
<path d="M1878 193 c7 -3 16 -2 19 1 4 3 -2 6 -13 5 -11 0 -14 -3 -6 -6z"/>
<path d="M1580 180 c-13 -8 -13 -10 2 -10 9 0 20 5 23 10 8 13 -5 13 -25 0z"/>
<path d="M2010 186 c0 -2 11 -6 25 -8 13 -3 22 -1 19 3 -5 9 -44 13 -44 5z"/>
<path d="M2158 183 c7 -3 16 -2 19 1 4 3 -2 6 -13 5 -11 0 -14 -3 -6 -6z"/>
<path d="M2618 161 c3 -22 -1 -32 -17 -40 -17 -9 -21 -21 -21 -57 0 -28 4 -43
10 -39 6 3 10 24 10 46 0 21 5 39 10 39 6 0 10 -18 10 -39 0 -22 -4 -43 -10
-46 -17 -11 -11 -21 16 -23 16 -1 23 2 18 9 -4 7 -6 49 -5 95 2 66 -1 84 -12
84 -9 0 -12 -9 -9 -29z"/>
<path d="M1538 173 c7 -3 16 -2 19 1 4 3 -2 6 -13 5 -11 0 -14 -3 -6 -6z"/>
<path d="M2080 170 c8 -5 22 -9 30 -9 10 0 8 3 -5 9 -27 12 -43 12 -25 0z"/>
<path d="M171 105 c-85 -36 -159 -69 -165 -75 -13 -13 29 2 194 69 111 46 162
72 135 70 -6 0 -79 -29 -164 -64z"/>
<path d="M656 154 c-4 -10 -14 -14 -26 -11 -11 3 -20 2 -20 -3 0 -4 14 -10 30
-12 26 -4 30 -1 30 19 0 27 -5 30 -14 7z"/>
<path d="M444 134 c-18 -14 -18 -15 4 -4 12 6 22 13 22 15 0 8 -5 6 -26 -11z"/>
<path d="M1858 143 c6 -2 18 -2 25 0 6 3 1 5 -13 5 -14 0 -19 -2 -12 -5z"/>
<path d="M2188 143 c7 -3 16 -2 19 1 4 3 -2 6 -13 5 -11 0 -14 -3 -6 -6z"/>
<path d="M1480 131 c0 -4 30 -8 67 -9 36 -1 64 0 61 4 -9 8 -128 14 -128 5z"/>
<path d="M1695 129 c-11 -17 1 -21 15 -4 8 9 8 15 2 15 -6 0 -14 -5 -17 -11z"/>
<path d="M1390 116 c6 -5 22 -5 42 2 l33 10 -42 -1 c-25 -1 -38 -6 -33 -11z"/>
<path d="M1625 120 c-3 -5 1 -10 10 -10 9 0 13 5 10 10 -3 6 -8 10 -10 10 -2
0 -7 -4 -10 -10z"/>
<path d="M1755 120 c3 -5 8 -10 11 -10 2 0 4 5 4 10 0 6 -5 10 -11 10 -5 0 -7
-4 -4 -10z"/>
<path d="M1955 100 c-28 -7 -28 -8 -5 -9 14 0 32 4 40 9 17 11 8 11 -35 0z"/>
<path d="M285 69 c-38 -17 -81 -35 -94 -40 -13 -5 -22 -12 -19 -14 4 -4 185
70 197 81 12 11 -22 0 -84 -27z"/>
<path d="M1848 93 c6 -2 18 -2 25 0 6 3 1 5 -13 5 -14 0 -19 -2 -12 -5z"/>
<path d="M2040 91 c0 -9 30 -24 36 -18 2 1 -6 8 -16 15 -11 7 -20 8 -20 3z"/>
<path d="M2511 84 c0 -11 3 -14 6 -6 3 7 2 16 -1 19 -3 4 -6 -2 -5 -13z"/>
<path d="M2295 65 c-14 -13 -25 -34 -25 -47 1 -23 1 -23 15 -3 33 46 45 53 81
45 39 -9 84 -36 84 -50 0 -6 7 -10 16 -10 25 0 -19 54 -60 74 -48 23 -83 20
-111 -9z"/>
<path d="M1319 63 c-13 -16 -12 -17 4 -4 16 13 21 21 13 21 -2 0 -10 -8 -17
-17z"/>
<path d="M1418 73 c7 -3 16 -2 19 1 4 3 -2 6 -13 5 -11 0 -14 -3 -6 -6z"/>
<path d="M2100 60 c0 -5 5 -10 11 -10 5 0 7 5 4 10 -3 6 -8 10 -11 10 -2 0 -4
-4 -4 -10z"/>
<path d="M1246 51 c-4 -6 -2 -11 4 -11 6 0 8 -5 4 -11 -4 -7 2 -7 17 1 31 17
39 25 15 16 -11 -4 -22 -2 -26 5 -6 8 -9 8 -14 0z"/>
<path d="M1636 48 c3 -5 10 -6 15 -3 13 9 11 12 -6 12 -8 0 -12 -4 -9 -9z"/>
<path d="M1759 43 c-13 -16 -12 -17 4 -4 16 13 21 21 13 21 -2 0 -10 -8 -17
-17z"/>
<path d="M2790 50 c14 -4 34 -8 45 -8 16 0 15 2 -5 8 -14 4 -34 8 -45 8 -16 0
-15 -2 5 -8z"/>
<path d="M1940 41 c0 -6 4 -13 10 -16 6 -3 7 1 4 9 -7 18 -14 21 -14 7z"/>
<path d="M2156 38 c3 -5 10 -6 15 -3 13 9 11 12 -6 12 -8 0 -12 -4 -9 -9z"/>
<path d="M2678 33 c7 -3 16 -2 19 1 4 3 -2 6 -13 5 -11 0 -14 -3 -6 -6z"/>
<path d="M1080 19 c19 -4 47 -11 63 -15 21 -5 27 -3 27 10 0 13 -11 16 -62 15
-56 -1 -59 -2 -28 -10z"/>
<path d="M2898 23 c6 -2 18 -2 25 0 6 3 1 5 -13 5 -14 0 -19 -2 -12 -5z"/>
<path d="M1650 9 c0 -5 5 -7 10 -4 6 3 10 8 10 11 0 2 -4 4 -10 4 -5 0 -10 -5
-10 -11z"/>
<path d="M2748 13 c6 -2 18 -2 25 0 6 3 1 5 -13 5 -14 0 -19 -2 -12 -5z"/>
</g>
</svg>
