<svg id="visual" viewBox="0 0 900 900" width="900" height="900" xmlns="http://www.w3.org/2000/svg" xmlns:xlink="http://www.w3.org/1999/xlink" version="1.1"><rect x="0" y="0" width="900" height="900" fill="#e5e7e8"></rect><path d="M0 653L21.5 632.5C43 612 86 571 128.8 565.7C171.7 560.3 214.3 590.7 257.2 606.8C300 623 343 625 385.8 621.3C428.7 617.7 471.3 608.3 514.2 594.5C557 580.7 600 562.3 642.8 559.5C685.7 556.7 728.3 569.3 771.2 585C814 600.7 857 619.3 878.5 628.7L900 638L900 901L878.5 901C857 901 814 901 771.2 901C728.3 901 685.7 901 642.8 901C600 901 557 901 514.2 901C471.3 901 428.7 901 385.8 901C343 901 300 901 257.2 901C214.3 901 171.7 901 128.8 901C86 901 43 901 21.5 901L0 901Z" fill="#c3e1bd"></path><path d="M0 708L21.5 690.8C43 673.7 86 639.3 128.8 633C171.7 626.7 214.3 648.3 257.2 659.5C300 670.7 343 671.3 385.8 668.3C428.7 665.3 471.3 658.7 514.2 655.2C557 651.7 600 651.3 642.8 661.8C685.7 672.3 728.3 693.7 771.2 704.8C814 716 857 717 878.5 717.5L900 718L900 901L878.5 901C857 901 814 901 771.2 901C728.3 901 685.7 901 642.8 901C600 901 557 901 514.2 901C471.3 901 428.7 901 385.8 901C343 901 300 901 257.2 901C214.3 901 171.7 901 128.8 901C86 901 43 901 21.5 901L0 901Z" fill="#b5d5ad"></path><path d="M0 660L21.5 660.2C43 660.3 86 660.7 128.8 666.8C171.7 673 214.3 685 257.2 696.7C300 708.3 343 719.7 385.8 727.3C428.7 735 471.3 739 514.2 730.2C557 721.3 600 699.7 642.8 700.7C685.7 701.7 728.3 725.3 771.2 732.5C814 739.7 857 730.3 878.5 725.7L900 721L900 901L878.5 901C857 901 814 901 771.2 901C728.3 901 685.7 901 642.8 901C600 901 557 901 514.2 901C471.3 901 428.7 901 385.8 901C343 901 300 901 257.2 901C214.3 901 171.7 901 128.8 901C86 901 43 901 21.5 901L0 901Z" fill="#a8ca9e"></path><path d="M0 743L21.5 743C43 743 86 743 128.8 747.3C171.7 751.7 214.3 760.3 257.2 770.8C300 781.3 343 793.7 385.8 796.7C428.7 799.7 471.3 793.3 514.2 793.3C557 793.3 600 799.7 642.8 791.7C685.7 783.7 728.3 761.3 771.2 753.3C814 745.3 857 751.7 878.5 754.8L900 758L900 901L878.5 901C857 901 814 901 771.2 901C728.3 901 685.7 901 642.8 901C600 901 557 901 514.2 901C471.3 901 428.7 901 385.8 901C343 901 300 901 257.2 901C214.3 901 171.7 901 128.8 901C86 901 43 901 21.5 901L0 901Z" fill="#9bbf8e"></path><path d="M0 787L21.5 798.8C43 810.7 86 834.3 128.8 840.7C171.7 847 214.3 836 257.2 830C300 824 343 823 385.8 829C428.7 835 471.3 848 514.2 843.8C557 839.7 600 818.3 642.8 816.8C685.7 815.3 728.3 833.7 771.2 839.2C814 844.7 857 837.3 878.5 833.7L900 830L900 901L878.5 901C857 901 814 901 771.2 901C728.3 901 685.7 901 642.8 901C600 901 557 901 514.2 901C471.3 901 428.7 901 385.8 901C343 901 300 901 257.2 901C214.3 901 171.7 901 128.8 901C86 901 43 901 21.5 901L0 901Z" fill="#8fb47f"></path></svg>