<svg id="visual" viewBox="0 0 900 900" width="900" height="900" xmlns="http://www.w3.org/2000/svg" xmlns:xlink="http://www.w3.org/1999/xlink" version="1.1"><rect x="0" y="0" width="900" height="900" fill="#e9e9e9"></rect><defs><linearGradient id="grad1_0" x1="0%" y1="0%" x2="100%" y2="100%"><stop offset="30%" stop-color="#abcca8" stop-opacity="1"></stop><stop offset="70%" stop-color="#abcca8" stop-opacity="1"></stop></linearGradient></defs><defs><linearGradient id="grad1_1" x1="0%" y1="0%" x2="100%" y2="100%"><stop offset="30%" stop-color="#abcca8" stop-opacity="1"></stop><stop offset="70%" stop-color="#e9e9e9" stop-opacity="1"></stop></linearGradient></defs><defs><linearGradient id="grad2_0" x1="0%" y1="0%" x2="100%" y2="100%"><stop offset="30%" stop-color="#abcca8" stop-opacity="1"></stop><stop offset="70%" stop-color="#abcca8" stop-opacity="1"></stop></linearGradient></defs><defs><linearGradient id="grad2_1" x1="0%" y1="0%" x2="100%" y2="100%"><stop offset="30%" stop-color="#e9e9e9" stop-opacity="1"></stop><stop offset="70%" stop-color="#abcca8" stop-opacity="1"></stop></linearGradient></defs><g transform="translate(900, 0)"><path d="M0 572.8C-52.1 545.1 -104.2 517.5 -164.1 505C-224 492.5 -291.7 495.1 -336.7 463.4C-381.6 431.6 -403.7 365.5 -428 310.9C-452.2 256.4 -478.6 213.4 -503.1 163.5C-527.6 113.6 -550.2 56.8 -572.8 0L0 0Z" fill="#cadbc8"></path><path d="M0 286.4C-26 272.6 -52.1 258.8 -82 252.5C-112 246.3 -145.9 247.6 -168.3 231.7C-190.8 215.8 -201.9 182.8 -214 155.5C-226.1 128.2 -239.3 106.7 -251.6 81.7C-263.8 56.8 -275.1 28.4 -286.4 0L0 0Z" fill="#abcca8"></path></g><g transform="translate(0, 900)"><path d="M0 -572.8C53.5 -540.5 107 -508.2 158.2 -486.9C209.4 -465.7 258.3 -455.5 316.8 -436.1C375.3 -416.7 443.5 -388.1 463.4 -336.7C483.3 -285.2 454.9 -211 465.1 -151.1C475.3 -91.2 524 -45.6 572.8 0L0 0Z" fill="#cadbc8"></path><path d="M0 -286.4C26.8 -270.2 53.5 -254.1 79.1 -243.5C104.7 -232.8 129.1 -227.7 158.4 -218C187.7 -208.3 221.7 -194 231.7 -168.3C241.6 -142.6 227.4 -105.5 232.5 -75.6C237.6 -45.6 262 -22.8 286.4 0L0 0Z" fill="#abcca8"></path></g></svg>